<svg width="35" height="35" viewBox="0 0 35 35" fill="none" xmlns="http://www.w3.org/2000/svg">
<circle cx="17.5" cy="17.5" r="17.5" fill="#FF623E"/>
<path fill-rule="evenodd" clip-rule="evenodd" d="M14.2028 8.38868C13.6992 8.4905 13.5086 8.61982 12.5338 9.52301L11.6218 10.3692L10.0859 10.3712C8.7808 10.3733 8.50894 10.3845 8.26633 10.4435C7.73669 10.5739 7.25796 10.9221 6.9536 11.4017C6.65142 11.8752 6.66658 11.4984 6.66875 18.5437C6.67091 24.4068 6.67741 24.9098 6.74565 25.1573C6.94061 25.8588 7.59805 26.4525 8.34431 26.6012C8.78513 26.6887 26.2101 26.6887 26.651 26.6012C27.0528 26.5217 27.3452 26.3649 27.6799 26.0513C28.0135 25.7367 28.1803 25.4617 28.2648 25.084C28.3579 24.6716 28.3579 12.3588 28.2648 11.9465C28.1066 11.2449 27.4752 10.6268 26.7289 10.4435C26.4863 10.3845 26.2145 10.3733 24.9093 10.3712L23.3735 10.3692L22.4615 9.52301C21.4694 8.60353 21.269 8.47116 20.7264 8.37748C20.3549 8.31231 14.5267 8.32249 14.2028 8.38868ZM21.1986 11.2153C21.9676 11.9281 22.1561 12.0819 22.3954 12.1888C22.8308 12.3853 23.0464 12.4057 24.6754 12.4057H26.1625V24.6247H8.83279V12.4057H10.3199C11.9489 12.4057 12.1644 12.3853 12.5998 12.1898C12.8392 12.0819 13.0255 11.9302 13.7934 11.2164L14.7032 10.3712L17.4944 10.3702L20.2866 10.3692L21.1986 11.2153ZM16.5228 13.0024C15.7128 13.1513 14.9475 13.4655 14.2808 13.9229C11.3673 15.9533 11.3673 20.0589 14.2808 22.0893C14.9801 22.5713 15.7914 22.8897 16.6477 23.0183C17.5039 23.1468 18.3804 23.0818 19.2046 22.8285C22.168 21.8999 23.6735 18.8146 22.4983 16.0765C21.816 14.4839 20.2433 13.2946 18.4291 12.9993C17.946 12.9199 16.9983 12.9219 16.5228 13.0024ZM18.2656 15.0358C19.2133 15.2334 20.1361 15.9757 20.5108 16.8422C20.8173 17.5509 20.8173 18.4612 20.5108 19.1699C20.1328 20.0436 19.2284 20.7676 18.2439 20.9834C17.8659 21.0669 17.1294 21.0669 16.7514 20.9834C15.9253 20.7879 15.2084 20.3059 14.7444 19.6343C14.4216 19.1454 14.2506 18.5815 14.2506 18.0061C14.2506 17.4307 14.4216 16.8668 14.7444 16.3779C15.1657 15.7578 15.9065 15.2374 16.6311 15.0531C17.0969 14.934 17.7435 14.9279 18.2656 15.0358Z" fill="white"/>
</svg>
