<svg width="23" height="22" viewBox="0 0 23 22" fill="none" xmlns="http://www.w3.org/2000/svg">
<path fill-rule="evenodd" clip-rule="evenodd" d="M7.29339 0.0781447C6.39299 0.27281 5.61246 0.932693 5.40868 1.67176C5.34474 1.90492 5.3261 2.24586 5.3261 3.18509V4.39708L3.82099 4.39928C2.57695 4.40148 2.25462 4.41577 1.96558 4.47736C1.31426 4.61814 0.725538 4.99427 0.35126 5.51228C-0.0203544 6.02369 -0.0017071 5.61676 0.000956803 13.2263C0.0036207 19.559 0.0116125 20.1023 0.0955254 20.3695C0.335277 21.1273 1.14377 21.7685 2.06148 21.9291C2.59959 22.0236 14.7124 22.0236 15.2505 21.9291C15.7446 21.8433 16.1042 21.6739 16.5158 21.3352C17.2231 20.7501 17.311 20.4696 17.3123 18.7935L17.3137 17.5947L18.7655 17.5936C20.3678 17.5936 20.7381 17.5551 21.2176 17.344C21.5746 17.1867 22.1473 16.7138 22.3378 16.419C22.6441 15.945 22.6401 16.033 22.6401 10.6847C22.6415 7.33356 22.6228 5.69485 22.5828 5.51778C22.5329 5.32947 22.4583 5.14619 22.3604 4.97118C22.2099 4.70942 21.9582 4.48616 19.582 2.52411C17.2058 0.562059 16.9354 0.354196 16.6184 0.229918C16.4064 0.149096 16.1845 0.0875132 15.9564 0.0462504C15.7473 0.0132562 14.3101 -0.00104104 11.6435 5.87694e-05C8.04061 0.00225838 7.60906 0.00995686 7.29339 0.0781447ZM13.3285 4.32009L13.3444 6.44271L13.4949 6.71107C13.6854 7.05091 14.097 7.38965 14.5166 7.55132L14.8362 7.6745L17.4069 7.68769L19.9776 7.70089V15.3951H7.99V2.19747H13.3125L13.3285 4.32009ZM17.7132 4.08913L19.4181 5.49688H15.9817V4.08913C15.9817 3.31487 15.9884 2.68138 15.995 2.68138C16.003 2.68138 16.7755 3.31487 17.7132 4.08913ZM5.32876 11.1389C5.33275 16.2035 5.3181 15.989 5.70037 16.5136C5.92281 16.8183 6.37434 17.1746 6.75261 17.344C7.29205 17.5848 7.43724 17.5936 11.2 17.5936L14.6497 17.5947V19.7943H2.66219V6.59669H5.3261L5.32876 11.1389Z" fill="white"/>
</svg>
