<svg width="25" height="25" viewBox="0 0 25 25" fill="none" xmlns="http://www.w3.org/2000/svg">
<path fill-rule="evenodd" clip-rule="evenodd" d="M1.9387 0.0888915C1.29637 0.248914 0.715776 0.676476 0.346665 1.26531C-0.0250722 1.85414 -0.0014281 1.11154 0.00119902 12.5344C0.00382614 22.0958 0.0103938 22.8497 0.0944616 23.1547C0.265225 23.7785 0.785395 24.3961 1.4054 24.7162C1.87959 24.96 2.23031 25 3.93925 25C5.56676 25 5.98184 24.96 6.38248 24.7637C6.57426 24.6699 6.57688 24.6712 6.81989 24.7812C7.22972 24.9662 7.60672 25.0012 9.21583 25C10.9011 25 11.2558 24.9587 11.726 24.7162C12.2922 24.4224 12.815 23.841 13.016 23.2797C13.1013 23.0447 13.1092 22.4834 13.1342 15.7199L13.1605 8.41509L15.2503 15.8449C16.8345 21.4795 17.3835 23.361 17.5202 23.6285C17.9773 24.5199 19.1148 25.0937 20.1499 24.955C20.7226 24.8774 23.2841 24.1974 23.6164 24.0336C24.4768 23.611 25.0718 22.6009 24.993 21.6995C24.9759 21.4995 23.8883 17.5451 22.2004 11.548C20.0895 4.04571 19.3946 1.63911 19.2567 1.37033C18.8022 0.481448 17.6646 -0.096135 16.6388 0.0426349C16.1777 0.105144 13.5269 0.787742 13.2655 0.91151C13.1411 0.971319 13.0204 1.03811 12.9043 1.11154C12.7572 1.21155 12.7519 1.21155 12.6981 1.11779C12.5812 0.919011 12.1332 0.516453 11.8429 0.348929C11.3018 0.037634 11.0482 0.00387947 9.26837 0.000128929C7.60278 -0.00237143 7.23366 0.0301333 6.81989 0.21766C6.57951 0.327676 6.57163 0.327676 6.38904 0.238913C5.96739 0.0326336 5.62061 -0.00112134 3.91298 0.00137902C2.54819 0.0026292 2.22768 0.0176313 1.9387 0.0888915ZM5.25281 12.4994V22.5009H2.62569V2.49799H5.25281V12.4994ZM10.5071 12.4994V22.5009H7.87994V2.49799H10.5071V12.4994ZM19.6613 12.1869C21.1535 17.4876 22.3698 21.8283 22.3646 21.8333C22.3422 21.8558 19.9647 22.4508 19.9003 22.4508C19.8491 22.4508 19.0413 19.6542 17.1156 12.8132C16.2071 9.59923 15.3059 6.38334 14.4123 3.16558C15.2167 2.94331 16.0265 2.73906 16.841 2.553C16.9396 2.548 17.1629 3.3131 19.6613 12.1869Z" fill="#FF6F4F"/>
</svg>
