<svg width="35" height="35" viewBox="0 0 35 35" fill="none" xmlns="http://www.w3.org/2000/svg">
<circle cx="17.5" cy="17.5001" r="17.5" fill="#FF623E"/>
<path fill-rule="evenodd" clip-rule="evenodd" d="M10.4679 7.57474C10.0646 7.69749 9.72028 8.16982 9.72028 8.6016C9.72028 9.04544 10.0635 9.50682 10.4868 9.63065C10.6856 9.68873 11.5543 9.6975 17.4962 9.6975C23.4382 9.6975 24.3069 9.68873 24.5057 9.63065C24.9256 9.50791 25.2722 9.04215 25.2722 8.6016C25.2722 8.16105 24.9256 7.69529 24.5057 7.57255C24.1724 7.47502 10.79 7.47721 10.4679 7.57474ZM9.1393 10.8734C8.5961 11.0137 8.1051 11.3885 7.79295 11.9046C7.48302 12.4142 7.49858 12.0088 7.5008 19.5913C7.50302 25.9015 7.50968 26.4428 7.57967 26.7092C7.77962 27.4642 8.45391 28.1031 9.21928 28.2631C9.67029 28.3574 25.3222 28.3574 25.7732 28.2631C26.1853 28.1777 26.4852 28.0089 26.8285 27.6714C27.1706 27.3327 27.3417 27.0368 27.4283 26.6302C27.5239 26.1864 27.5239 12.9348 27.4283 12.491C27.2662 11.7359 26.6185 11.0707 25.8532 10.8734C25.5821 10.8044 24.9767 10.7989 17.4962 10.7989C10.0158 10.7989 9.41035 10.8044 9.1393 10.8734ZM25.2722 16.6565V20.3277L23.5059 18.5863C21.522 16.6313 21.5497 16.6521 20.9621 16.6521C20.3433 16.6521 20.701 16.3365 15.4745 21.4916L10.7634 26.136H9.72028V12.9852H25.2722V16.6565ZM13.2461 15.2197C12.774 15.3184 12.3052 15.7008 12.0908 16.1633C11.9853 16.3891 11.9675 16.4822 11.9686 16.8208C11.9686 17.1584 11.9864 17.2548 12.0919 17.4828C12.2486 17.8225 12.5907 18.1589 12.9417 18.3178C13.1706 18.422 13.2661 18.4395 13.6083 18.4395C13.9504 18.4395 14.0459 18.422 14.2748 18.3178C14.6258 18.1589 14.9679 17.8225 15.1246 17.4828C15.2301 17.2537 15.2479 17.1584 15.2479 16.8208C15.2479 16.4833 15.2301 16.388 15.1246 16.1589C14.9473 15.8018 14.6562 15.5119 14.2959 15.3337C13.9627 15.2033 13.6001 15.1639 13.2461 15.2197ZM23.1282 21.2812L25.2722 23.3962V26.136H13.8749L17.4074 22.651C18.585 21.4821 19.7699 20.3205 20.9621 19.1661C20.9743 19.1661 21.9485 20.1173 23.1282 21.2812Z" fill="white"/>
</svg>
