<svg width="25" height="25" viewBox="0 0 25 25" fill="none" xmlns="http://www.w3.org/2000/svg">
<path d="M11.5957 0.52832C14.2769 0.34206 16.9452 1.04366 19.1875 2.52344C21.357 3.97361 22.992 6.08592 23.8535 8.53711L24.0156 9.03223C24.3219 10.0442 24.4626 10.9081 24.4932 12.0225L24.5 12.5166C24.4987 14.5165 24.117 16.1539 23.2549 17.8711C21.7382 20.8921 18.9828 23.1673 15.7998 24.04C12.1845 25.0309 8.52853 24.4049 5.56543 22.3066L5.28125 22.0996C4.85449 21.7784 4.58586 21.5547 4.41504 21.3809C4.28995 21.2535 4.23441 21.1688 4.20703 21.1104L4.1875 21.0605C4.13155 20.8716 4.12674 20.7474 4.14355 20.6533C4.16 20.5614 4.20474 20.4569 4.31445 20.3184L4.31348 20.3174C4.39533 20.2145 4.54915 20.1178 4.7373 20.0771L4.82031 20.0635C4.9603 20.047 5.02495 20.0583 5.10156 20.0908C5.18134 20.1248 5.28585 20.1877 5.45215 20.3135L5.64062 20.4619C6.5275 21.1801 7.13397 21.5828 7.93359 21.9609L8.28906 22.123C9.63798 22.719 11.0994 23.0176 12.5742 23.001V23.002L12.5762 23.001H12.5791C17.4183 22.9949 21.6616 19.5919 22.7568 14.8467V14.8457C23.1624 13.0743 23.1005 11.2276 22.5771 9.4873C22.0538 7.74714 21.0869 6.17289 19.7715 4.91797L19.7705 4.91699L19.4316 4.60742C17.711 3.10368 15.6371 2.22956 13.3184 2.0293C10.9579 1.8263 8.42869 2.52225 6.44824 3.91309C4.35549 5.38277 2.80922 7.67844 2.24902 10.1533V10.1543C2.17245 10.4947 2.12086 10.745 2.10254 10.9102C2.09557 10.9731 2.08182 11.1069 2.11816 11.2363C2.13762 11.3056 2.19805 11.4682 2.37793 11.5654C2.5638 11.6658 2.73792 11.6219 2.81934 11.5908L2.82031 11.5918C2.92821 11.5508 3.31369 11.4497 3.7334 11.3525C3.93487 11.3059 4.13148 11.2632 4.28711 11.2324C4.36509 11.217 4.43003 11.205 4.47852 11.1973C4.53848 11.1877 4.54425 11.1895 4.52344 11.1895C4.89224 11.1895 5.22942 11.4379 5.33203 11.7461C5.41294 11.9898 5.37682 12.2962 5.28809 12.4463L5.28711 12.4482C5.29169 12.4405 5.28538 12.4508 5.25488 12.4912C5.22841 12.5263 5.19239 12.5728 5.14648 12.6299C5.0548 12.744 4.9311 12.8931 4.78516 13.0664C4.49368 13.4125 4.11853 13.8484 3.74121 14.2803C3.36388 14.7122 2.9859 15.138 2.68945 15.4648C2.54096 15.6286 2.41421 15.7656 2.31934 15.8652C2.27197 15.9149 2.23498 15.9531 2.20801 15.9795C2.20021 15.9871 2.19377 15.993 2.18945 15.9971C1.9158 16.1817 1.61971 16.2028 1.30664 16.0469H1.30566C1.09577 15.9417 0.982809 15.8178 0.902344 15.626V15.625C0.876517 15.5635 0.811168 15.321 0.736328 14.9697C0.665758 14.6385 0.59779 14.2639 0.558594 13.9756C0.52169 13.7042 0.5 13.1245 0.5 12.5146C0.500006 12.057 0.511601 11.6172 0.533203 11.3125L0.558594 11.0576C0.881185 8.72197 1.72949 6.72477 3.15234 4.95117L3.15332 4.95215C4.2568 3.59078 5.64781 2.48946 7.22754 1.72852H7.22949C8.68767 1.02025 10.0675 0.643274 11.5967 0.529297L11.5957 0.52832ZM11.626 5.3623L11.9795 5.71582L11.9883 5.70605C12.0593 5.6312 12.1464 5.57316 12.2432 5.53711C12.5667 5.44 12.809 5.50655 13.0186 5.71582C13.1312 5.8283 13.1421 5.84123 13.1533 5.8623C13.1623 5.87907 13.1882 5.93774 13.209 6.13867C13.2522 6.55654 13.252 7.3398 13.252 9.03223V12.1689L13.3975 12.3154L15.1973 14.1182C16.0561 14.9797 16.4958 15.4232 16.7324 15.6846C16.8507 15.8152 16.8997 15.8816 16.9229 15.918C16.9368 15.9399 16.9408 15.9484 16.9512 15.9834C16.9979 16.141 17.0057 16.2031 17.0059 16.2451C17.006 16.2855 16.9993 16.3427 16.9551 16.4912C16.8992 16.6782 16.6917 16.8856 16.5039 16.9414C16.3556 16.9856 16.2984 16.9924 16.2578 16.9922C16.2154 16.992 16.1528 16.9843 15.9941 16.9375L15.9912 16.9365C15.9583 16.927 15.9522 16.9245 15.9287 16.9092C15.8879 16.8826 15.8143 16.8256 15.667 16.6904C15.5201 16.5556 15.3196 16.3612 15.0322 16.0771L13.875 14.9238C13.2052 14.2542 12.6853 13.7244 12.3262 13.3477C12.1463 13.1589 12.0092 13.0117 11.915 12.9053C11.8678 12.8519 11.8349 12.8121 11.8135 12.7852L11.8125 12.7842C11.8113 12.7781 11.8093 12.7695 11.8076 12.7578C11.7984 12.6936 11.7894 12.5766 11.7822 12.3447C11.7752 12.1153 11.7703 11.7928 11.7666 11.3291L11.7568 9.46582C11.7486 7.53469 11.7431 6.64154 11.7852 6.17285C11.8057 5.94397 11.8338 5.87956 11.8428 5.8623C11.853 5.84251 11.8575 5.8367 11.9785 5.71582L11.626 5.3623Z" fill="#FF6F4F" stroke="#FF6F4F"/>
</svg>
