<svg width="22" height="19" viewBox="0 0 22 19" fill="none" xmlns="http://www.w3.org/2000/svg">
<path fill-rule="evenodd" clip-rule="evenodd" d="M17.675 0.044202C17.38 0.138202 17.158 0.384202 17.024 0.765202C16.586 2.0112 16.024 2.5742 14.786 3.0052C14.268 3.1862 14.024 3.4992 14.024 3.9832C14.024 4.4672 14.268 4.7802 14.786 4.9612C16.023 5.3922 16.586 5.9562 17.024 7.1992C17.206 7.7172 17.518 7.9612 18.002 7.9612C18.486 7.9612 18.798 7.7172 18.98 7.1992C19.418 5.9562 19.981 5.3922 21.218 4.9612C21.736 4.7802 21.98 4.4672 21.98 3.9832C21.98 3.4992 21.736 3.1862 21.218 3.0052C19.981 2.5742 19.418 2.0102 18.98 0.767202C18.858 0.419202 18.69 0.213202 18.428 0.0892018C18.1896 -0.0116075 17.9237 -0.0274929 17.675 0.044202ZM6.947 1.0462C6.475 1.1612 6.279 1.3032 5.4 2.1712L4.578 2.9832H3.217C2.413 2.9832 1.76 3.0012 1.619 3.0262C0.851 3.1672 0.186 3.8322 0.045 4.6002C-0.015 4.9332 -0.015 17.0332 0.045 17.3662C0.186 18.1342 0.851 18.7992 1.619 18.9402C1.953 19.0012 18.051 19.0012 18.385 18.9402C19.153 18.7992 19.818 18.1342 19.959 17.3662C19.987 17.2082 20.002 16.0692 20.002 13.9832C20.002 10.4392 20.015 10.5932 19.703 10.2822C19.6114 10.1893 19.5023 10.1155 19.382 10.0651C19.2616 10.0147 19.1325 9.98875 19.002 9.98875C18.8715 9.98875 18.7424 10.0147 18.622 10.0651C18.5017 10.1155 18.3926 10.1893 18.301 10.2822C17.99 10.5932 18.002 10.4472 18.002 13.9102V16.9832H2.002V4.9832L3.392 4.9822C5.438 4.9822 5.381 5.0032 6.604 3.7952L7.426 2.9832H9.787C12.454 2.9832 12.398 2.9892 12.703 2.6842C12.7959 2.59265 12.8698 2.48352 12.9201 2.36317C12.9705 2.24283 12.9965 2.11367 12.9965 1.9832C12.9965 1.85274 12.9705 1.72357 12.9201 1.60323C12.8698 1.48288 12.7959 1.37376 12.703 1.2822C12.397 0.975202 12.469 0.983202 9.665 0.986202C7.666 0.989202 7.136 1.0012 6.947 1.0462ZM18.042 3.2152C18.042 3.2492 18.673 3.8882 18.759 3.9412C18.797 3.9642 18.758 4.0212 18.62 4.1482C18.4621 4.28628 18.3134 4.4346 18.175 4.5922L18.009 4.7742L17.605 4.3712C17.343 4.1082 17.219 3.9572 17.249 3.9382C17.333 3.8872 17.962 3.2482 17.962 3.2152C17.962 3.1972 17.98 3.1832 18.002 3.1832C18.024 3.1832 18.042 3.1972 18.042 3.2152ZM9.119 5.5652C7.119 5.9272 5.55 7.4532 5.111 9.4632C4.994 10.0002 4.994 10.9662 5.111 11.5032C5.27759 12.2794 5.62309 13.006 6.12 13.6252C6.843 14.5402 7.96 15.1962 9.15 15.4032C9.589 15.4802 10.415 15.4802 10.854 15.4032C12.873 15.0512 14.451 13.5282 14.893 11.5032C15.01 10.9662 15.01 10.0002 14.893 9.4632C14.7264 8.68698 14.3809 7.96036 13.884 7.3412C13.161 6.4262 12.044 5.7702 10.854 5.5632C10.431 5.4892 9.533 5.4902 9.119 5.5652ZM10.597 7.5502C11.678 7.7552 12.542 8.5522 12.886 9.6632C13.021 10.0982 13.022 10.8742 12.888 11.3022C12.58 12.2872 11.861 13.0352 10.942 13.3272C9.3 13.8482 7.637 12.9682 7.116 11.3022C6.982 10.8712 6.982 10.0952 7.116 9.6642C7.598 8.1232 9.032 7.2522 10.597 7.5502Z" fill="#FF5C37"/>
</svg>
