<svg width="25" height="25" viewBox="0 0 25 25" fill="none" xmlns="http://www.w3.org/2000/svg">
<path fill-rule="evenodd" clip-rule="evenodd" d="M11.5592 0.0307931C9.9641 0.14968 8.52316 0.543883 7.0108 1.27848C5.36454 2.07146 3.9144 3.21851 2.76441 4.63734C1.28212 6.48446 0.397512 8.56686 0.0629628 10.9896C-0.0209876 11.6028 -0.0209876 13.4262 0.0629628 14.0432C0.14566 14.6514 0.346139 15.5924 0.441366 15.8189C0.570424 16.1268 0.770903 16.3383 1.08415 16.4947C1.56154 16.7325 2.05647 16.6987 2.48625 16.4009C2.70928 16.2457 5.53603 13.0107 5.71771 12.7016C5.89063 12.41 5.92696 11.9495 5.80668 11.5878C5.63251 11.0647 5.09623 10.6893 4.52361 10.6893C4.33191 10.6893 2.93357 11.0134 2.64162 11.1248C2.55892 11.1573 2.58148 10.9546 2.73685 10.2638C3.26937 7.9111 4.74289 5.72108 6.73514 4.32198C8.62215 2.9967 11.0354 2.33469 13.2758 2.52741C15.6376 2.7314 17.7251 3.66497 19.4267 5.27933C20.6796 6.47457 21.6003 7.97425 22.0986 9.63157C22.597 11.2889 22.6559 13.047 22.2697 14.7339C21.226 19.2566 17.1801 22.4979 12.5741 22.5016C11.1681 22.5183 9.77507 22.2327 8.48933 21.6644C7.55084 21.2552 6.94189 20.8722 5.95453 20.0726C5.38692 19.6146 5.16514 19.5194 4.76168 19.567C4.42337 19.607 4.10887 19.7722 3.92218 20.0075C3.62772 20.3792 3.56633 20.7246 3.70792 21.2026C3.80565 21.5318 4.1214 21.8521 4.98095 22.4991C8.1197 24.8581 12.0553 25.5852 15.9321 24.5227C19.255 23.6117 22.1231 21.2402 23.7019 18.0953C24.6003 16.3058 24.9987 14.5913 25 12.5164C25 11.1085 24.8597 10.0961 24.4938 8.88722C23.6522 6.11416 21.8744 3.7181 19.463 2.10693C17.1285 0.566098 14.3506 -0.163564 11.5592 0.0307931ZM12.0892 5.06158C11.913 5.12356 11.7541 5.2265 11.6256 5.36192C11.2309 5.75612 11.2409 5.64349 11.2572 9.46789C11.2697 12.6378 11.276 12.828 11.3662 13.017C11.4288 13.1471 12.1794 13.9355 13.5213 15.2771C15.4923 17.2493 15.5925 17.3419 15.8532 17.417C16.1927 17.5171 16.323 17.5171 16.6463 17.4208C16.9959 17.3169 17.3304 16.9828 17.4344 16.6336C17.5309 16.3095 17.5309 16.1794 17.4307 15.8415C17.3542 15.5837 17.259 15.4785 15.5512 13.7653L13.7519 11.962V9.03239C13.7519 5.68604 13.7582 5.74736 13.3722 5.36192C13.0227 5.01277 12.5829 4.91015 12.0892 5.06158Z" fill="#929292"/>
</svg>
