<svg width="25" height="25" viewBox="0 0 25 25" fill="none" xmlns="http://www.w3.org/2000/svg">
<path fill-rule="evenodd" clip-rule="evenodd" d="M11.6667 0.0419501C8.87639 0.325849 6.48889 2.21058 5.77917 4.68938C5.44444 5.85624 5.53194 7.33451 6 8.43134C6.35337 9.25438 6.89201 10.0027 7.58206 10.6292C8.27212 11.2558 9.09866 11.747 10.0097 12.072C11.525 12.6098 13.475 12.6098 14.9903 12.072C16.8542 11.4116 18.3653 10.0197 19.0264 8.35129C19.5778 6.96057 19.5583 5.32971 18.9764 3.99777C18.1569 2.12054 16.3583 0.679784 14.2222 0.189527C13.3868 0.00426096 12.5215 -0.0457099 11.6667 0.0419501ZM13.6944 2.63956C14.3581 2.82713 14.961 3.1573 15.4512 3.60158C15.9415 4.04586 16.3043 4.59089 16.5083 5.18964C16.6958 5.73243 16.6958 6.74796 16.5083 7.29074C16.303 7.89391 15.9366 8.44255 15.4412 8.88864C14.9458 9.33474 14.3365 9.66468 13.6667 9.84958C13.0639 10.0184 11.9361 10.0184 11.3333 9.84958C10.5139 9.61946 9.87083 9.2305 9.27639 8.60518C8.9199 8.21865 8.65307 7.7717 8.49167 7.29074C8.30417 6.74796 8.30417 5.73243 8.49167 5.18964C8.96528 3.82143 10.2403 2.78714 11.7653 2.537C12.2181 2.46197 13.2583 2.51699 13.6944 2.63956ZM6.11111 15.0498C3.32083 15.3337 0.926389 17.2247 0.225 19.6972C0.0527777 20.3038 0 20.9554 0 22.4874C0 24.1546 0.0208333 24.2609 0.425 24.6248C0.675 24.8487 1.06111 25 1.38889 25C1.69861 25 2.09722 24.8499 2.33194 24.6461C2.74583 24.2834 2.74444 24.2909 2.78056 22.2986C2.8125 20.6327 2.82222 20.5014 2.94028 20.1725C3.15102 19.5753 3.51918 19.0329 4.0133 18.5916C4.50742 18.1504 5.11282 17.8234 5.77778 17.6387L6.19444 17.5211H18.8056L19.2222 17.6387C19.8872 17.8234 20.4926 18.1504 20.9867 18.5916C21.4808 19.0329 21.849 19.5753 22.0597 20.1725C22.1792 20.5014 22.1889 20.6302 22.2181 22.2986C22.2542 24.2921 22.2528 24.2821 22.6681 24.6461C22.9028 24.8499 23.3014 25 23.6111 25C23.9403 25 24.325 24.8499 24.5792 24.621C24.9736 24.2646 25 24.1308 25 22.4624C25 20.9566 24.9472 20.3038 24.7764 19.6972C24.3708 18.259 23.2986 16.8933 21.9444 16.0866C20.8958 15.4638 19.9944 15.1636 18.8222 15.0485C18.1722 14.9835 6.74306 14.986 6.11111 15.0498Z" fill="#FF6F4F"/>
</svg>
