<svg width="18" height="18" viewBox="0 0 18 18" fill="none" xmlns="http://www.w3.org/2000/svg">
<path fill-rule="evenodd" clip-rule="evenodd" d="M11.4996 0.0541535C11.3453 0.0904682 11.1955 0.14384 11.053 0.213284C10.8928 0.296731 9.71396 1.45237 5.57847 5.58103C0.626359 10.5238 0.300102 10.8585 0.189408 11.0963C0.12435 11.236 0.0534675 11.4475 0.0311344 11.5669C0.0058884 11.7066 -0.00479259 12.77 0.00200442 14.5544L0.0126854 17.3247L0.120467 17.5081C0.241842 17.7147 0.429245 17.8719 0.643837 17.9486C0.760357 17.9903 1.34102 18 3.54713 18C6.61938 17.999 6.59219 18.001 7.03303 17.7341C7.18742 17.641 8.77015 16.0836 12.4726 12.379C17.382 7.47022 17.7034 7.14031 17.816 6.89871C17.9401 6.63145 18.0029 6.33989 17.9999 6.04529C17.9969 5.75068 17.9281 5.46047 17.7985 5.19582C17.6665 4.91443 17.5859 4.82904 15.3817 2.62644C13.1804 0.426752 13.0921 0.343305 12.8105 0.211344C12.3493 -0.00600541 11.9803 -0.0506398 11.4996 0.0541535ZM15.2186 6.88415L14.3835 7.71862L12.325 5.66156L10.2665 3.60451L11.1015 2.77005L11.9366 1.93558L13.9951 3.99263L16.0536 6.04969L15.2186 6.88415ZM10.9656 7.05881L13.0241 9.11586L9.54792 12.5896L6.07174 16.0633H1.93527V11.9298L5.40175 8.46575C6.55732 7.30468 7.7193 6.15 8.88764 5.00175C8.89832 5.00175 9.8334 5.92743 10.9656 7.05881Z" fill="white"/>
</svg>
