<svg width="25" height="25" viewBox="0 0 25 25" fill="none" xmlns="http://www.w3.org/2000/svg">
<path fill-rule="evenodd" clip-rule="evenodd" d="M9.54567 0.0925394C9.10437 0.264777 8.73954 0.849552 8.73954 1.38571C8.73954 1.72185 8.88873 2.10939 9.1144 2.35941C9.42406 2.7025 9.66853 2.77473 10.5286 2.77473H11.2469V4.16374H10.5173C9.73459 4.15402 8.95334 4.24067 8.18792 4.4221C6.53204 4.80758 4.96757 5.57369 3.59562 6.67091L3.10919 7.05984L2.55255 6.45284C1.90062 5.74305 1.67747 5.59581 1.24118 5.59165C0.530334 5.58331 -0.00374135 6.17781 1.97415e-05 6.97233C0.00127344 7.44182 0.134165 7.69739 0.722149 8.36134L1.21736 8.92112V13.6688C1.21736 16.6149 1.23742 18.597 1.27002 18.8887C1.39538 20.0235 1.85173 21.2903 2.46103 22.1945C2.97232 22.9441 3.61346 23.573 4.3469 24.0445C5.08034 24.5161 5.89133 24.8207 6.73238 24.9406C7.31158 25.0198 17.6897 25.0198 18.2689 24.9406C19.2666 24.7957 20.2205 24.3968 21.0559 23.7752C21.5636 23.3988 22.3397 22.539 22.6794 21.9765C23.2404 21.0509 23.6004 19.9941 23.7313 18.8887C23.7639 18.597 23.7839 16.6149 23.7839 13.6688V8.92112L24.2791 8.36134C24.8721 7.69184 25 7.4432 25 6.96261C25 6.16809 24.4734 5.58887 23.7563 5.59304C23.3213 5.59443 23.0956 5.74305 22.45 6.45145L21.8933 7.06123L21.4069 6.67091C20.0341 5.57444 18.4694 4.80842 16.8134 4.4221C16.0479 4.24067 15.2667 4.15402 14.484 4.16374H13.7543V2.77473H14.4727C15.3327 2.77473 15.5772 2.7025 15.8869 2.35941C16.0034 2.23224 16.0959 2.08066 16.1591 1.9135C16.2222 1.74634 16.2548 1.56693 16.2548 1.38571C16.2548 1.20449 16.2222 1.02509 16.1591 0.857925C16.0959 0.690764 16.0034 0.539187 15.8869 0.412013C15.507 -0.00885863 15.5471 -0.00330258 12.4793 0.000864467C10.1587 0.00503151 9.73623 0.0175326 9.54567 0.0925394ZM16.2116 7.10151C17.3274 7.37653 18.398 7.84046 19.2907 8.43774C19.7483 8.74471 19.8937 8.88639 19.7495 8.88639C19.7019 8.88639 19.243 8.95029 18.7278 9.02668C15.3215 9.54062 11.9101 9.6309 8.4888 9.30032C7.20627 9.17669 5.17904 8.89056 5.17904 8.83222C5.17904 8.78499 6.04033 8.21272 6.45782 7.98214C6.93673 7.71823 7.67641 7.4182 8.26941 7.24596C9.26484 6.95705 9.38896 6.94872 12.6511 6.96122C15.6286 6.97094 15.6951 6.97372 16.2116 7.10151ZM4.55219 11.5491C7.32412 12.0492 9.47546 12.2381 12.4505 12.2409C14.9516 12.2436 16.3382 12.152 18.6939 11.8283C19.4938 11.7186 21.022 11.4602 21.1888 11.4075C21.2715 11.3811 21.2765 11.5741 21.2765 14.9133C21.2765 17.8775 21.264 18.5136 21.1988 18.8609C21.0532 19.669 20.6948 20.4111 20.1689 20.9938C19.643 21.5765 18.9732 21.9735 18.2438 22.1348C17.6822 22.264 7.31911 22.264 6.75745 22.1348C6.02742 21.9752 5.3567 21.5788 4.83053 20.9958C4.30437 20.4128 3.94653 19.6697 3.80248 18.8609C3.73729 18.5136 3.72475 17.8789 3.72475 14.9161V11.3838L3.83759 11.413C3.90027 11.4283 4.22122 11.4894 4.55219 11.5491Z" fill="#929292"/>
</svg>
