<svg width="11" height="11" viewBox="0 0 11 11" fill="none" xmlns="http://www.w3.org/2000/svg">
<path d="M8.88665 7.03382C8.57028 7.03529 8.25829 7.10229 7.97372 7.2299C7.68915 7.3575 7.43926 7.54244 7.24247 7.77108L4.15276 5.98839C4.26537 5.65298 4.26537 5.29397 4.15276 4.95856L7.24247 3.17587C7.55607 3.53425 7.99698 3.77862 8.48711 3.8657C8.97725 3.95278 9.48495 3.87694 9.9203 3.65163C10.3556 3.42631 10.6905 3.06606 10.8656 2.63468C11.0407 2.20331 11.0448 1.72865 10.877 1.29481C10.7092 0.860961 10.3805 0.495922 9.94897 0.264355C9.51749 0.0327887 9.01113 -0.0503585 8.51959 0.0296427C8.02804 0.109644 7.58304 0.34763 7.26342 0.701442C6.94379 1.05525 6.77017 1.50206 6.77331 1.9627C6.77536 2.13713 6.80381 2.31045 6.85784 2.47761L3.76813 4.26031C3.49536 3.94339 3.12252 3.71265 2.70129 3.60005C2.28007 3.48745 1.83132 3.49857 1.41725 3.63188C1.00318 3.76519 0.644306 4.01409 0.390366 4.34406C0.136425 4.67403 0 5.06874 0 5.47347C0 5.87821 0.136425 6.27292 0.390366 6.60289C0.644306 6.93286 1.00318 7.18175 1.41725 7.31507C1.83132 7.44838 2.28007 7.4595 2.70129 7.3469C3.12252 7.2343 3.49536 7.00356 3.76813 6.68664L6.85784 8.46934C6.80381 8.6365 6.77536 8.80982 6.77331 8.98425C6.77331 9.37001 6.89725 9.7471 7.12947 10.0679C7.36169 10.3886 7.69175 10.6386 8.07791 10.7862C8.46407 10.9338 8.889 10.9725 9.29895 10.8972C9.7089 10.8219 10.0855 10.6362 10.381 10.3634C10.6766 10.0906 10.8778 9.74311 10.9594 9.36476C11.0409 8.98641 10.9991 8.59425 10.8391 8.23785C10.6792 7.88146 10.4083 7.57684 10.0608 7.36253C9.71323 7.14821 9.30463 7.03382 8.88665 7.03382ZM8.88665 0.792442C9.13744 0.792442 9.3826 0.861076 9.59112 0.989666C9.79964 1.11826 9.96217 1.30102 10.0581 1.51486C10.1541 1.7287 10.1792 1.964 10.1303 2.19101C10.0814 2.41801 9.9606 2.62653 9.78327 2.7902C9.60594 2.95386 9.38 3.06532 9.13403 3.11047C8.88806 3.15563 8.63311 3.13245 8.40141 3.04388C8.16971 2.9553 7.97167 2.80531 7.83234 2.61286C7.69301 2.42041 7.61865 2.19416 7.61865 1.9627C7.61865 1.65233 7.75224 1.35467 7.99004 1.1352C8.22783 0.915737 8.55036 0.792442 8.88665 0.792442ZM2.12395 6.64373C1.87316 6.64373 1.628 6.5751 1.41948 6.44651C1.21096 6.31792 1.04844 6.13515 0.952463 5.92131C0.85649 5.70748 0.831379 5.47218 0.880306 5.24517C0.929232 5.01816 1.05 4.80964 1.22733 4.64598C1.40467 4.48231 1.6306 4.37086 1.87657 4.3257C2.12254 4.28055 2.3775 4.30372 2.60919 4.3923C2.84089 4.48087 3.03893 4.63087 3.17826 4.82331C3.31759 5.01576 3.39196 5.24202 3.39196 5.47347C3.39196 5.78385 3.25836 6.08151 3.02057 6.30097C2.78277 6.52044 2.46024 6.64373 2.12395 6.64373ZM8.88665 10.1545C8.63587 10.1545 8.39071 10.0859 8.18219 9.95728C7.97366 9.82869 7.81114 9.64592 7.71517 9.43209C7.61919 9.21825 7.59408 8.98295 7.64301 8.75594C7.69194 8.52893 7.8127 8.32041 7.99004 8.15675C8.16737 7.99309 8.39331 7.88163 8.63928 7.83648C8.88525 7.79132 9.1402 7.8145 9.3719 7.90307C9.6036 7.99165 9.80163 8.14164 9.94096 8.33409C10.0803 8.52654 10.1547 8.75279 10.1547 8.98425C10.1547 9.29462 10.0211 9.59228 9.78327 9.81175C9.54547 10.0312 9.22295 10.1545 8.88665 10.1545Z" fill="#6F6F6F"/>
</svg>
