<svg width="153" height="153" viewBox="0 0 153 153" fill="none" xmlns="http://www.w3.org/2000/svg">
<mask id="mask0_1049_58747" style="mask-type:alpha" maskUnits="userSpaceOnUse" x="0" y="0" width="153" height="153">
<circle cx="76.5" cy="76.5" r="76.5" fill="white"/>
</mask>
<g mask="url(#mask0_1049_58747)">
<path d="M140.895 46.703C140.895 43.0096 112.265 40.0156 76.9476 40.0156C41.6303 40.0156 13 43.0096 13 46.703" stroke="url(#paint0_linear_1049_58747)" stroke-width="3"/>
<rect x="36.9185" y="59.2412" width="49.319" height="49.319" rx="12" transform="rotate(20.4495 36.9185 59.2412)" fill="url(#paint1_linear_1049_58747)"/>
<rect x="51.4526" y="118.841" width="49.319" height="49.319" rx="12" transform="rotate(-16.0362 51.4526 118.841)" fill="url(#paint2_linear_1049_58747)"/>
<rect x="66.4985" y="59.6602" width="49.319" height="49.319" rx="12" transform="rotate(-30 66.4985 59.6602)" fill="url(#paint3_linear_1049_58747)" fill-opacity="0.9"/>
<path d="M13 46.7031L14.6503 85.1238L17.5975 85.1553M140.895 46.7031L139.245 85.9912H135.88" stroke="#1F6BFE" stroke-width="3"/>
<path d="M139.224 67.8242L138.806 76.3779L138.388 85.1543H135.88L129.264 162.058C129.974 162.463 130.347 162.883 130.347 163.313C130.345 166.776 106.206 169.582 76.4302 169.582C46.6542 169.582 22.5161 166.776 22.5142 163.313C22.5142 163.027 22.6804 162.744 23.0015 162.468L17.5981 84.3184H15.5083L15.0903 76.3779L14.6724 67.6006L139.224 67.8242Z" fill="url(#paint4_linear_1049_58747)" fill-opacity="0.83"/>
<path d="M16.7617 84.7373L22.1952 163.731M136.716 85.5732L130.028 163.731" stroke="#1A68FE" stroke-width="3"/>
<path d="M140.895 46.7031C140.895 50.3964 112.265 53.3905 76.9476 53.3905C41.6303 53.3905 13 50.3964 13 46.7031" stroke="url(#paint5_linear_1049_58747)" stroke-width="3"/>
<path d="M18.3604 51.0811L40.5121 53.5888L45.1097 125.478L23.7938 118.372L18.3604 51.0811Z" fill="url(#paint6_linear_1049_58747)"/>
<path d="M42.1001 53.7617L47.5336 54.1797L52.549 132.756L47.1156 128.994L42.1001 53.7617Z" fill="url(#paint7_linear_1049_58747)"/>
<path d="M52.4023 165.451L30.9908 163.054L26.7483 112.229L48.479 128.332L52.4023 165.451Z" fill="url(#paint8_linear_1049_58747)"/>
<path d="M104.097 109.307C93.5739 112.127 82.6581 105.511 79.7158 94.5302L117.823 84.3193C120.765 95.2999 114.62 106.487 104.097 109.307Z" fill="white"/>
<path d="M88.5933 96.2922C90.792 99.4064 94.2527 100.7 97.0491 99.951C99.8455 99.2016 102.196 96.3507 102.543 92.5545L88.5933 96.2922Z" fill="#1B3A67" stroke="#1B3A67" stroke-width="8"/>
<path d="M48.7727 110.143C59.2958 112.962 70.2116 106.347 73.1538 95.3661L35.0464 85.1553C32.1041 96.1359 38.2496 107.323 48.7727 110.143Z" fill="white"/>
<path d="M64.2763 97.1291C62.0777 100.243 58.6169 101.537 55.8205 100.788C53.0241 100.039 50.6739 97.1877 50.327 93.3914L64.2763 97.1291Z" fill="#1B3A67" stroke="#1B3A67" stroke-width="8"/>
<path d="M79.0381 93.0964L107.041 81.8115" stroke="#1B3A67" stroke-width="7"/>
<path d="M72.9961 93.0964L44.9929 81.8115" stroke="#1B3A67" stroke-width="7"/>
<path d="M62.3193 114.412H84.7507L89.9046 111.068" stroke="#1B3A67" stroke-width="4"/>
<path d="M96.4813 137.908C21.7503 189.449 2.45108 122.441 17.9894 105.217C29.2548 114.507 52.7364 131.9 79.7732 123.792C113.569 113.658 102.937 140.08 101.038 137.908C99.5192 136.171 97.3674 137.184 96.4813 137.908Z" fill="url(#paint9_linear_1049_58747)"/>
<path d="M56.7929 125.163C134.428 194.146 150.619 122.255 136.089 105.217C125.554 114.406 103.595 131.611 78.3109 123.591C46.7062 113.566 47.4029 123.458 50.1504 123.917C52.6414 124.332 56.05 125.163 56.7929 125.163Z" fill="url(#paint10_linear_1049_58747)"/>
</g>
<defs>
<linearGradient id="paint0_linear_1049_58747" x1="13" y1="43.3593" x2="140.895" y2="43.3593" gradientUnits="userSpaceOnUse">
<stop offset="0.00961538" stop-color="#1564FE"/>
<stop offset="0.201923" stop-color="#E8F5FF"/>
<stop offset="1" stop-color="#1564FE"/>
</linearGradient>
<linearGradient id="paint1_linear_1049_58747" x1="59.225" y1="64.3056" x2="54.1538" y2="108.127" gradientUnits="userSpaceOnUse">
<stop stop-color="#1564FE"/>
<stop offset="1" stop-color="#AACBFB"/>
</linearGradient>
<linearGradient id="paint2_linear_1049_58747" x1="73.7592" y1="123.905" x2="68.688" y2="167.727" gradientUnits="userSpaceOnUse">
<stop stop-color="#C6E4FB"/>
<stop offset="1" stop-color="#1E447C"/>
</linearGradient>
<linearGradient id="paint3_linear_1049_58747" x1="99.2171" y1="69.8632" x2="74.8116" y2="102.104" gradientUnits="userSpaceOnUse">
<stop stop-color="#C6E4FB"/>
<stop offset="1" stop-color="#1564FE"/>
</linearGradient>
<linearGradient id="paint4_linear_1049_58747" x1="76.9482" y1="67.6006" x2="76.9482" y2="169.582" gradientUnits="userSpaceOnUse">
<stop stop-color="#1564FE"/>
<stop offset="1" stop-color="#AACBFB"/>
</linearGradient>
<linearGradient id="paint5_linear_1049_58747" x1="13" y1="50.0468" x2="140.895" y2="50.0468" gradientUnits="userSpaceOnUse">
<stop offset="0.00961538" stop-color="#1564FE"/>
<stop offset="0.201923" stop-color="#E8F5FF"/>
<stop offset="1" stop-color="#1564FE"/>
</linearGradient>
<linearGradient id="paint6_linear_1049_58747" x1="29.6452" y1="52.3349" x2="31.7909" y2="128.137" gradientUnits="userSpaceOnUse">
<stop offset="0.427046" stop-color="white"/>
<stop offset="1" stop-color="#455F85" stop-opacity="0.12"/>
</linearGradient>
<linearGradient id="paint7_linear_1049_58747" x1="45.8225" y1="54.5976" x2="45.8225" y2="120.635" gradientUnits="userSpaceOnUse">
<stop offset="0.427215" stop-color="white"/>
<stop offset="1" stop-color="#5B88BD" stop-opacity="0.64"/>
</linearGradient>
<linearGradient id="paint8_linear_1049_58747" x1="42.7462" y1="164.791" x2="42.7462" y2="130.039" gradientUnits="userSpaceOnUse">
<stop offset="0.0288462" stop-color="white"/>
<stop offset="0.427215" stop-color="#516E94" stop-opacity="0.6"/>
</linearGradient>
<linearGradient id="paint9_linear_1049_58747" x1="24.2849" y1="132.802" x2="76.1649" y2="131.251" gradientUnits="userSpaceOnUse">
<stop offset="0.00731069" stop-color="#1564FE"/>
<stop offset="1" stop-color="#AACBFB"/>
</linearGradient>
<linearGradient id="paint10_linear_1049_58747" x1="130.428" y1="129.402" x2="75.2761" y2="129.04" gradientUnits="userSpaceOnUse">
<stop offset="0.0220795" stop-color="#1564FE"/>
<stop offset="1" stop-color="#AACBFB"/>
</linearGradient>
</defs>
</svg>
