<svg width="153" height="153" viewBox="0 0 153 153" fill="none" xmlns="http://www.w3.org/2000/svg">
<mask id="mask0_1049_92086" style="mask-type:alpha" maskUnits="userSpaceOnUse" x="0" y="0" width="153" height="153">
<circle cx="76.5" cy="76.5" r="76.5" fill="white"/>
</mask>
<g mask="url(#mask0_1049_92086)">
<circle cx="44.6035" cy="92.6542" r="22.6874" fill="#7CAA89"/>
<ellipse cx="110.66" cy="143.122" rx="22.6874" ry="22.8418" fill="#7CAA89"/>
<ellipse cx="80.7187" cy="174.606" rx="22.6874" ry="22.8418" fill="#7CAA89"/>
<path d="M132.421 60.661C125.963 63.9247 107.108 67.1884 76.7631 67.1884C46.4185 67.1884 25.3158 65.431 22.5332 60.661C22.5332 53.867 47.1323 48.3594 77.4769 48.3594C107.822 48.3594 132.421 53.867 132.421 60.661Z" fill="url(#paint0_linear_1049_92086)"/>
<path d="M149.348 113.432C157.936 133.821 163.464 181.385 115.371 194.456C109.043 195.992 92.5906 199.232 77.4034 199.902V199.903C62.2161 199.233 45.7628 195.993 39.4346 194.457C-8.65875 181.386 -3.13003 132.822 5.45807 112.433L22.6944 60.9453C30.288 66.9782 63.5406 66.9551 77.4024 66.6758H77.4034C91.2651 66.955 124.268 66.0054 131.861 59.9727L149.348 113.432Z" fill="url(#paint1_linear_1049_92086)" fill-opacity="0.8"/>
<path d="M77.168 38.5557C91.9637 38.5557 105.337 39.5036 114.99 41.0293C119.825 41.7934 123.681 42.6958 126.307 43.6768C127.625 44.1693 128.574 44.6608 129.175 45.125C129.795 45.6038 129.877 45.9176 129.877 46.0439C129.877 46.1702 129.795 46.4847 129.175 46.9639C128.574 47.4281 127.625 47.9186 126.307 48.4111C123.681 49.3921 119.825 50.2945 114.99 51.0586C105.337 52.5843 91.9637 53.5322 77.168 53.5322C62.3722 53.5322 48.9993 52.5843 39.3457 51.0586C34.5112 50.2945 30.6546 49.3921 28.0293 48.4111C26.7113 47.9186 25.7622 47.4281 25.1611 46.9639C24.5408 46.4847 24.459 46.1702 24.459 46.0439C24.4591 45.9176 24.5413 45.6038 25.1611 45.125C25.7622 44.6608 26.7112 44.1693 28.0293 43.6768C30.6546 42.6958 34.5112 41.7934 39.3457 41.0293C48.9993 39.5036 62.3722 38.5557 77.168 38.5557Z" stroke="#6CCC9F" stroke-width="2"/>
<path d="M152.181 110.341L151.236 110.667L151.242 110.686L151.249 110.704L152.181 110.341ZM116.475 197.256L116.728 198.223L116.742 198.22L116.756 198.215L116.475 197.256ZM78.4941 203.285L78.5474 204.284L78.5525 204.283L78.4941 203.285ZM77.0107 203.364L76.9632 204.363L77.0136 204.366L77.064 204.363L77.0107 203.364ZM37.5469 197.256L37.2655 198.215L37.2794 198.22L37.2935 198.223L37.5469 197.256ZM1.84082 110.341L2.77235 110.704L2.77952 110.686L2.78597 110.667L1.84082 110.341ZM23.9219 46.4463L24.5727 45.687L23.4568 44.7306L22.9767 46.1197L23.9219 46.4463ZM77.0107 53.9639L77.0289 52.964L77.009 52.9637L76.989 52.9641L77.0107 53.9639ZM78.4082 53.9893L78.39 54.9891L78.3937 54.9892L78.4082 53.9893ZM130.1 46.4463L131.045 46.1197L130.565 44.7306L129.449 45.687L130.1 46.4463ZM152.181 110.341L151.249 110.704C155.664 122.013 159.183 139.869 155.444 156.658C151.724 173.366 140.814 189.077 116.193 196.296L116.475 197.256L116.756 198.215C142.123 190.777 153.529 174.462 157.397 157.093C161.246 139.805 157.624 121.533 153.112 109.977L152.181 110.341ZM116.475 197.256L116.221 196.288C109.891 197.946 93.7109 201.394 78.4358 202.287L78.4941 203.285L78.5525 204.283C93.9987 203.38 110.315 199.903 116.728 198.223L116.475 197.256ZM78.4941 203.285L78.4409 202.287L76.9575 202.366L77.0107 203.364L77.064 204.363L78.5474 204.284L78.4941 203.285ZM77.0107 203.364L77.0583 202.365C61.3652 201.618 44.3369 198 37.8002 196.288L37.5469 197.256L37.2935 198.223C43.912 199.957 61.0855 203.607 76.9632 204.363L77.0107 203.364ZM37.5469 197.256L37.8283 196.296C13.2073 189.077 2.29719 173.366 -1.42296 156.658C-5.16133 139.869 -1.64243 122.013 2.77235 110.704L1.84082 110.341L0.909296 109.977C-3.60236 121.533 -7.22443 139.805 -3.37516 157.093C0.492321 174.462 11.8985 190.777 37.2655 198.215L37.5469 197.256ZM1.84082 110.341L2.78597 110.667L24.867 46.7729L23.9219 46.4463L22.9767 46.1197L0.895669 110.014L1.84082 110.341ZM23.9219 46.4463L23.2711 47.2055C25.4329 49.0586 29.0346 50.4373 33.2802 51.4897C37.5649 52.5517 42.6549 53.3154 47.9215 53.8543C58.4572 54.9324 69.7989 55.1209 77.0325 54.9636L77.0107 53.9639L76.989 52.9641C69.815 53.1201 58.5587 52.9324 48.1251 51.8647C42.9071 51.3308 37.9195 50.5791 33.7613 49.5484C29.564 48.5081 26.3572 47.2167 24.5727 45.687L23.9219 46.4463ZM77.0107 53.9639L76.9926 54.9637L78.39 54.9891L78.4082 53.9893L78.4264 52.9894L77.0289 52.964L77.0107 53.9639ZM78.4082 53.9893L78.3937 54.9892C85.8771 55.0975 96.9311 54.8497 107.086 53.7506C112.162 53.2012 117.038 52.4365 121.141 51.3891C125.208 50.3509 128.654 49.0021 130.75 47.2055L130.1 46.4463L129.449 45.687C127.722 47.1674 124.659 48.4269 120.647 49.4512C116.671 50.4662 111.898 51.2182 106.871 51.7622C96.8198 52.8501 85.8512 53.0969 78.4227 52.9894L78.4082 53.9893ZM130.1 46.4463L129.154 46.7729L151.236 110.667L152.181 110.341L153.126 110.014L131.045 46.1197L130.1 46.4463Z" fill="url(#paint2_linear_1049_92086)"/>
<path d="M56.4883 89.1045C56.7555 90.0964 57.5197 91.6557 58.912 92.8086M69.4525 89.1045C69.1021 90.8383 67.3502 94.306 63.1456 94.306C62.411 94.306 61.7442 94.2001 61.1414 94.0162M58.912 92.8086L56.9158 94.7841M58.912 92.8086C59.5283 93.3189 60.2676 93.7496 61.1414 94.0162M61.1414 94.0162L59.685 96.5126" stroke="#21A26A" stroke-width="3" stroke-linecap="round"/>
<path d="M96.9238 89.1045C96.6566 90.0964 95.8924 91.6557 94.5001 92.8086M94.5001 92.8086C93.8839 93.3189 93.1445 93.7496 92.2707 94.0162C91.6679 94.2001 91.0011 94.306 90.2665 94.306C86.0619 94.306 84.31 90.8383 83.9596 89.1045M94.5001 92.8086L96.4963 94.7841M92.2707 94.0162L93.7271 96.5126" stroke="#21A26A" stroke-width="3" stroke-linecap="round"/>
<path d="M70.6855 100.216C71.1527 101.965 73.1382 105.463 77.3429 105.463C81.5475 105.463 83.2994 101.965 83.6498 100.216" stroke="#21A26A" stroke-width="3" stroke-linecap="round"/>
<ellipse cx="46.1465" cy="100.217" rx="7.56248" ry="7.40814" fill="#21A26A"/>
<ellipse cx="107.572" cy="100.217" rx="7.56248" ry="7.40814" fill="#21A26A"/>
<path d="M91.76 41.2485C91.2977 38.9491 89.256 35.3082 88.293 33.7752C104.472 29.1763 115.451 40.6737 118.918 46.9972C119.689 46.8056 118.803 47.2272 109.095 50.4465C96.9605 54.4706 92.3378 44.1229 91.76 41.2485Z" fill="#84AB43"/>
<path d="M116.263 45.9846C110.167 41.9205 96.7558 34.0792 91.8789 35.2267" stroke="#627A3C" stroke-linecap="round"/>
<g filter="url(#filter0_d_1049_92086)">
<path d="M98.1429 57.4997C97.1094 56.3476 94.7285 54.9626 93.6673 54.4141C101.322 46.3768 111.416 49.2317 115.506 51.6638C115.88 51.2966 115.518 51.8332 111.079 56.917C105.531 63.2717 99.4348 58.9397 98.1429 57.4997Z" fill="#84AB43"/>
<path d="M113.658 51.9771C108.831 51.7106 98.5796 51.7492 96.1923 54.0362" stroke="#627A3C" stroke-linecap="round"/>
</g>
<path d="M123.656 32.7591C115.599 32.2935 112.005 39.5496 111.215 43.2359C103.513 44.9818 108.252 68.2643 126.026 67.1002C126.741 67.0533 127.899 66.7581 128.552 66.6675C140.424 67.6173 141.852 55.9913 140.95 51.3849C144.387 43.9407 137.225 37.0332 131.95 33.9234C130.054 31.1296 125.631 31.9831 123.656 32.7591Z" fill="#D7543F"/>
<path d="M134.32 58.3695C137.798 56.0545 139.884 53.6939 140.95 51.3849C144.387 43.9407 137.225 37.0332 131.95 33.9234C130.054 31.1296 125.631 31.9831 123.656 32.7591C115.599 32.2935 112.005 39.5496 111.215 43.2359M111.215 43.2359C103.513 44.9818 108.252 68.2643 126.026 67.1002C126.741 67.0533 127.899 66.7581 128.552 66.6675M111.215 43.2359C110.871 47.3483 111.767 54.7354 118.104 51.3849M140.95 51.3849C141.852 55.9913 140.424 67.6173 128.552 66.6675M128.552 66.6675C129.502 66.1174 130.926 64.9579 130.926 63.8181" stroke="#F49A77" stroke-width="2" stroke-linecap="round"/>
<path d="M132.397 55.5839C135.312 52.8698 132.261 49.5152 131.254 48.008C134.97 43.761 125.36 38.291 119.689 45.0068C115.151 50.3795 119.162 53.1035 121.167 54.3785C122.571 58.0783 126.277 58.9943 129.158 58.15C130.774 58.4041 131.99 56.5451 132.397 55.5839Z" fill="#FAB856"/>
<path d="M125.945 49.6005C121.698 48.0079 120.731 53.231 121.167 54.3785M121.167 54.3785C122.571 58.0783 126.277 58.9943 129.158 58.15C130.774 58.4041 131.99 56.5451 132.397 55.5839C135.312 52.8698 132.261 49.5152 131.254 48.008C134.97 43.761 125.36 38.291 119.689 45.0068C115.151 50.3795 119.162 53.1035 121.167 54.3785Z" stroke="#D7543F" stroke-width="2" stroke-linecap="round"/>
<path d="M121.551 59.6027C119.541 53.9166 113.502 53.5397 110.733 54.062C107.302 49.2606 92.6316 59.2624 98.5759 71.1713C98.815 71.6505 99.3536 72.3631 99.6049 72.7867C102.385 81.2416 110.809 78.8616 113.722 76.9075C119.845 77.1221 122.533 70.1888 123.149 65.6543C124.525 63.5397 122.657 60.7389 121.551 59.6027Z" fill="#D7543F"/>
<path d="M106.991 74.3599C109.592 76.0867 111.822 76.8409 113.722 76.9075C119.845 77.1221 122.533 70.1888 123.149 65.6543C124.525 63.5397 122.657 60.7389 121.551 59.6027C119.541 53.9166 113.502 53.5397 110.733 54.062M110.733 54.062C107.302 49.2606 92.6316 59.2624 98.5759 71.1713C98.815 71.6505 99.3536 72.3631 99.6049 72.7867M110.733 54.062C107.8 55.0147 102.97 57.7695 107.112 61.1665M113.722 76.9075C110.809 78.8616 102.385 81.2416 99.6049 72.7867M99.6049 72.7867C100.259 73.2819 101.47 73.9281 102.255 73.5983" stroke="#F49A77" stroke-width="2" stroke-linecap="round"/>
<path d="M108.355 72.2295C111.068 73.4529 112.497 70.3804 113.244 69.2503C117.245 70.5819 118.234 62.3784 111.966 60.4136C106.951 58.8418 106.234 62.3931 105.936 64.1435C103.793 66.1814 104.234 69.0002 105.65 70.7407C105.942 71.9276 107.575 72.2278 108.355 72.2295Z" fill="#FAB856"/>
<path d="M110.611 66.0531C110.479 62.6661 106.601 63.5114 105.936 64.1435M105.936 64.1435C103.793 66.1814 104.234 69.0002 105.65 70.7407C105.942 71.9276 107.575 72.2278 108.355 72.2295C111.068 73.4529 112.497 70.3804 113.244 69.2503C117.245 70.5819 118.234 62.3784 111.966 60.4136C106.951 58.8418 106.234 62.3931 105.936 64.1435Z" stroke="#D7543F" stroke-width="2" stroke-linecap="round"/>
<path d="M41.0541 54.3695L32.0254 52.3721L12.9648 104.306L27.2602 108.55L41.0541 54.3695Z" fill="url(#paint3_linear_1049_92086)"/>
<path d="M26.5455 110.641L12.5044 106.39C8.09144 117.392 8.24206 119.893 10.4985 122.144L23.5367 126.145C22.1326 122.544 24.9575 114.308 26.5455 110.641Z" fill="white"/>
</g>
<defs>
<filter id="filter0_d_1049_92086" x="89.668" y="44.1133" width="29.9492" height="19.1689" filterUnits="userSpaceOnUse" color-interpolation-filters="sRGB">
<feFlood flood-opacity="0" result="BackgroundImageFix"/>
<feColorMatrix in="SourceAlpha" type="matrix" values="0 0 0 0 0 0 0 0 0 0 0 0 0 0 0 0 0 0 127 0" result="hardAlpha"/>
<feOffset dy="-1"/>
<feGaussianBlur stdDeviation="2"/>
<feComposite in2="hardAlpha" operator="out"/>
<feColorMatrix type="matrix" values="0 0 0 0 0 0 0 0 0 0 0 0 0 0 0 0 0 0 0.25 0"/>
<feBlend mode="normal" in2="BackgroundImageFix" result="effect1_dropShadow_1049_92086"/>
<feBlend mode="normal" in="SourceGraphic" in2="effect1_dropShadow_1049_92086" result="shape"/>
</filter>
<linearGradient id="paint0_linear_1049_92086" x1="79.76" y1="45.0957" x2="79.76" y2="83.7579" gradientUnits="userSpaceOnUse">
<stop stop-color="#2DA56E"/>
<stop offset="0.644231" stop-color="#FDDB99" stop-opacity="0.55"/>
</linearGradient>
<linearGradient id="paint1_linear_1049_92086" x1="77.4029" y1="59.9727" x2="77.4029" y2="199.903" gradientUnits="userSpaceOnUse">
<stop offset="0.142806" stop-color="#FDDC99"/>
<stop offset="0.787379" stop-color="#67CB9D"/>
<stop offset="1" stop-color="#C2E7C4"/>
</linearGradient>
<linearGradient id="paint2_linear_1049_92086" x1="77.0109" y1="46.4463" x2="77.0109" y2="203.364" gradientUnits="userSpaceOnUse">
<stop stop-color="#67CB9F"/>
<stop offset="1" stop-color="#FBE1AB"/>
</linearGradient>
<linearGradient id="paint3_linear_1049_92086" x1="27.0094" y1="52.3721" x2="27.0094" y2="108.55" gradientUnits="userSpaceOnUse">
<stop offset="0.632376" stop-color="white"/>
<stop offset="1" stop-color="#FDDFAD" stop-opacity="0.36"/>
</linearGradient>
</defs>
</svg>
