<svg width="153" height="153" viewBox="0 0 153 153" fill="none" xmlns="http://www.w3.org/2000/svg">
<mask id="mask0_1049_91057" style="mask-type:alpha" maskUnits="userSpaceOnUse" x="0" y="0" width="153" height="153">
<circle cx="76.5" cy="76.5" r="76.5" fill="white"/>
</mask>
<g mask="url(#mask0_1049_91057)">
<path d="M139.292 47.5657C125.646 34.4717 103.969 34.9192 90.8752 48.5653L140.292 95.9828C153.386 82.3367 152.938 60.6596 139.292 47.5657Z" fill="#FDCC09"/>
<path d="M136.218 49.972C123.892 38.1451 104.398 38.4602 92.6772 50.6756L137.312 93.5043C149.033 81.2889 148.543 61.7988 136.218 49.972Z" fill="#F8E8B1"/>
<path d="M117.598 70.7576L134.749 53.1094C135.837 52.9157 138.667 54.3098 141.689 60.8552C144.107 66.0914 143.184 69.125 142.42 69.9872L117.598 70.7576Z" fill="url(#paint0_linear_1049_91057)"/>
<path d="M117.471 72.2618L142.19 72.2348C143.093 72.8856 144.079 75.9156 141.499 82.7146C139.436 88.1539 136.609 89.6233 135.453 89.6781L117.471 72.2618Z" fill="url(#paint1_linear_1049_91057)"/>
<path d="M116.151 69.915L133.639 52.4457C133.817 51.3467 132.37 48.5081 125.737 45.5279C120.43 43.1438 117.393 44.1058 116.537 44.8848L116.151 69.915Z" fill="url(#paint2_linear_1049_91057)"/>
<path d="M114.809 69.8613L114.519 45.1443C113.857 44.2495 110.814 43.3029 104.049 45.9693C98.6365 48.1024 97.2035 50.9485 97.1635 52.1049L114.809 69.8613Z" fill="url(#paint3_linear_1049_91057)"/>
<circle cx="35.6561" cy="67.8294" r="16.5077" fill="#FFE89B"/>
<circle cx="49.5361" cy="71.1889" r="11.1025" fill="#FFE89B"/>
<circle cx="49.5353" cy="60.086" r="4.96691" fill="#FFE89B"/>
<circle cx="60.9298" cy="65.9298" r="4.96691" fill="#FFE89B"/>
<circle cx="67.6486" cy="59.5017" r="3.50605" fill="#FFE89B"/>
<circle cx="62.2437" cy="52.9287" r="1.60694" fill="#FFE89B"/>
<path d="M52.7467 201.954C44.1246 157.626 69.4704 138.115 83.2211 133.9H66.1256C38.4757 141.04 37.2617 181.5 40.1109 200.838L52.7467 201.954Z" fill="url(#paint4_linear_1049_91057)"/>
<path d="M108.47 151.844C93.2881 168.204 85.1475 148.901 82.9749 137.205L72.9986 141.085C83.5184 181.984 104.533 171.593 113.726 161.285L108.47 151.844Z" fill="url(#paint5_linear_1049_91057)"/>
<path d="M17.9485 65.123H121.447C127.59 82.6693 123.231 121.323 87.1927 130.505C83.0184 135.608 75.5539 145.593 70.2501 144.705C65.8302 145.593 56.0376 135.451 49.624 129.402C16.7628 118.476 12.3304 81.4335 17.9485 65.123Z" fill="url(#paint6_linear_1049_91057)"/>
<path d="M87.1927 130.505C123.231 121.323 127.59 82.6693 121.447 65.123H17.9485C12.3304 81.4335 16.7628 118.476 49.624 129.402C55.5416 131.369 62.3812 132.49 70.2501 132.49C76.5491 132.49 82.1776 131.783 87.1927 130.505ZM49.624 129.402C56.0376 135.451 65.8302 145.593 70.2501 144.705C75.5539 145.593 83.0184 135.608 87.1927 130.505" stroke="url(#paint7_linear_1049_91057)" stroke-width="2" stroke-linecap="round"/>
<path d="M70.1781 130.277C106.917 130.641 122.611 105.498 121.541 75.9824H19.6466C17.8776 103.312 33.4394 129.912 70.1781 130.277Z" fill="url(#paint8_linear_1049_91057)" fill-opacity="0.84"/>
<path d="M7.55503 79.8071C6.89414 91.4554 20.4974 100.192 27.3816 103.104L33.9905 117.248C3.25931 113.587 -5.24962 89.6527 -5.66268 78.1431C-6.76416 77.5884 -8.71928 74.5654 -7.72795 66.9108C-6.73662 59.2562 -2.63362 59.8386 -0.706032 61.0866C1.93751 57.7586 5.08005 59.9077 6.45689 61.4331C10.5874 58.105 12.5117 65.1081 12.0986 69.4068C16.7248 73.0677 10.9971 77.8657 7.55503 79.8071Z" fill="url(#paint9_linear_1049_91057)"/>
<path d="M105.468 163.184C109.088 172.493 118.03 177.704 125.44 174.822L112.329 141.109C104.919 143.991 101.847 153.874 105.468 163.184Z" fill="#FED13C"/>
<circle cx="56.0949" cy="93.1262" r="8.85862" fill="white"/>
<path d="M55.1572 87.5384C55.4793 86.6678 56.7107 86.6678 57.0329 87.5384L58.1287 90.4998C58.23 90.7735 58.4458 90.9893 58.7195 91.0906L61.6809 92.1865C62.5515 92.5086 62.5515 93.74 61.6809 94.0622L58.7195 95.158C58.4458 95.2593 58.23 95.4751 58.1287 95.7488L57.0329 98.7102C56.7107 99.5808 55.4793 99.5808 55.1572 98.7102L54.0613 95.7488C53.9601 95.4751 53.7442 95.2593 53.4705 95.158L50.5091 94.0622C49.6385 93.74 49.6385 92.5086 50.5091 92.1865L53.4705 91.0906C53.7442 90.9893 53.9601 90.7735 54.0613 90.4998L55.1572 87.5384Z" fill="#FED13C"/>
<circle cx="81.9328" cy="93.1262" r="8.85862" fill="white"/>
<path d="M80.995 87.5384C81.3172 86.6678 82.5486 86.6678 82.8708 87.5384L83.9666 90.4998C84.0679 90.7735 84.2837 90.9893 84.5574 91.0906L87.5188 92.1865C88.3894 92.5086 88.3894 93.74 87.5188 94.0622L84.5574 95.158C84.2837 95.2593 84.0679 95.4751 83.9666 95.7488L82.8708 98.7102C82.5486 99.5808 81.3172 99.5808 80.995 98.7102L79.8992 95.7488C79.7979 95.4751 79.5821 95.2593 79.3084 95.158L76.347 94.0622C75.4764 93.74 75.4764 92.5086 76.347 92.1865L79.3084 91.0906C79.5821 90.9893 79.7979 90.7735 79.8992 90.4998L80.995 87.5384Z" fill="#FED13C"/>
<path d="M77.9624 103.291C72.3496 106.767 64.328 104.667 61.0188 103.182C60.5306 104.082 61.9472 116.496 69.7404 116.299C75.9749 116.141 77.8194 107.561 77.9624 103.291Z" fill="#161316"/>
<mask id="mask1_1049_91057" style="mask-type:alpha" maskUnits="userSpaceOnUse" x="60" y="103" width="18" height="14">
<path d="M77.9624 103.292C72.3496 106.768 64.328 104.667 61.0188 103.182C60.5306 104.082 61.9472 116.496 69.7404 116.299C75.9749 116.142 77.8194 107.562 77.9624 103.292Z" fill="#161316"/>
</mask>
<g mask="url(#mask1_1049_91057)">
<ellipse cx="68.8055" cy="114.894" rx="6.40887" ry="5.49332" transform="rotate(1.91728 68.8055 114.894)" fill="#D84D2E"/>
</g>
<path d="M126.011 124.54C132.049 114.782 115.558 112.644 106.558 112.794L113.197 100.341C147.887 103.658 142.496 123.812 135.465 133.475C136.277 135.469 133.5 141.161 129.751 144.031C126.752 146.326 123.536 144.507 122.303 143.31C118.59 143.679 117.302 140.4 117.122 138.715C111.432 137.743 114.36 131.792 116.535 128.938C116.512 123.439 122.842 123.715 126.011 124.54Z" fill="url(#paint10_linear_1049_91057)"/>
<path d="M33.9903 65.8462H47.7458L45.5739 75.9818H31.8184L33.9903 65.8462Z" fill="white"/>
<path d="M39.722 76.7056H31.9124C29.5323 90.7775 32.9041 102.358 34.8875 106.389H41.9534C37.1932 92.6098 38.4824 80.8587 39.722 76.7056Z" fill="url(#paint11_linear_1049_91057)"/>
<path d="M40.463 77.4302C39.6188 81.6534 38.8799 93.3576 42.6791 106.389" stroke="url(#paint12_linear_1049_91057)" stroke-linecap="round"/>
<path d="M86.1167 131.01C71.9489 133.81 58.6288 131.619 52.0898 130.28C56.6913 134.662 66.8631 144.035 70.738 144.035C74.6129 144.035 83.2105 135.361 86.1167 131.01Z" fill="#FED54C"/>
</g>
<defs>
<linearGradient id="paint0_linear_1049_91057" x1="140.016" y1="56.1284" x2="125.735" y2="76.4699" gradientUnits="userSpaceOnUse">
<stop offset="0.480769" stop-color="#FDCC09"/>
<stop offset="1" stop-color="#FD6F0D"/>
</linearGradient>
<linearGradient id="paint1_linear_1049_91057" x1="143.719" y1="78.1727" x2="119.081" y2="82.1743" gradientUnits="userSpaceOnUse">
<stop offset="0.480769" stop-color="#FDCC09"/>
<stop offset="1" stop-color="#FD6F0D"/>
</linearGradient>
<linearGradient id="paint2_linear_1049_91057" x1="130.519" y1="47.1673" x2="110.276" y2="61.7707" gradientUnits="userSpaceOnUse">
<stop offset="0.480769" stop-color="#FDCC09"/>
<stop offset="1" stop-color="#FD6F0D"/>
</linearGradient>
<linearGradient id="paint3_linear_1049_91057" x1="108.562" y1="43.6913" x2="104.877" y2="68.3788" gradientUnits="userSpaceOnUse">
<stop offset="0.480769" stop-color="#FDCC09"/>
<stop offset="1" stop-color="#FD6F0D"/>
</linearGradient>
<linearGradient id="paint4_linear_1049_91057" x1="73.4551" y1="110.422" x2="46.8355" y2="186.697" gradientUnits="userSpaceOnUse">
<stop stop-color="#FD6F0E" stop-opacity="0.45"/>
<stop offset="0.812779" stop-color="#FED13C"/>
</linearGradient>
<linearGradient id="paint5_linear_1049_91057" x1="70.864" y1="139.092" x2="106.809" y2="164.768" gradientUnits="userSpaceOnUse">
<stop stop-color="#FD6F0E" stop-opacity="0.57"/>
<stop offset="0.519231" stop-color="#FED13C"/>
</linearGradient>
<linearGradient id="paint6_linear_1049_91057" x1="20.4096" y1="82.1044" x2="122.597" y2="82.1044" gradientUnits="userSpaceOnUse">
<stop stop-color="#FED13C"/>
<stop offset="0.186876" stop-color="#FFEDB3" stop-opacity="0.5"/>
<stop offset="1" stop-color="#FED13C"/>
</linearGradient>
<linearGradient id="paint7_linear_1049_91057" x1="15.8906" y1="86.5916" x2="126.019" y2="88.0576" gradientUnits="userSpaceOnUse">
<stop stop-color="#FE8940"/>
<stop offset="0.153416" stop-color="#FFF7EA"/>
<stop offset="0.792456" stop-color="#FFD67C"/>
<stop offset="1" stop-color="#FE8940"/>
</linearGradient>
<linearGradient id="paint8_linear_1049_91057" x1="70.5054" y1="58.0915" x2="70.9091" y2="136.471" gradientUnits="userSpaceOnUse">
<stop stop-color="#FD5C02" stop-opacity="0.81"/>
<stop offset="0.576923" stop-color="#FED13C"/>
</linearGradient>
<linearGradient id="paint9_linear_1049_91057" x1="-23.8403" y1="42.1676" x2="29.914" y2="113.255" gradientUnits="userSpaceOnUse">
<stop stop-color="#FEB532"/>
<stop offset="1" stop-color="#FED54C"/>
</linearGradient>
<linearGradient id="paint10_linear_1049_91057" x1="120.492" y1="98.9409" x2="158.024" y2="146.089" gradientUnits="userSpaceOnUse">
<stop stop-color="#FED240"/>
<stop offset="1" stop-color="#FEA42C"/>
</linearGradient>
<linearGradient id="paint11_linear_1049_91057" x1="36.5236" y1="76.7056" x2="38.1123" y2="107.857" gradientUnits="userSpaceOnUse">
<stop offset="0.296611" stop-color="white"/>
<stop offset="1" stop-color="#F7A931" stop-opacity="0.31"/>
</linearGradient>
<linearGradient id="paint12_linear_1049_91057" x1="41.2312" y1="77.4302" x2="41.2312" y2="106.389" gradientUnits="userSpaceOnUse">
<stop stop-color="white"/>
<stop offset="1" stop-color="#F7AA32" stop-opacity="0.4"/>
</linearGradient>
</defs>
</svg>
