<svg width="153" height="153" viewBox="0 0 153 153" fill="none" xmlns="http://www.w3.org/2000/svg">
<mask id="mask0_1049_58182" style="mask-type:alpha" maskUnits="userSpaceOnUse" x="0" y="0" width="153" height="153">
<circle cx="76.5" cy="76.5" r="76.5" fill="white"/>
</mask>
<g mask="url(#mask0_1049_58182)">
<path d="M135.225 63.8504C128.552 66.8027 109.068 69.7549 77.7128 69.7549C46.3573 69.7549 24.5515 68.1652 21.6763 63.8504C21.6763 57.7047 47.095 52.7227 78.4505 52.7227C109.806 52.7227 135.225 57.7047 135.225 63.8504Z" fill="url(#paint0_linear_1049_58182)"/>
<path d="M78.4751 44.0049C93.5239 44.0049 107.128 44.8849 116.951 46.3008C121.87 47.0098 125.798 47.8474 128.475 48.7598C129.82 49.2181 130.79 49.6759 131.404 50.1084C132.052 50.5647 132.089 50.8342 132.089 50.877C132.089 50.9191 132.053 51.1895 131.404 51.6465C130.79 52.079 129.82 52.5368 128.475 52.9951C125.798 53.9075 121.87 54.7451 116.951 55.4541C107.128 56.87 93.5239 57.749 78.4751 57.749C63.4265 57.749 49.8232 56.87 40.0005 55.4541C35.0815 54.7451 31.1532 53.9075 28.4761 52.9951C27.1312 52.5368 26.1614 52.079 25.5474 51.6465C24.8986 51.1895 24.8618 50.9191 24.8618 50.877C24.8619 50.8342 24.8996 50.5647 25.5474 50.1084C26.1614 49.6759 27.1311 49.2181 28.4761 48.7598C31.1532 47.8474 35.0815 47.0098 40.0005 46.3008C49.8232 44.8849 63.4265 44.0049 78.4751 44.0049Z" stroke="url(#paint1_linear_1049_58182)" stroke-width="2"/>
<path d="M107.852 40.7047C106.491 41.3578 106.08 44.982 106.044 46.7124C105.36 56.5868 109.067 57.1227 116.906 57.4265C123.176 57.6696 127.761 52.5538 129.27 49.9655L123.767 47.6935C125.942 46.2878 127.114 39.9483 127.429 36.9543C126.745 36.3788 122.155 38.8085 119.945 40.0952L119.513 38.608C118.422 38.4089 115.549 41.2645 114.248 42.7172C114.718 40.7748 113.292 37.9421 112.521 36.7685C110.853 37.2528 109.225 39.8757 108.62 41.1266L107.852 40.7047Z" fill="#657B5A"/>
<path d="M108.434 53.8442L110.898 51.7227M112.466 50.3726L117.169 46.3225L118.513 45.1653L124.56 39.958M110.898 51.7227C114.257 50.9367 121.424 49.7679 123.216 51.3805M110.898 51.7227L112.466 50.3726M111.794 39.958C111.186 41.2736 111.265 43.6274 111.57 45.8777C111.804 47.6117 112.173 49.2842 112.466 50.3726M111.57 45.8777C110.674 45.8455 108.792 45.1541 108.434 42.6457M117.169 46.3225C119.035 45.3209 122.992 43.4072 123.888 43.7655M118.513 45.1653C118.289 44.4374 117.617 41.5258 118.513 40.4059" stroke="#44573B" stroke-linecap="round"/>
<rect x="39.6978" y="66.835" width="54.2009" height="54.2009" rx="27" transform="rotate(32.8029 39.6978 66.835)" fill="#304E69"/>
<rect x="72.1504" y="121.959" width="54.2009" height="54.2009" rx="27" transform="rotate(-11.9528 72.1504 121.959)" fill="#304E69"/>
<path d="M101.536 34.8208C102.681 35.1569 103.48 36.0995 103.692 37.1951C104.213 37.0601 104.775 37.0573 105.329 37.2199C106.963 37.6994 107.899 39.4121 107.419 41.0456C107.318 41.3902 107.159 41.7018 106.961 41.9775C107.279 42.6401 107.365 43.4166 107.142 44.1773C107.117 44.2625 107.087 44.3454 107.056 44.4267C107.469 44.3722 107.9 44.3998 108.326 44.5248C109.959 45.0044 110.894 46.7168 110.415 48.3502C110.046 49.6046 108.951 50.4435 107.722 50.5499C107.718 50.8241 107.679 51.1025 107.598 51.3786C107.259 52.5336 106.302 53.3353 105.194 53.5388C105.321 54.1588 105.303 54.8175 105.112 55.467C104.673 56.9616 103.44 58.005 102.008 58.2755C102.382 59.1143 102.472 60.0857 102.193 61.0361C101.569 63.1593 99.3418 64.3751 97.2184 63.7517C96.9113 63.6615 96.6235 63.537 96.3572 63.3848C95.6605 65.3908 93.5041 66.5166 91.4444 65.9119C89.7913 65.4264 88.6883 63.9695 88.5749 62.3458C87.632 62.9497 86.443 63.1581 85.2843 62.8179C83.161 62.1943 81.9451 59.968 82.5684 57.8446C82.8793 56.7858 83.5883 55.9518 84.4848 55.4597C83.9627 54.7179 83.7692 53.7547 84.0446 52.8166C84.1561 52.4371 84.3363 52.0969 84.5644 51.8018C83.5771 50.7988 83.1479 49.3049 83.5725 47.8588C84.0785 46.1357 85.6405 45.0089 87.3461 44.979C86.2846 43.9773 85.8094 42.4311 86.2485 40.9347C86.8719 38.8112 89.0986 37.5946 91.2221 38.2179C91.6535 38.3446 92.0468 38.5386 92.3955 38.7833C92.297 38.3052 92.3095 37.797 92.4566 37.296C92.9361 35.6626 94.6489 34.7267 96.2823 35.206C96.9721 35.4085 97.5354 35.833 97.9223 36.3765C98.5822 35.0808 100.09 34.3963 101.536 34.8208Z" fill="#382742"/>
<g filter="url(#filter0_d_1049_58182)">
<path d="M120.259 48.0358C121.187 48.7857 121.564 49.9627 121.339 51.0558C121.872 51.1314 122.393 51.3447 122.842 51.7076C124.165 52.7777 124.371 54.7187 123.301 56.0427C123.075 56.3215 122.809 56.5472 122.52 56.7254C122.56 57.4596 122.341 58.2101 121.843 58.827C121.787 58.8963 121.727 58.9617 121.666 59.0249C122.069 59.1332 122.456 59.3242 122.801 59.6031C124.125 60.6732 124.332 62.614 123.262 63.938C122.44 64.955 121.105 65.3091 119.93 64.9352C119.821 65.1867 119.678 65.4283 119.497 65.6518C118.741 66.5881 117.549 66.9622 116.448 66.7245C116.327 67.3454 116.057 67.9472 115.632 68.4735C114.653 69.685 113.113 70.1745 111.686 69.8739C111.71 70.792 111.42 71.7227 110.798 72.493C109.406 74.2142 106.884 74.4818 105.163 73.0907C104.914 72.8895 104.696 72.664 104.508 72.4213C103.095 74.0054 100.671 74.2168 99.0019 72.8678C97.6619 71.7848 97.2025 70.0154 97.7212 68.4727C96.6189 68.6679 95.4415 68.4042 94.5024 67.6454C92.7812 66.2543 92.5131 63.7311 93.9039 62.0099C94.5975 61.1517 95.5726 60.654 96.5892 60.5439C96.3919 59.6583 96.5832 58.6948 97.1978 57.9343C97.4466 57.6265 97.7438 57.3812 98.0681 57.1962C97.542 55.8912 97.7195 54.348 98.6666 53.176C99.7953 51.7794 101.669 51.3395 103.255 51.9664C102.66 50.6338 102.816 49.023 103.796 47.81C105.187 46.0888 107.71 45.8206 109.431 47.2115C109.781 47.4938 110.07 47.8234 110.297 48.1828C110.39 47.7038 110.598 47.2394 110.926 46.8336C111.996 45.5098 113.937 45.3044 115.261 46.3744C115.82 46.8262 116.177 47.4335 116.326 48.0837C117.432 47.1411 119.087 47.0888 120.259 48.0358Z" fill="#382742"/>
</g>
<g filter="url(#filter1_d_1049_58182)">
<path d="M142.987 126.348C142.409 127.391 141.315 127.964 140.199 127.931C140.217 128.469 140.097 129.019 139.817 129.524C138.991 131.012 137.114 131.549 135.626 130.724C135.312 130.549 135.044 130.326 134.818 130.071C134.102 130.237 133.324 130.152 132.631 129.767C132.553 129.724 132.479 129.677 132.407 129.629C132.37 130.044 132.248 130.458 132.033 130.846C131.208 132.335 129.331 132.873 127.842 132.047C126.699 131.413 126.12 130.16 126.285 128.938C126.019 128.874 125.755 128.775 125.504 128.635C124.451 128.052 123.879 126.942 123.923 125.816C123.29 125.804 122.651 125.643 122.059 125.314C120.697 124.559 119.949 123.127 119.999 121.67C119.099 121.852 118.132 121.727 117.266 121.247C115.33 120.173 114.631 117.733 115.705 115.798C115.86 115.518 116.045 115.265 116.252 115.038C114.447 113.919 113.821 111.568 114.862 109.691C115.697 108.184 117.361 107.428 118.97 107.672C118.587 106.62 118.644 105.414 119.23 104.358C120.303 102.423 122.743 101.725 124.678 102.798C125.643 103.333 126.301 104.207 126.584 105.19C127.423 104.843 128.405 104.865 129.26 105.339C129.606 105.531 129.899 105.782 130.137 106.069C131.332 105.325 132.883 105.234 134.201 105.965C135.772 106.836 136.528 108.606 136.184 110.276C137.394 109.46 139.008 109.335 140.372 110.092C142.307 111.165 143.005 113.605 141.932 115.54C141.714 115.933 141.439 116.274 141.125 116.561C141.612 116.569 142.105 116.694 142.562 116.947C144.051 117.773 144.588 119.648 143.762 121.137C143.414 121.766 142.877 122.223 142.262 122.481C143.381 123.409 143.718 125.03 142.987 126.348Z" fill="#382742"/>
</g>
<g filter="url(#filter2_d_1049_58182)">
<path d="M58.3366 67.5923C58.2802 68.7837 57.5535 69.7826 56.5393 70.2477C56.7933 70.7221 56.929 71.2681 56.9018 71.8447C56.8214 73.5452 55.3772 74.8581 53.6767 74.7777C53.3182 74.7608 52.9784 74.6797 52.6638 74.5519C52.095 75.0176 51.361 75.286 50.5689 75.2487C50.4803 75.2445 50.3926 75.234 50.3062 75.2226C50.4568 75.6112 50.5316 76.0366 50.5108 76.4797C50.4304 78.1803 48.9861 79.4941 47.2856 79.4137C45.9798 79.3519 44.9058 78.4851 44.5124 77.3166C44.245 77.3778 43.9652 77.4051 43.6779 77.3915C42.4753 77.3347 41.4695 76.5944 41.0101 75.5653C40.4378 75.8347 39.7931 75.9731 39.1172 75.9412C37.5609 75.8674 36.256 74.9142 35.6553 73.5856C34.9285 74.1475 34.0068 74.4648 33.0173 74.418C30.8067 74.3135 29.0997 72.437 29.2041 70.2265C29.2192 69.9067 29.2724 69.5977 29.3573 69.303C27.2438 69.0993 25.6406 67.2697 25.7419 65.1257C25.8233 63.4047 26.9789 61.9891 28.5297 61.4954C27.7202 60.7216 27.2362 59.6156 27.2932 58.4092C27.3978 56.1986 29.2751 54.4916 31.4857 54.5961C32.5878 54.6482 33.5649 55.1404 34.2546 55.8952C34.8523 55.2122 35.7431 54.7973 36.7201 54.8435C37.1156 54.8622 37.489 54.9568 37.8299 55.1091C38.5715 53.913 39.9209 53.1431 41.4263 53.2143C43.2204 53.2991 44.6838 54.551 45.1156 56.2014C45.8384 54.9334 47.2295 54.1065 48.7874 54.1801C50.9978 54.2849 52.7049 56.1613 52.6005 58.3717C52.5794 58.8199 52.4851 59.2476 52.3302 59.6436C52.7712 59.4355 53.268 59.3281 53.7889 59.3527C55.4893 59.4334 56.8023 60.8775 56.722 62.5778C56.688 63.2959 56.4095 63.9437 55.9727 64.4479C57.3871 64.7835 58.4077 66.0873 58.3366 67.5923Z" fill="#382742"/>
</g>
<path d="M155.025 108.409L154.095 108.775L154.102 108.795L154.111 108.814L155.025 108.409ZM118.669 186.334L118.894 187.308L118.906 187.305L118.919 187.302L118.669 186.334ZM78.4863 191.81L78.4444 192.809L78.4863 192.81L78.5282 192.809L78.4863 191.81ZM38.3037 186.334L38.0537 187.302L38.0663 187.305L38.079 187.308L38.3037 186.334ZM1.94727 108.409L2.86144 108.814L2.87022 108.795L2.87814 108.775L1.94727 108.409ZM24.4307 51.123L25.0331 50.3249L23.9812 49.531L23.4998 50.7577L24.4307 51.123ZM78.4863 57.8623L78.5055 56.8625L78.4863 56.8621L78.4672 56.8625L78.4863 57.8623ZM132.542 51.123L133.473 50.7577L132.991 49.531L131.94 50.3249L132.542 51.123ZM155.025 108.409L154.111 108.814C158.597 118.931 162.164 134.892 158.373 149.885C154.606 164.782 143.54 178.88 118.419 185.366L118.669 186.334L118.919 187.302C144.696 180.647 156.353 166.031 160.312 150.376C164.246 134.818 160.543 118.387 155.94 108.004L155.025 108.409ZM118.669 186.334L118.444 185.36C111.784 186.896 94.4361 190.14 78.4444 190.81L78.4863 191.81L78.5282 192.809C94.6825 192.131 112.159 188.861 118.894 187.308L118.669 186.334ZM78.4863 191.81L78.5282 190.81C62.5366 190.14 45.1887 186.896 38.5284 185.36L38.3037 186.334L38.079 187.308C44.8134 188.861 62.2901 192.131 78.4444 192.809L78.4863 191.81ZM38.3037 186.334L38.5537 185.366C13.433 178.88 2.36687 164.782 -1.40015 149.885C-5.19175 134.892 -1.62403 118.931 2.86144 108.814L1.94727 108.409L1.03309 108.004C-3.57033 118.387 -7.27344 134.818 -3.33911 150.376C0.619797 166.031 12.2764 180.647 38.0537 187.302L38.3037 186.334ZM1.94727 108.409L2.87814 108.775L25.3615 51.4884L24.4307 51.123L23.4998 50.7577L1.01639 108.044L1.94727 108.409ZM24.4307 51.123L23.8282 51.9212C26.0236 53.5782 29.6771 54.81 33.9911 55.7514C38.3461 56.7019 43.5221 57.3857 48.8813 57.8685C59.6019 58.8343 71.1443 59.003 78.5055 58.8621L78.4863 57.8623L78.4672 56.8625C71.1584 57.0024 59.6913 56.8343 49.0607 55.8766C43.7443 55.3976 38.6593 54.7231 34.4176 53.7974C30.1349 52.8628 26.856 51.7007 25.0331 50.3249L24.4307 51.123ZM78.4863 57.8623L78.4672 58.8621C85.8284 59.003 97.3707 58.8343 108.091 57.8685C113.451 57.3857 118.627 56.7019 122.982 55.7514C127.296 54.81 130.949 53.5782 133.144 51.9212L132.542 51.123L131.94 50.3249C130.117 51.7007 126.838 52.8628 122.555 53.7974C118.313 54.7231 113.228 55.3976 107.912 55.8766C97.2814 56.8343 85.8142 57.0024 78.5055 56.8625L78.4863 57.8623ZM132.542 51.123L131.611 51.4884L154.095 108.775L155.025 108.409L155.956 108.044L133.473 50.7577L132.542 51.123Z" fill="url(#paint2_linear_1049_58182)"/>
<path d="M152.758 111.339C161.628 129.798 167.339 172.86 117.665 184.694C111.129 186.085 94.1363 189.017 78.4504 189.624V189.625C62.7642 189.018 45.7707 186.085 39.2346 184.694C-10.4388 172.86 -4.7284 128.894 4.14185 110.435L21.9446 63.8213C29.7877 69.283 64.1322 69.2616 78.4495 69.0088C92.7663 69.2617 126.854 68.4023 134.698 62.9404L152.758 111.339Z" fill="url(#paint3_linear_1049_58182)" fill-opacity="0.84"/>
<path d="M43.2811 126.104C66.3259 127.26 66.8294 168.391 64.2006 188.812L61.7679 189.33L55.8149 144.895L61.5369 193.936C46.1942 200.431 26.5466 197.438 18.6406 195.13C16.5657 190.437 21.7912 183.498 24.6633 180.615C21.2672 161.963 20.2363 124.948 43.2811 126.104Z" fill="url(#paint4_linear_1049_58182)"/>
<path d="M76.8822 128.203C99.9269 129.359 100.43 170.49 97.8016 190.911L94.6027 191.448L95.1379 196.035C79.7952 202.531 60.1476 199.538 52.2417 197.229C50.1668 192.537 55.3923 185.597 58.2643 182.714C54.8683 164.062 53.8374 127.047 76.8822 128.203Z" fill="url(#paint5_linear_1049_58182)"/>
<path d="M41.3075 141.485C20.5154 143.136 10.1662 126.771 7.59063 118.382L1.26827 130.346C10.5404 152.13 33.4632 158.126 43.7655 158.401C46.2943 162.031 53.0143 159.638 56.0582 157.988C60.2728 157.988 64.8386 154.275 62.7313 143.548C61.0455 134.967 54.0682 136.947 50.7903 139.01C51.844 137.222 53.2489 133.482 50.4391 132.822C47.6294 132.161 43.1806 138.322 41.3075 141.485Z" fill="url(#paint6_linear_1049_58182)"/>
<path d="M50.3024 58.8301L35.6432 56.9807L10.1785 119.184L30.7942 121.042L50.3024 58.8301Z" fill="url(#paint7_linear_1049_58182)"/>
<path d="M91.8065 97.0647C78.0852 99.0394 73.0306 95.0075 72.2184 92.7447C69.9737 98.3633 68.2415 109.937 79.2702 111.281C90.299 112.626 92.2231 102.364 91.8065 97.0647Z" fill="white"/>
<mask id="mask1_1049_58182" style="mask-type:alpha" maskUnits="userSpaceOnUse" x="70" y="91" width="23" height="21">
<path d="M91.8065 97.0647C78.0852 99.0394 73.0306 95.0075 72.2184 92.7447C69.9737 98.3633 68.2415 109.937 79.2702 111.281C90.299 112.626 92.2231 102.364 91.8065 97.0647Z" fill="white" stroke="black"/>
</mask>
<g mask="url(#mask1_1049_58182)">
<circle cx="76.2252" cy="100.466" r="9.18279" transform="rotate(6.02614 76.2252 100.466)" fill="#346A99"/>
</g>
<path d="M40.3118 95.5863C53.9059 98.3025 59.1718 94.5507 60.1055 92.3353C62.0421 98.0674 63.1439 109.718 52.0585 110.462C40.973 111.206 39.6085 100.855 40.3118 95.5863Z" fill="white"/>
<mask id="mask2_1049_58182" style="mask-type:alpha" maskUnits="userSpaceOnUse" x="39" y="90" width="23" height="21">
<path d="M40.3118 95.5863C53.9059 98.3025 59.1718 94.5507 60.1055 92.3353C62.0421 98.0674 63.1439 109.718 52.0585 110.462C40.973 111.206 39.6085 100.855 40.3118 95.5863Z" fill="white" stroke="black"/>
</mask>
<g mask="url(#mask2_1049_58182)">
<circle cx="9.18279" cy="9.18279" r="9.18279" transform="matrix(-0.998705 0.0508786 0.0508786 0.998705 53.9463 89.4023)" fill="#346A99"/>
</g>
<path d="M59.5454 116.779C61.203 116.519 65.0068 116.288 66.9616 117.435" stroke="#346A99" stroke-width="5" stroke-linecap="round"/>
<circle cx="32.9557" cy="110.51" r="7.83897" fill="#346A99"/>
<circle cx="100.595" cy="110.957" r="7.83897" fill="#346A99"/>
<g filter="url(#filter3_d_1049_58182)">
<path d="M78.1937 141.485C103.474 143.136 116.057 126.771 119.189 118.382L126.876 130.346C115.603 152.13 87.7314 158.126 75.205 158.401C72.1303 162.031 63.9597 159.638 60.2587 157.988C55.1343 157.988 49.5828 154.275 52.145 143.548C54.1948 134.967 62.6782 136.947 66.6637 139.01C65.3826 137.222 63.6745 133.482 67.0908 132.822C70.507 132.161 75.9162 138.322 78.1937 141.485Z" fill="url(#paint8_linear_1049_58182)"/>
</g>
</g>
<defs>
<filter id="filter0_d_1049_58182" x="81.0137" y="45.6895" width="42.9722" height="36.292" filterUnits="userSpaceOnUse" color-interpolation-filters="sRGB">
<feFlood flood-opacity="0" result="BackgroundImageFix"/>
<feColorMatrix in="SourceAlpha" type="matrix" values="0 0 0 0 0 0 0 0 0 0 0 0 0 0 0 0 0 0 127 0" result="hardAlpha"/>
<feOffset dx="-8" dy="4"/>
<feGaussianBlur stdDeviation="2"/>
<feComposite in2="hardAlpha" operator="out"/>
<feColorMatrix type="matrix" values="0 0 0 0 0 0 0 0 0 0 0 0 0 0 0 0 0 0 0.25 0"/>
<feBlend mode="normal" in2="BackgroundImageFix" result="effect1_dropShadow_1049_58182"/>
<feBlend mode="normal" in="SourceGraphic" in2="effect1_dropShadow_1049_58182" result="shape"/>
</filter>
<filter id="filter1_d_1049_58182" x="102.358" y="102.294" width="41.791" height="38.1406" filterUnits="userSpaceOnUse" color-interpolation-filters="sRGB">
<feFlood flood-opacity="0" result="BackgroundImageFix"/>
<feColorMatrix in="SourceAlpha" type="matrix" values="0 0 0 0 0 0 0 0 0 0 0 0 0 0 0 0 0 0 127 0" result="hardAlpha"/>
<feOffset dx="-8" dy="4"/>
<feGaussianBlur stdDeviation="2"/>
<feComposite in2="hardAlpha" operator="out"/>
<feColorMatrix type="matrix" values="0 0 0 0 0 0 0 0 0 0 0 0 0 0 0 0 0 0 0.25 0"/>
<feBlend mode="normal" in2="BackgroundImageFix" result="effect1_dropShadow_1049_58182"/>
<feBlend mode="normal" in="SourceGraphic" in2="effect1_dropShadow_1049_58182" result="shape"/>
</filter>
<filter id="filter2_d_1049_58182" x="13.7373" y="53.21" width="44.603" height="34.207" filterUnits="userSpaceOnUse" color-interpolation-filters="sRGB">
<feFlood flood-opacity="0" result="BackgroundImageFix"/>
<feColorMatrix in="SourceAlpha" type="matrix" values="0 0 0 0 0 0 0 0 0 0 0 0 0 0 0 0 0 0 127 0" result="hardAlpha"/>
<feOffset dx="-8" dy="4"/>
<feGaussianBlur stdDeviation="2"/>
<feComposite in2="hardAlpha" operator="out"/>
<feColorMatrix type="matrix" values="0 0 0 0 0 0 0 0 0 0 0 0 0 0 0 0 0 0 0.25 0"/>
<feBlend mode="normal" in2="BackgroundImageFix" result="effect1_dropShadow_1049_58182"/>
<feBlend mode="normal" in="SourceGraphic" in2="effect1_dropShadow_1049_58182" result="shape"/>
</filter>
<filter id="filter3_d_1049_58182" x="46.4995" y="118.382" width="83.377" height="51.9199" filterUnits="userSpaceOnUse" color-interpolation-filters="sRGB">
<feFlood flood-opacity="0" result="BackgroundImageFix"/>
<feColorMatrix in="SourceAlpha" type="matrix" values="0 0 0 0 0 0 0 0 0 0 0 0 0 0 0 0 0 0 127 0" result="hardAlpha"/>
<feOffset dx="-1" dy="6"/>
<feGaussianBlur stdDeviation="2"/>
<feComposite in2="hardAlpha" operator="out"/>
<feColorMatrix type="matrix" values="0 0 0 0 0 0 0 0 0 0 0 0 0 0 0 0 0 0 0.25 0"/>
<feBlend mode="normal" in2="BackgroundImageFix" result="effect1_dropShadow_1049_58182"/>
<feBlend mode="normal" in="SourceGraphic" in2="effect1_dropShadow_1049_58182" result="shape"/>
</filter>
<linearGradient id="paint0_linear_1049_58182" x1="78.5972" y1="52.7227" x2="78.5972" y2="69.7549" gradientUnits="userSpaceOnUse">
<stop stop-color="#7090AA"/>
<stop offset="1" stop-color="#B9D2E0"/>
</linearGradient>
<linearGradient id="paint1_linear_1049_58182" x1="78.4755" y1="43.0049" x2="78.4755" y2="58.7494" gradientUnits="userSpaceOnUse">
<stop stop-color="#A6CFE6"/>
<stop offset="0.423077" stop-color="#215F94"/>
</linearGradient>
<linearGradient id="paint2_linear_1049_58182" x1="78.4862" y1="51.123" x2="78.4862" y2="191.81" gradientUnits="userSpaceOnUse">
<stop stop-color="#ABD6ED"/>
<stop offset="0.423077" stop-color="#215F94"/>
</linearGradient>
<linearGradient id="paint3_linear_1049_58182" x1="1.84193" y1="112.267" x2="160.922" y2="112.267" gradientUnits="userSpaceOnUse">
<stop stop-color="#68859F"/>
<stop offset="0.322048" stop-color="#C2DFED"/>
<stop offset="0.821852" stop-color="#7192AC"/>
</linearGradient>
<linearGradient id="paint4_linear_1049_58182" x1="30.9404" y1="160.793" x2="64.3103" y2="160.457" gradientUnits="userSpaceOnUse">
<stop stop-color="#BAD3E1"/>
<stop offset="1" stop-color="#789AB5"/>
</linearGradient>
<linearGradient id="paint5_linear_1049_58182" x1="101.267" y1="185.037" x2="44.3781" y2="184.365" gradientUnits="userSpaceOnUse">
<stop stop-color="#88B2CD"/>
<stop offset="0.591346" stop-color="#BBD4E2"/>
</linearGradient>
<linearGradient id="paint6_linear_1049_58182" x1="6.62778" y1="125.368" x2="58.1046" y2="138.7" gradientUnits="userSpaceOnUse">
<stop stop-color="#829BB0"/>
<stop offset="1" stop-color="#C7E1F4"/>
</linearGradient>
<linearGradient id="paint7_linear_1049_58182" x1="28.9877" y1="58.3506" x2="31.5479" y2="121.01" gradientUnits="userSpaceOnUse">
<stop offset="0.383513" stop-color="white"/>
<stop offset="1" stop-color="#7EA4BF" stop-opacity="0"/>
</linearGradient>
<linearGradient id="paint8_linear_1049_58182" x1="122.89" y1="124.673" x2="72.7896" y2="155.339" gradientUnits="userSpaceOnUse">
<stop stop-color="#6E89A4"/>
<stop offset="0.447328" stop-color="#7C9FB9"/>
<stop offset="1" stop-color="#BAD3E1"/>
</linearGradient>
</defs>
</svg>
