<svg width="153" height="153" viewBox="0 0 153 153" fill="none" xmlns="http://www.w3.org/2000/svg">
<mask id="mask0_1049_91176" style="mask-type:alpha" maskUnits="userSpaceOnUse" x="0" y="0" width="153" height="153">
<circle cx="76.5" cy="76.5" r="76.5" fill="white"/>
</mask>
<g mask="url(#mask0_1049_91176)">
<circle cx="26.6694" cy="30.9828" r="36.6694" fill="#FDAF7A"/>
<ellipse cx="26.0777" cy="31.2781" rx="33.1207" ry="32.825" fill="#FBF9DE"/>
<path d="M27.7852 29.0886L32.0634 2.40948C32.9191 1.54886 36.3417 1.01631 43.1869 4.99133C48.6631 8.17135 49.7469 11.48 49.6043 12.7369L27.7852 29.0886Z" fill="#FDAF7A"/>
<path d="M28.485 30.5535L50.7721 14.8702C51.9994 14.8853 54.8082 16.995 56.7879 24.7639C58.3716 30.979 56.7512 34.0961 55.743 34.8777L28.485 30.5535Z" fill="#FDAF7A"/>
<path d="M28.4388 32.6541L55.4048 36.5932C56.2855 37.4481 56.8741 40.9113 52.9691 47.9132C49.8451 53.5147 46.5252 54.6635 45.2557 54.5377L28.4388 32.6541Z" fill="#FDAF7A"/>
<path d="M27.138 33.1131L42.5178 55.6107C42.4861 56.8377 40.3386 59.6176 32.5436 61.4919C26.3076 62.9913 23.2128 61.3288 22.4449 60.3101L27.138 33.1131Z" fill="#FDAF7A"/>
<path d="M25.8073 29.2733L30.5209 2.43182C29.9852 1.32752 26.8811 -0.317126 19.008 1.19582C12.7095 2.40618 10.5778 5.19859 10.2993 6.4435L25.8073 29.2733Z" fill="#FDAF7A"/>
<path d="M24.5602 30.0743L8.64047 7.95547C7.47597 7.56768 4.13106 8.64082 -0.284391 15.3325C-3.81675 20.6859 -3.30682 24.1618 -2.61031 25.2305L24.5602 30.0743Z" fill="#FDAF7A"/>
<path d="M23.9167 32.0741L-2.85173 26.9623C-3.96387 27.4815 -5.65446 30.5607 -4.25867 38.4555C-3.14205 44.7713 -0.381624 46.9442 0.859007 47.2413L23.9167 32.0741Z" fill="#FDAF7A"/>
<path d="M24.9941 32.9347L3.09296 49.1526C2.72098 50.3222 3.83933 53.6523 10.5902 57.9767C15.991 61.4362 19.4596 60.8792 20.5188 60.1683L24.9941 32.9347Z" fill="#FDAF7A"/>
<rect x="84.4766" y="127.354" width="41.2163" height="41.2163" rx="14" transform="rotate(30.0208 84.4766 127.354)" fill="#CA2327"/>
<rect x="34.5957" y="121.241" width="41.2163" height="41.2163" rx="14" transform="rotate(-17.8415 34.5957 121.241)" fill="#CA2327"/>
<rect x="86.041" y="79.9805" width="41.2163" height="41.2163" rx="14" transform="rotate(24.8617 86.041 79.9805)" fill="#CA2327"/>
<path d="M117.338 9.06624C117.846 7.05288 120.707 7.05288 121.216 9.06624L122.729 15.0554C123.035 16.2639 124.359 16.9017 125.494 16.387L131.12 13.836C133.012 12.9784 134.795 15.2149 133.538 16.868L129.799 21.7855C129.045 22.7777 129.372 24.2108 130.482 24.7774L135.984 27.5856C137.834 28.5296 137.198 31.3185 135.121 31.3664L128.946 31.5092C127.7 31.538 126.783 32.6872 127.032 33.9085L128.267 39.9612C128.683 41.996 126.105 43.2371 124.773 41.6439L120.811 36.9044C120.012 35.9482 118.542 35.9482 117.742 36.9044L113.78 41.6439C112.448 43.2371 109.871 41.996 110.286 39.9612L111.521 33.9085C111.77 32.6872 110.854 31.538 109.608 31.5092L103.432 31.3664C101.356 31.3185 100.719 28.5296 102.569 27.5856L108.071 24.7774C109.181 24.2108 109.509 22.7777 108.754 21.7855L105.015 16.868C103.758 15.215 105.542 12.9784 107.433 13.836L113.059 16.387C114.194 16.9017 115.519 16.2639 115.824 15.0554L117.338 9.06624Z" fill="#FEE29E"/>
<path d="M161.618 -51L106.789 44.6463" stroke="url(#paint0_linear_1049_91176)" stroke-width="5" stroke-linecap="round"/>
<path d="M153.02 -40.5076L93.8306 -33.8929C92.0304 -33.6917 91.7202 -31.9327 93.3561 -31.1547C99.9283 -28.0292 111.672 -21.9514 115.764 -14.7378C116.079 -14.1829 116.607 -13.7665 117.231 -13.6371C136.538 -9.63544 147.876 0.177525 155.28 5.84727C155.637 6.12084 156.073 6.25941 156.523 6.2579C164.928 6.22971 174.245 8.80542 180.724 11.1683C182.562 11.8385 184.411 9.76222 183.439 8.06466L156.885 -38.3217C156.721 -38.608 156.489 -38.8493 156.209 -39.0241L154.302 -40.216C153.92 -40.455 153.468 -40.5577 153.02 -40.5076Z" fill="url(#paint1_linear_1049_91176)"/>
<ellipse cx="98.8681" cy="23.3242" rx="11.2704" ry="10.9658" fill="url(#paint2_linear_1049_91176)"/>
<ellipse cx="108.311" cy="41.2955" rx="12.7935" ry="12.4888" fill="url(#paint3_linear_1049_91176)"/>
<circle cx="80.6786" cy="36.0938" r="18.9258" transform="rotate(16.5827 80.6786 36.0938)" fill="url(#paint4_linear_1049_91176)"/>
<path d="M90.1406 -14.874C93.6078 -6.73953 97.6804 12.159 86.2337 22.6772" stroke="#CE2327" stroke-width="5" stroke-linecap="round"/>
<path d="M123.543 170.753H122.259C114.62 177.035 96.5651 188.899 82.4209 188.42C64.8128 187.823 36.9721 175.822 35.8525 170.753H34.293L23.0234 146.994H135.423L123.543 170.753ZM137.25 118.361L136.019 146.993H21.5V118.36L137.25 118.361ZM119.287 73.2793H118.974L125.286 94.6016H125.321L137.555 118.36H21.8047L33.4111 94.6016H34.0732L39.167 73.2793H39.4648L35.207 45.8643H123.543L119.287 73.2793Z" fill="url(#paint5_linear_1049_91176)" fill-opacity="0.92"/>
<path d="M156.635 4.36321L155.722 -37.8439M117.754 -15.6651L152.981 -39.3057" stroke="#FFE1CF" stroke-width="2" stroke-linecap="round"/>
<ellipse cx="72.5774" cy="22.98" rx="6.39673" ry="1.82764" transform="rotate(-34.6306 72.5774 22.98)" fill="#FFE8E8"/>
<ellipse cx="66.3069" cy="29.2202" rx="0.609212" ry="1.52303" transform="rotate(27.8062 66.3069 29.2202)" fill="#FFE8E8"/>
<path d="M131.465 31.2432L132.709 32.0816L134.285 29.7432H131.465V31.2432ZM128.17 96.6338H129.67V96.1983L129.437 95.8305L128.17 96.6338ZM138.308 137.439L139.803 137.561V137.561L138.308 137.439ZM79.4062 188.394L79.4477 186.894L79.4063 186.893L79.3648 186.894L79.4062 188.394ZM20.5059 137.439L19.0108 137.561H19.0108L20.5059 137.439ZM30.6445 96.6338L29.3778 95.8305L29.1445 96.1983V96.6338H30.6445ZM27.3496 31.2432V29.7432H24.5295L26.1058 32.0816L27.3496 31.2432ZM131.465 31.2432L130.221 30.4047C126.266 36.2726 121.398 46.5903 119.521 58.6321C117.642 70.6944 118.752 84.583 126.903 97.4371L128.17 96.6338L129.437 95.8305C121.773 83.7449 120.686 70.6409 122.486 59.0941C124.288 47.5268 128.976 37.619 132.709 32.0816L131.465 31.2432ZM128.17 96.6338H126.67C126.67 96.8902 126.726 97.1118 126.762 97.2365C126.804 97.3817 126.857 97.5267 126.911 97.6605C127.018 97.9278 127.163 98.2427 127.328 98.5828C127.653 99.2542 128.131 100.187 128.66 101.253C129.738 103.426 131.148 106.386 132.501 109.964C135.211 117.129 137.675 126.717 136.813 137.318L138.308 137.439L139.803 137.561C140.714 126.365 138.109 116.311 135.307 108.902C133.904 105.194 132.447 102.134 131.347 99.9191C130.787 98.7912 130.348 97.9379 130.029 97.2767C129.871 96.9505 129.763 96.7124 129.696 96.5459C129.663 96.4627 129.649 96.4205 129.646 96.409C129.637 96.3771 129.67 96.4724 129.67 96.6338H128.17ZM138.308 137.439L136.813 137.318C135.093 158.445 115.962 187.903 79.4477 186.894L79.4062 188.394L79.3648 189.893C117.85 190.957 137.987 159.871 139.803 137.561L138.308 137.439ZM79.4062 188.394L79.3648 186.894C42.8514 187.903 23.7205 158.444 22.0009 137.318L20.5059 137.439L19.0108 137.561C20.8267 159.871 40.9629 190.956 79.4477 189.893L79.4062 188.394ZM20.5059 137.439L22.0009 137.318C21.1381 126.717 23.6025 117.129 26.3129 109.964C27.6663 106.386 29.0759 103.426 30.1544 101.253C30.6836 100.187 31.1617 99.2542 31.4865 98.5829C31.651 98.2427 31.7968 97.9279 31.9038 97.6605C31.9573 97.5268 32.0105 97.3818 32.0522 97.2365C32.088 97.1118 32.1445 96.8903 32.1445 96.6338H30.6445H29.1445C29.1445 96.4724 29.1778 96.377 29.1686 96.409C29.1653 96.4205 29.1519 96.4627 29.1186 96.5459C29.0519 96.7124 28.9435 96.9505 28.7858 97.2766C28.4659 97.9379 28.0272 98.7912 27.4673 99.9191C26.3677 102.134 24.9099 105.193 23.5069 108.902C20.7044 116.311 18.0995 126.365 19.0108 137.561L20.5059 137.439ZM30.6445 96.6338L31.9113 97.4371C40.0625 84.5831 41.1726 70.6945 39.2928 58.6322C37.4163 46.5904 32.5488 36.2726 28.5934 30.4047L27.3496 31.2432L26.1058 32.0816C29.8384 37.619 34.526 47.5268 36.3286 59.0941C38.1281 70.6409 37.0416 83.745 29.3778 95.8305L30.6445 96.6338ZM27.3496 31.2432V32.7432H131.465V31.2432V29.7432H27.3496V31.2432Z" fill="#FFF7E3" fill-opacity="0.86"/>
<path d="M47.3909 34.2891H33.9883C50.437 57.7437 43.7357 89.7274 34.9021 98.2563H49.2186C65.3627 78.1523 55.4122 48.504 47.3909 34.2891Z" fill="url(#paint6_linear_1049_91176)"/>
<path d="M54.7012 61.7041C52.9606 61.8782 49.0616 62.8529 47.3906 65.3594" stroke="#FE853C" stroke-width="3" stroke-linecap="round"/>
<path d="M90.0352 61.0957C91.7758 61.2698 95.6747 62.2445 97.3457 64.751" stroke="#FF8237" stroke-width="3" stroke-linecap="round"/>
<circle cx="90.1559" cy="82.0455" r="11.8121" fill="white"/>
<path d="M89.5681 73.1605C89.8674 72.2391 91.1708 72.2391 91.4702 73.1604L93.0019 77.8744C93.1357 78.2864 93.5197 78.5654 93.9529 78.5654H98.9095C99.8782 78.5654 100.281 79.805 99.4973 80.3744L95.4873 83.2878C95.1368 83.5425 94.9902 83.9938 95.124 84.4059L96.6557 89.1198C96.9551 90.0411 95.9006 90.8073 95.1169 90.2379L91.1069 87.3245C90.7564 87.0698 90.2818 87.0698 89.9313 87.3245L85.9214 90.2379C85.1377 90.8073 84.0832 90.0411 84.3826 89.1198L85.9142 84.4059C86.0481 83.9938 85.9014 83.5425 85.551 83.2878L81.541 80.3744C80.7573 79.805 81.1601 78.5654 82.1288 78.5654H87.0854C87.5186 78.5654 87.9025 78.2864 88.0364 77.8744L89.5681 73.1605Z" fill="#FE843A"/>
<path d="M79.4367 94.6016H67.666C66.5614 94.6016 65.731 95.4916 65.9039 96.5826C66.5402 100.597 68.6199 109.223 74.0808 109.223C78.9204 109.223 80.8429 101.794 81.3629 96.6646C81.477 95.5393 80.5678 94.6016 79.4367 94.6016Z" fill="white"/>
<mask id="mask1_1049_91176" style="mask-type:alpha" maskUnits="userSpaceOnUse" x="65" y="94" width="17" height="16">
<path d="M79.4367 94.6016H67.666C66.5614 94.6016 65.731 95.4916 65.9039 96.5826C66.5402 100.597 68.6199 109.223 74.0808 109.223C78.9204 109.223 80.8429 101.794 81.3629 96.6646C81.477 95.5393 80.5678 94.6016 79.4367 94.6016Z" fill="white"/>
</mask>
<g mask="url(#mask1_1049_91176)">
<circle cx="73.585" cy="110.441" r="10.9658" fill="#EB5656"/>
</g>
<path d="M48.6083 98.2568H35.5103C27.9967 109.73 17.8431 138.891 37.3379 163.747H49.094C34.1828 141.144 41.323 112.53 48.6083 98.2568Z" fill="url(#paint7_linear_1049_91176)"/>
<path d="M47.373 81.6751C49.8555 81.5848 56.546 81.7086 60.915 82.6117C62.472 82.9335 62.3707 84.5559 60.8753 85.096C56.1153 86.8152 49.8041 89.2774 47.373 90.9935" stroke="#FF8339" stroke-width="3" stroke-linecap="round"/>
</g>
<defs>
<linearGradient id="paint0_linear_1049_91176" x1="162.837" y1="-52.8276" x2="106.789" y2="44.2018" gradientUnits="userSpaceOnUse">
<stop offset="0.0144231" stop-color="#C78B51"/>
<stop offset="0.1678" stop-color="#332A21"/>
<stop offset="0.479801" stop-color="#342A21"/>
<stop offset="1" stop-color="#E49546"/>
</linearGradient>
<linearGradient id="paint1_linear_1049_91176" x1="131.461" y1="-36.9878" x2="182.026" y2="17.2321" gradientUnits="userSpaceOnUse">
<stop offset="0.0416667" stop-color="#FDAF7A"/>
<stop offset="1" stop-color="#FF7524"/>
</linearGradient>
<linearGradient id="paint2_linear_1049_91176" x1="102.219" y1="14.7952" x2="94.6036" y2="31.5486" gradientUnits="userSpaceOnUse">
<stop offset="0.0914383" stop-color="#CE42BD"/>
<stop offset="0.363356" stop-color="#8F3384"/>
<stop offset="1" stop-color="#290F26"/>
</linearGradient>
<linearGradient id="paint3_linear_1049_91176" x1="113.489" y1="29.4159" x2="95.5176" y2="56.2212" gradientUnits="userSpaceOnUse">
<stop offset="0.284989" stop-color="#48D9D0"/>
<stop offset="0.942073" stop-color="#26736E"/>
</linearGradient>
<linearGradient id="paint4_linear_1049_91176" x1="70.0521" y1="34.4474" x2="83.6964" y2="59.0106" gradientUnits="userSpaceOnUse">
<stop offset="0.31437" stop-color="#CE2327"/>
<stop offset="1" stop-color="#681214"/>
</linearGradient>
<linearGradient id="paint5_linear_1049_91176" x1="73.1335" y1="45.864" x2="73.1335" y2="188.434" gradientUnits="userSpaceOnUse">
<stop stop-color="#FDEDC2"/>
<stop offset="0.168269" stop-color="#FEDA81"/>
<stop offset="0.365385" stop-color="#FEB889"/>
<stop offset="0.576923" stop-color="#FE8E42"/>
<stop offset="0.778846" stop-color="#FEB889"/>
<stop offset="1" stop-color="#FEDA81"/>
</linearGradient>
<linearGradient id="paint6_linear_1049_91176" x1="45.9255" y1="34.2891" x2="45.9255" y2="98.2563" gradientUnits="userSpaceOnUse">
<stop offset="0.457143" stop-color="white"/>
<stop offset="1" stop-color="#FEB585" stop-opacity="0"/>
</linearGradient>
<linearGradient id="paint7_linear_1049_91176" x1="37.5812" y1="98.2568" x2="37.5812" y2="163.747" gradientUnits="userSpaceOnUse">
<stop stop-color="#FEB585" stop-opacity="0.43"/>
<stop offset="0.562791" stop-color="white"/>
</linearGradient>
</defs>
</svg>
