<svg width="153" height="153" viewBox="0 0 153 153" fill="none" xmlns="http://www.w3.org/2000/svg">
<mask id="mask0_1049_58828" style="mask-type:alpha" maskUnits="userSpaceOnUse" x="0" y="0" width="153" height="153">
<circle cx="76.5" cy="76.5" r="76.5" fill="white"/>
</mask>
<g mask="url(#mask0_1049_58828)">
<path d="M18.6624 70.2969H135.894L79.3279 140.023V159.562L36.2855 197.49L50.0775 206.684H13.2988L73.0642 157.646L73.9992 140.023L18.6624 70.2969Z" fill="url(#paint0_linear_1049_58828)"/>
<path d="M143.94 60.3369H11L73.064 138.108V156.115L11 207.069L53.2555 207.905L35.5191 196.341L79.5769 159.563V138.762L143.94 60.3369Z" fill="url(#paint1_linear_1049_58828)" fill-opacity="0.56" stroke="url(#paint2_linear_1049_58828)" stroke-width="5"/>
<path d="M140.973 12.6396C144.455 14.6498 145.648 19.1019 143.638 22.5834C142.21 25.0568 139.549 26.3727 136.88 26.2075C136.475 26.1825 136.077 26.3617 135.867 26.7084L74.9038 127.38L131.831 24.7643C132.048 24.3731 131.973 23.8896 131.69 23.5428C129.837 21.268 129.476 17.9962 131.03 15.3041C133.04 11.8225 137.492 10.6296 140.973 12.6396Z" fill="#EBC097"/>
<g filter="url(#filter0_i_1049_58828)">
<circle cx="116.663" cy="55.3558" r="18.0062" fill="#96A12A"/>
</g>
<g filter="url(#filter1_i_1049_58828)">
<circle cx="125.858" cy="57.6545" r="6.51289" fill="#B7211B"/>
</g>
<ellipse cx="107.642" cy="45.0825" rx="1.91556" ry="3.448" transform="rotate(37.5753 107.642 45.0825)" fill="#C8D18A"/>
<path d="M43.9478 63.7842H31.3052L59.2723 114.355H64.6358L43.9478 63.7842Z" fill="url(#paint3_linear_1049_58828)"/>
<path d="M48.9285 64.167H45.4805L63.4867 107.459L66.1685 108.608L48.9285 64.167Z" fill="url(#paint4_linear_1049_58828)"/>
<path d="M50.0776 83.3242L62.3372 89.454" stroke="#822C09" stroke-width="3"/>
<path d="M83.0254 82.9404L70.7658 89.0702" stroke="#822C09" stroke-width="3"/>
<path d="M53.1663 101.542C58.2571 102.907 63.5379 99.706 64.9613 94.3939L46.5259 89.4541C45.1025 94.7662 48.0755 100.178 53.1663 101.542Z" fill="white"/>
<mask id="path-13-inside-1_1049_58828" fill="white">
<path d="M57.0978 99.1587C59.6063 99.8308 62.4091 97.5048 63.358 93.9634L54.2739 91.5293C53.325 95.0707 54.5893 98.4865 57.0978 99.1587Z"/>
</mask>
<path d="M57.0978 99.1587C59.6063 99.8308 62.4091 97.5048 63.358 93.9634L54.2739 91.5293C53.325 95.0707 54.5893 98.4865 57.0978 99.1587Z" fill="#7E2907"/>
<path d="M63.358 93.9634L71.0854 96.0339L73.156 88.3065L65.4286 86.236L63.358 93.9634ZM54.2739 91.5293L56.3445 83.8019L48.6171 81.7313L46.5465 89.4587L54.2739 91.5293ZM63.358 93.9634L55.6306 91.8928C55.5342 92.2528 55.4189 92.2214 55.7038 91.9849C55.9706 91.7636 57.2503 90.9173 59.1684 91.4312L57.0978 99.1587L55.0273 106.886C59.4538 108.072 63.3892 106.399 65.9217 104.297C68.4724 102.181 70.233 99.2154 71.0854 96.0339L63.358 93.9634ZM57.0978 99.1587L59.1684 91.4312C61.0864 91.9452 61.7716 93.3179 61.8919 93.643C62.0204 93.9902 61.9049 93.9598 62.0013 93.5998L54.2739 91.5293L46.5465 89.4587C45.694 92.6402 45.7362 96.0884 46.8868 99.1969C48.0291 102.283 50.6007 105.7 55.0273 106.886L57.0978 99.1587ZM63.358 93.9634L65.4286 86.236L56.3445 83.8019L54.2739 91.5293L52.2034 99.2567L61.2875 101.691L63.358 93.9634Z" fill="#7E2907" mask="url(#path-13-inside-1_1049_58828)"/>
<path d="M80.2624 101.542C75.1716 102.907 69.8908 99.706 68.4674 94.3939L86.9028 89.4541C88.3262 94.7662 85.3532 100.178 80.2624 101.542Z" fill="white"/>
<mask id="path-16-inside-2_1049_58828" fill="white">
<path d="M76.3304 99.1587C73.8219 99.8308 71.0191 97.5048 70.0702 93.9634L79.1543 91.5293C80.1032 95.0707 78.8389 98.4865 76.3304 99.1587Z"/>
</mask>
<path d="M76.3304 99.1587C73.8219 99.8308 71.0191 97.5048 70.0702 93.9634L79.1543 91.5293C80.1032 95.0707 78.8389 98.4865 76.3304 99.1587Z" fill="#7E2907"/>
<path d="M70.0702 93.9634L62.3428 96.0339L60.2722 88.3065L67.9996 86.236L70.0702 93.9634ZM79.1543 91.5293L77.0837 83.8019L84.8112 81.7313L86.8817 89.4587L79.1543 91.5293ZM70.0702 93.9634L77.7976 91.8928C77.894 92.2528 78.0093 92.2214 77.7244 91.9849C77.4577 91.7636 76.1779 90.9173 74.2599 91.4312L76.3304 99.1587L78.401 106.886C73.9744 108.072 70.039 106.399 67.5065 104.297C64.9559 102.181 63.1952 99.2154 62.3428 96.0339L70.0702 93.9634ZM76.3304 99.1587L74.2599 91.4312C72.3418 91.9452 71.6566 93.3179 71.5363 93.643C71.4078 93.9902 71.5233 93.9598 71.4269 93.5998L79.1543 91.5293L86.8817 89.4587C87.7342 92.6402 87.692 96.0884 86.5415 99.1969C85.3991 102.283 82.8275 105.7 78.401 106.886L76.3304 99.1587ZM70.0702 93.9634L67.9996 86.236L77.0837 83.8019L79.1543 91.5293L81.2248 99.2567L72.1407 101.691L70.0702 93.9634Z" fill="#7E2907" mask="url(#path-16-inside-2_1049_58828)"/>
<path d="M62.3374 106.693L65.7854 103.245L69.2334 106.693" stroke="#822C09" stroke-width="3"/>
<path d="M114.19 96.7715L79.6187 138.763V155.812" stroke="white" stroke-width="2" stroke-linecap="round"/>
<path d="M115.769 94.94L120.366 89.1934" stroke="white" stroke-width="2" stroke-linecap="round"/>
<path d="M32.5016 126.786L21.2736 142.531" stroke="white" stroke-width="2" stroke-linecap="round"/>
<path d="M20.0764 144.027L17.2634 148.155" stroke="white" stroke-width="2" stroke-linecap="round"/>
<path d="M69.2333 126.616L56.2075 109.376L60.0386 109.759L71.9151 128.148L69.2333 126.616Z" fill="white"/>
<path d="M71.9154 129.297L69.6167 127.765L73.8309 132.362L71.9154 129.297Z" fill="white"/>
</g>
<defs>
<filter id="filter0_i_1049_58828" x="98.6572" y="37.3496" width="36.0127" height="40.0127" filterUnits="userSpaceOnUse" color-interpolation-filters="sRGB">
<feFlood flood-opacity="0" result="BackgroundImageFix"/>
<feBlend mode="normal" in="SourceGraphic" in2="BackgroundImageFix" result="shape"/>
<feColorMatrix in="SourceAlpha" type="matrix" values="0 0 0 0 0 0 0 0 0 0 0 0 0 0 0 0 0 0 127 0" result="hardAlpha"/>
<feOffset dy="4"/>
<feGaussianBlur stdDeviation="2"/>
<feComposite in2="hardAlpha" operator="arithmetic" k2="-1" k3="1"/>
<feColorMatrix type="matrix" values="0 0 0 0 0 0 0 0 0 0 0 0 0 0 0 0 0 0 0.25 0"/>
<feBlend mode="normal" in2="shape" result="effect1_innerShadow_1049_58828"/>
</filter>
<filter id="filter1_i_1049_58828" x="119.345" y="51.1416" width="13.0259" height="15.0254" filterUnits="userSpaceOnUse" color-interpolation-filters="sRGB">
<feFlood flood-opacity="0" result="BackgroundImageFix"/>
<feBlend mode="normal" in="SourceGraphic" in2="BackgroundImageFix" result="shape"/>
<feColorMatrix in="SourceAlpha" type="matrix" values="0 0 0 0 0 0 0 0 0 0 0 0 0 0 0 0 0 0 127 0" result="hardAlpha"/>
<feOffset dy="2"/>
<feGaussianBlur stdDeviation="2"/>
<feComposite in2="hardAlpha" operator="arithmetic" k2="-1" k3="1"/>
<feColorMatrix type="matrix" values="0 0 0 0 0 0 0 0 0 0 0 0 0 0 0 0 0 0 0.25 0"/>
<feBlend mode="normal" in2="shape" result="effect1_innerShadow_1049_58828"/>
</filter>
<linearGradient id="paint0_linear_1049_58828" x1="74.5966" y1="70.2969" x2="45.4802" y2="200.938" gradientUnits="userSpaceOnUse">
<stop stop-color="#FF9E78"/>
<stop offset="0.357956" stop-color="#F8692F"/>
<stop offset="1" stop-color="#E04607"/>
</linearGradient>
<linearGradient id="paint1_linear_1049_58828" x1="127.083" y1="68.7654" x2="26.7076" y2="69.9147" gradientUnits="userSpaceOnUse">
<stop offset="0.0240385" stop-color="#FF672C"/>
<stop offset="0.334712" stop-color="#FA7744"/>
<stop offset="0.757252" stop-color="#FFCAB6"/>
<stop offset="1" stop-color="#FA7744"/>
</linearGradient>
<linearGradient id="paint2_linear_1049_58828" x1="40.4996" y1="60.3369" x2="66.9342" y2="207.452" gradientUnits="userSpaceOnUse">
<stop stop-color="#FFEFE6"/>
<stop offset="1" stop-color="#E04708"/>
</linearGradient>
<linearGradient id="paint3_linear_1049_58828" x1="47.9705" y1="63.7842" x2="47.9705" y2="114.355" gradientUnits="userSpaceOnUse">
<stop offset="0.316288" stop-color="white"/>
<stop offset="1" stop-color="#FB976F" stop-opacity="0"/>
</linearGradient>
<linearGradient id="paint4_linear_1049_58828" x1="55.8245" y1="64.167" x2="55.8245" y2="108.608" gradientUnits="userSpaceOnUse">
<stop stop-color="white"/>
<stop offset="1" stop-color="#FC9C77" stop-opacity="0"/>
</linearGradient>
</defs>
</svg>
