<svg width="153" height="153" viewBox="0 0 153 153" fill="none" xmlns="http://www.w3.org/2000/svg">
<mask id="mask0_1049_91736" style="mask-type:alpha" maskUnits="userSpaceOnUse" x="0" y="0" width="153" height="153">
<circle cx="76.5" cy="76.5" r="76.5" fill="white"/>
</mask>
<g mask="url(#mask0_1049_91736)">
<path d="M145.079 37.3645C145.079 33.6079 115.81 30.5625 79.7047 30.5625C43.5993 30.5625 14.3301 33.6079 14.3301 37.3645" stroke="url(#paint0_linear_1049_91736)" stroke-width="3"/>
<circle cx="144.976" cy="37.1316" r="23.0876" fill="#3C9857"/>
<circle cx="145.172" cy="37.3271" r="22.1093" fill="url(#paint1_linear_1049_91736)"/>
<path d="M148.998 34.2999C148.378 34.8994 147.761 35.4403 147.391 35.6252C146.677 35.9823 145.76 35.6625 145.627 34.8752C145.374 33.3674 146.067 30.6792 146.24 30.3331C146.47 29.8729 146.931 29.4128 148.771 30.3331C149.017 30.4562 149.233 30.5896 149.421 30.7285C150.621 31.6159 150.071 33.2625 148.998 34.2999Z" fill="#B6D756"/>
<path d="M148.59 37.7336C148.247 37.6746 147.954 37.6061 147.792 37.5298C147.343 37.3185 147.147 36.7482 147.48 36.3808C148.119 35.6773 149.698 34.9822 149.933 34.9337C150.246 34.869 150.648 34.9167 150.906 36.169C151.155 37.3751 149.803 37.9426 148.59 37.7336Z" fill="#B6D756"/>
<path d="M146.636 40.5092C146.351 39.9746 146.121 39.4806 146.061 39.1884C145.924 38.5205 146.39 37.8353 147.069 37.8999C148.369 38.0238 150.433 39.1899 150.68 39.4091C151.008 39.7005 151.286 40.1818 150.12 41.4966C150.049 41.5771 149.977 41.6518 149.905 41.7211C148.831 42.7574 147.339 41.8258 146.636 40.5092Z" fill="#B6D756"/>
<path d="M141.892 40.2587C142.336 39.519 142.792 38.8367 143.102 38.5624C143.699 38.0327 144.667 38.1044 144.999 38.8306C145.634 40.2212 145.66 42.9974 145.582 43.3764C145.479 43.8805 145.154 44.4441 143.138 44.0315C142.868 43.9763 142.626 43.9032 142.408 43.8176C141.019 43.2711 141.124 41.5385 141.892 40.2587Z" fill="#B6D756"/>
<path d="M141.397 36.8363C141.743 36.8046 142.044 36.795 142.22 36.8267C142.708 36.9146 143.046 37.4147 142.819 37.8558C142.384 38.7006 141.039 39.7806 140.824 39.8884C140.539 40.0319 140.138 40.0897 139.565 38.947C139.012 37.8464 140.171 36.9485 141.397 36.8363Z" fill="#B6D756"/>
<path d="M142.565 33.6505C142.979 34.093 143.329 34.5107 143.463 34.7774C143.768 35.3872 143.494 36.1698 142.822 36.2829C141.535 36.4996 139.239 35.9075 138.944 35.7597C138.551 35.5633 138.158 35.1703 138.944 33.5986C138.992 33.5023 139.042 33.4115 139.094 33.326C139.863 32.047 141.545 32.5608 142.565 33.6505Z" fill="#B6D756"/>
<path d="M142.97 33.2975C143.154 33.6069 143.328 33.8648 143.462 33.9933C143.831 34.3493 144.455 34.3286 144.687 33.8708C145.132 32.9941 145.221 31.2113 145.182 30.9657C145.129 30.6392 144.934 30.2686 143.628 30.4808C142.37 30.6852 142.32 32.2012 142.97 33.2975Z" fill="#B6D756"/>
<rect x="41.1504" y="73.5186" width="36.8065" height="36.8065" rx="18.4032" transform="rotate(37.8197 41.1504 73.5186)" fill="#338F58"/>
<rect x="51.8418" y="117.495" width="36.8065" height="36.8065" rx="18.4032" transform="rotate(-18.2024 51.8418 117.495)" fill="#338F58"/>
<rect x="81.9746" y="68.5908" width="36.8065" height="36.8065" rx="18.4032" transform="rotate(-5.73968 81.9746 68.5908)" fill="#338F58"/>
<path d="M2.14577 156.281C15.8418 154.521 18.7756 148.846 18.7756 148.846L18.2862 96.1673L3.75032 140.482C-1.24403 139.365 -11.8677 138.629 -14.4075 144.618C-16.9412 150.592 -6.2962 150.942 1.30652 151.192L1.36217 151.194C-2.94396 155.331 0.395552 155.991 2.14577 156.281Z" fill="url(#paint2_linear_1049_91736)"/>
<ellipse cx="119.149" cy="90.3455" rx="20.3484" ry="23.0876" fill="#3C9857"/>
<ellipse cx="119.322" cy="90.541" rx="19.4862" ry="22.1093" fill="url(#paint3_linear_1049_91736)"/>
<path d="M122.749 87.453C122.184 88.0768 121.614 88.6488 121.277 88.84C120.657 89.1917 119.859 88.877 119.736 88.175C119.475 86.6857 120.107 83.9006 120.263 83.548C120.465 83.0878 120.871 82.6276 122.493 83.548C122.754 83.6961 122.976 83.8591 123.164 84.0288C124.175 84.9438 123.665 86.4422 122.749 87.453Z" fill="#B6D756"/>
<path d="M122.338 90.9492C122.034 90.8901 121.774 90.8213 121.631 90.7446C121.234 90.5327 121.06 89.9607 121.364 89.5859C121.931 88.8857 123.311 88.1969 123.517 88.1485C123.793 88.0839 124.147 88.1316 124.375 89.3839C124.592 90.5746 123.401 91.1565 122.338 90.9492Z" fill="#B6D756"/>
<path d="M120.496 93.4708C120.3 93.0363 120.15 92.6486 120.106 92.4033C119.984 91.7277 120.397 91.0323 121.055 91.1222C122.203 91.2789 123.963 92.4085 124.177 92.6239C124.467 92.9154 124.712 93.3966 123.684 94.7114C122.74 95.9192 121.162 94.9459 120.496 93.4708Z" fill="#B6D756"/>
<path d="M116.404 93.5244C116.804 92.7657 117.218 92.0587 117.497 91.7782C118.016 91.2554 118.86 91.3256 119.14 91.9782C119.728 93.3441 119.753 96.2069 119.683 96.5922C119.592 97.0963 119.305 97.6599 117.528 97.2473C117.256 97.184 117.014 97.097 116.802 96.9947C115.597 96.4147 115.741 94.7844 116.404 93.5244Z" fill="#B6D756"/>
<path d="M115.992 90.0515C116.298 90.0195 116.565 90.0097 116.721 90.0416C117.152 90.1297 117.451 90.631 117.244 91.0809C116.856 91.9242 115.679 92.9959 115.491 93.1033C115.239 93.2467 114.886 93.3046 114.38 92.1619C113.899 91.0734 114.916 90.1637 115.992 90.0515Z" fill="#B6D756"/>
<path d="M117.197 87.0783C117.485 87.4394 117.718 87.7688 117.816 87.9922C118.087 88.6081 117.847 89.3995 117.2 89.507C116.057 89.6968 114.09 89.1201 113.833 88.9746C113.487 88.7781 113.141 88.3852 113.833 86.8135C114.474 85.3604 116.216 85.845 117.197 87.0783Z" fill="#B6D756"/>
<path d="M117.387 86.5187C117.547 86.8253 117.699 87.0805 117.816 87.2082C118.14 87.5622 118.687 87.5417 118.888 87.1046C119.287 86.2349 119.368 84.4279 119.332 84.1806C119.285 83.854 119.114 83.4834 117.963 83.6956C116.832 83.9042 116.808 85.4134 117.387 86.5187Z" fill="#B6D756"/>
<ellipse cx="34.4457" cy="122.433" rx="15.8649" ry="18.0005" transform="rotate(180 34.4457 122.433)" fill="#3C9857"/>
<ellipse cx="34.3113" cy="122.28" rx="15.1926" ry="17.2378" transform="rotate(180 34.3113 122.28)" fill="url(#paint4_linear_1049_91736)"/>
<path d="M31.9553 124.347C32.2833 124.004 32.588 123.719 32.7876 123.606C33.2709 123.332 33.8926 123.577 33.9885 124.125C34.1919 125.286 33.6993 127.457 33.5781 127.732C33.42 128.091 33.1038 128.45 31.8389 127.732C31.7854 127.702 31.7341 127.671 31.6848 127.639C30.5387 126.899 31.0131 125.334 31.9553 124.347Z" fill="#B6D756"/>
<path d="M31.9606 121.961C32.1974 122.008 32.4 122.061 32.5119 122.121C32.8213 122.286 32.9568 122.732 32.72 123.024C32.2774 123.57 31.2018 124.107 31.0408 124.145C30.8257 124.195 30.5498 124.158 30.3722 123.182C30.2033 122.254 31.1312 121.8 31.9606 121.961Z" fill="#B6D756"/>
<path d="M33.3971 119.996C33.55 120.335 33.667 120.637 33.7015 120.828C33.7965 121.355 33.4747 121.897 32.9616 121.827C32.0667 121.705 30.6945 120.824 30.5276 120.656C30.3017 120.429 30.1108 120.054 30.9119 119.029C31.6479 118.087 32.8784 118.846 33.3971 119.996Z" fill="#B6D756"/>
<path d="M36.3554 120.381C36.122 120.798 35.8985 121.151 35.7349 121.316C35.3297 121.723 34.6721 121.668 34.4533 121.16C33.9952 120.095 33.9759 117.863 34.0301 117.562C34.1009 117.169 34.3245 116.73 35.71 117.052C35.758 117.063 35.8048 117.075 35.8503 117.088C37.1406 117.455 37.0511 119.138 36.3554 120.381Z" fill="#B6D756"/>
<path d="M36.9089 122.661C36.6698 122.686 36.4621 122.694 36.3405 122.669C36.004 122.6 35.7715 122.209 35.9328 121.859C36.2352 121.201 37.1526 120.366 37.2997 120.282C37.496 120.17 37.771 120.125 38.1652 121.016C38.5408 121.864 37.7475 122.574 36.9089 122.661Z" fill="#B6D756"/>
<path d="M35.9698 124.98C35.7456 124.698 35.5642 124.441 35.4875 124.267C35.2759 123.787 35.4632 123.17 35.9678 123.086C36.8591 122.938 38.3925 123.388 38.5925 123.501C38.8625 123.655 39.1325 123.961 38.5925 125.186C38.0933 126.319 36.7353 125.941 35.9698 124.98Z" fill="#B6D756"/>
<path d="M35.8217 125.415C35.6967 125.176 35.5779 124.977 35.4867 124.878C35.2339 124.602 34.8075 124.618 34.6511 124.958C34.3397 125.636 34.2772 127.045 34.3048 127.238C34.3413 127.493 34.4747 127.782 35.3722 127.616C36.2544 127.454 36.2727 126.277 35.8217 125.415Z" fill="#B6D756"/>
<ellipse cx="48.141" cy="116.563" rx="15.8649" ry="18.0005" transform="rotate(180 48.141 116.563)" fill="#3C9857"/>
<ellipse cx="48.0066" cy="116.411" rx="15.1926" ry="17.2378" transform="rotate(180 48.0066 116.411)" fill="url(#paint5_linear_1049_91736)"/>
<path d="M45.6506 118.479C45.9787 118.136 46.2833 117.851 46.4829 117.738C46.9662 117.464 47.5879 117.709 47.6838 118.257C47.8872 119.418 47.3946 121.589 47.2734 121.864C47.1153 122.223 46.7991 122.582 45.5342 121.864C45.4807 121.834 45.4294 121.803 45.3801 121.771C44.234 121.031 44.7084 119.465 45.6506 118.479Z" fill="#B6D756"/>
<path d="M45.6559 116.092C45.8927 116.138 46.0953 116.192 46.2072 116.252C46.5166 116.417 46.6521 116.863 46.4153 117.155C45.9727 117.701 44.8972 118.238 44.7361 118.276C44.521 118.326 44.2451 118.289 44.0675 117.313C43.8986 116.384 44.8266 115.931 45.6559 116.092Z" fill="#B6D756"/>
<path d="M47.0905 114.127C47.2433 114.466 47.3604 114.768 47.3949 114.959C47.4899 115.486 47.1681 116.028 46.655 115.958C45.7601 115.836 44.3878 114.955 44.2209 114.787C43.9951 114.56 43.8042 114.185 44.6053 113.16C45.3413 112.218 46.5717 112.977 47.0905 114.127Z" fill="#B6D756"/>
<path d="M50.0507 114.512C49.8173 114.929 49.5938 115.282 49.4302 115.446C49.025 115.854 48.3674 115.799 48.1486 115.29C47.6905 114.226 47.6712 111.994 47.7254 111.693C47.7962 111.3 48.0198 110.861 49.4053 111.182C49.4533 111.194 49.5001 111.206 49.5456 111.219C50.8359 111.586 50.7464 113.269 50.0507 114.512Z" fill="#B6D756"/>
<path d="M50.6042 116.792C50.3651 116.817 50.1574 116.825 50.0358 116.8C49.6994 116.731 49.4668 116.34 49.6281 115.989C49.9305 115.332 50.8479 114.496 50.995 114.413C51.1913 114.301 51.4663 114.256 51.8606 115.147C52.2361 115.995 51.4428 116.705 50.6042 116.792Z" fill="#B6D756"/>
<path d="M49.6631 119.111C49.439 118.829 49.2576 118.572 49.1808 118.398C48.9692 117.918 49.1566 117.301 49.6611 117.217C50.5525 117.069 52.0859 117.519 52.2859 117.632C52.5559 117.785 52.8259 118.092 52.2859 119.317C51.7866 120.45 50.4286 120.072 49.6631 119.111Z" fill="#B6D756"/>
<path d="M49.5171 119.547C49.392 119.308 49.2732 119.109 49.1821 119.009C48.9292 118.733 48.5028 118.749 48.3464 119.09C48.035 119.768 47.9725 121.177 48.0001 121.37C48.0366 121.625 48.1701 121.913 49.0675 121.748C49.9497 121.585 49.968 120.409 49.5171 119.547Z" fill="#B6D756"/>
<path d="M14.3301 37.1123L16.0172 151.082L47.8702 155.693C68.9955 158.751 90.4511 158.751 111.576 155.693L143.429 151.082L145.079 37.5034" stroke="url(#paint6_linear_1049_91736)" stroke-width="3"/>
<path d="M17.3535 54.7471L79.831 54.7473L142.308 54.7476L140.154 148.283L109.699 153.266C89.5836 155.433 69.1007 155.419 48.984 153.266L18.7245 148.283L17.3535 54.7471Z" fill="url(#paint7_linear_1049_91736)" fill-opacity="0.7"/>
<ellipse cx="79.831" cy="55.755" rx="62.4775" ry="8.06161" fill="url(#paint8_linear_1049_91736)"/>
<path d="M125.812 177.92C107.87 176.328 101.219 149.065 100.043 134.861C100.002 134.367 100.153 133.887 100.458 133.497L111.447 119.431C112.433 118.169 114.429 118.52 114.925 120.043L127.237 157.855C127.551 158.82 128.535 159.392 129.54 159.254C134.942 158.507 143.671 158.673 145.822 164.083C147.787 169.022 138.405 171.047 130.762 171.669C128.999 171.812 128.41 174.125 128.357 175.892C128.32 177.108 127.226 177.706 126.251 177.901C126.107 177.93 125.958 177.933 125.812 177.92Z" fill="url(#paint9_linear_1049_91736)"/>
<g filter="url(#filter0_d_1049_91736)">
<path d="M27.7183 136.223C37.0579 111.482 58.1706 139.997 67.5596 157.347C75.7832 154.009 88.351 149.967 72.8337 160.501C57.3163 171.034 48.6308 167.326 46.2276 164.155L46.0771 175.397C29.7341 182.358 18.6542 179.556 15.1571 177.286C13.2899 164.792 22.1071 162.545 26.7491 162.983C23.3956 152.779 25.9979 140.891 27.7183 136.223Z" fill="url(#paint10_linear_1049_91736)"/>
</g>
<g filter="url(#filter1_d_1049_91736)">
<path d="M48.1601 136.48C57.4998 111.738 78.454 139.466 87.8429 156.816C105.648 156.62 109.952 153.098 93.2755 160.757C76.2318 168.584 69.0726 167.582 66.6695 164.411L66.5189 175.653C50.176 182.614 39.0961 179.813 35.599 177.542C33.7318 165.049 42.549 162.801 47.191 163.239C43.8375 153.035 46.4398 141.148 48.1601 136.48Z" fill="url(#paint11_linear_1049_91736)"/>
</g>
<path d="M125.558 14.9985C124.97 28.2981 112.901 35.5128 106.941 37.4577C99.8682 28.4205 102.106 17.0897 104.109 12.5539L104.77 13.2044C104.576 10.9319 106.547 7.72299 107.556 6.40258L108.438 7.26985C108.42 5.17085 111.738 0.973961 113.399 -0.862109L114.501 0.221983C115.186 -1.53304 119.564 -4.4852 121.667 -5.74191C123.422 -5.05687 124.045 -0.368134 124.137 1.8906L124.787 1.22929C125.666 1.74673 125.18 4.6517 124.827 6.03951L125.698 5.5949C127.291 7.85566 125.539 12.6663 124.463 14.789L125.558 14.9985Z" fill="#3C9857"/>
<path d="M107.715 35.6271L109.639 30.4187M115.463 14.649L117.226 9.87461L121.286 -1.12084M109.639 30.4187C110.667 27.1358 110.84 21.8351 108.225 18.7628M109.639 30.4187L111.629 26.6601M115.463 14.649C116.13 11.9253 115.034 5.25523 113.494 3.30896M115.463 14.649L111.629 26.6601M111.629 26.6601C113.24 24.7606 118.168 16.8781 121.304 17.049M117.226 9.87461C118.175 8.52216 120.905 6.41292 123.055 7.14081" stroke="#338F58" stroke-width="2" stroke-linecap="round"/>
<path d="M117.177 34.4741C104.521 38.6024 100.801 52.1617 100.523 58.4253C111.124 62.8198 121.442 57.6298 125.276 54.4855L124.472 54.0224C126.713 53.6008 129.278 50.8432 130.279 49.5171L129.208 48.8996C131.235 48.3545 134.39 44.0341 135.714 41.942L134.375 41.1702C135.882 40.0402 137.554 35.0318 138.202 32.6689C137.072 31.1614 132.388 31.8173 130.187 32.3337L130.65 31.53C129.916 30.8217 127.247 32.0677 126.005 32.7793L126.2 31.8211C123.595 30.8914 119.429 33.8684 117.672 35.4731L117.177 34.4741Z" fill="#3C9857"/>
<path d="M102.079 57.1897L106.582 53.9418M120.217 44.1079L124.344 41.1306L133.851 34.274M106.582 53.9418C109.47 52.0721 114.531 50.4858 118.191 52.1823M106.582 53.9418L109.671 51.0175M120.217 44.1079C122.662 42.7352 129.382 42.0054 131.67 42.9684M120.217 44.1079L109.671 51.0175M109.671 51.0175C111.069 48.9567 117.344 42.0983 116.34 39.1224M124.344 41.1306C125.393 39.8535 126.695 36.6592 125.417 34.7823" stroke="#338F58" stroke-width="2" stroke-linecap="round"/>
<path d="M145.079 37.3643C145.079 41.1209 115.81 44.1662 79.7047 44.1662C43.5993 44.1662 14.3301 41.1209 14.3301 37.3643" stroke="url(#paint12_linear_1049_91736)" stroke-width="3"/>
<path d="M23.6504 44.166L34.2313 45.7327V97.8261L23.6504 96.2594V44.166Z" fill="white"/>
<path d="M23.6504 98.834L34.2313 100.462V109.919L23.6504 108.29V98.834Z" fill="white"/>
<path d="M48.1861 85.6236C48.0242 88.212 43.7838 90.0533 38.7149 89.7362C33.6461 89.4192 29.6682 87.0639 29.8301 84.4756" stroke="#3C9857" stroke-width="3" stroke-linecap="round"/>
<path d="M78.6489 87.5279C78.4871 90.1163 74.2467 91.9576 69.1778 91.6405C64.109 91.3235 60.1311 88.9682 60.293 86.3799" stroke="#3C9857" stroke-width="3" stroke-linecap="round"/>
<path d="M60.488 102.076C60.3261 104.664 57.4846 106.593 54.1413 106.384C50.798 106.175 48.219 103.907 48.3809 101.318" stroke="#3C9857" stroke-width="3" stroke-linecap="round"/>
<path d="M114.848 46.6223L136.261 44.6699V144.243L114.848 146.196V46.6223Z" fill="url(#paint13_linear_1049_91736)"/>
</g>
<defs>
<filter id="filter0_d_1049_91736" x="5.90234" y="121.553" width="74.2949" height="61.2588" filterUnits="userSpaceOnUse" color-interpolation-filters="sRGB">
<feFlood flood-opacity="0" result="BackgroundImageFix"/>
<feColorMatrix in="SourceAlpha" type="matrix" values="0 0 0 0 0 0 0 0 0 0 0 0 0 0 0 0 0 0 127 0" result="hardAlpha"/>
<feOffset dx="-5" dy="-1"/>
<feGaussianBlur stdDeviation="2"/>
<feComposite in2="hardAlpha" operator="out"/>
<feColorMatrix type="matrix" values="0 0 0 0 0 0 0 0 0 0 0 0 0 0 0 0 0 0 0.25 0"/>
<feBlend mode="normal" in2="BackgroundImageFix" result="effect1_dropShadow_1049_91736"/>
<feBlend mode="normal" in="SourceGraphic" in2="effect1_dropShadow_1049_91736" result="shape"/>
</filter>
<filter id="filter1_d_1049_91736" x="26.3438" y="121.656" width="77.4004" height="61.4111" filterUnits="userSpaceOnUse" color-interpolation-filters="sRGB">
<feFlood flood-opacity="0" result="BackgroundImageFix"/>
<feColorMatrix in="SourceAlpha" type="matrix" values="0 0 0 0 0 0 0 0 0 0 0 0 0 0 0 0 0 0 127 0" result="hardAlpha"/>
<feOffset dx="-5" dy="-1"/>
<feGaussianBlur stdDeviation="2"/>
<feComposite in2="hardAlpha" operator="out"/>
<feColorMatrix type="matrix" values="0 0 0 0 0 0 0 0 0 0 0 0 0 0 0 0 0 0 0.25 0"/>
<feBlend mode="normal" in2="BackgroundImageFix" result="effect1_dropShadow_1049_91736"/>
<feBlend mode="normal" in="SourceGraphic" in2="effect1_dropShadow_1049_91736" result="shape"/>
</filter>
<linearGradient id="paint0_linear_1049_91736" x1="14.3301" y1="33.9635" x2="145.079" y2="33.9635" gradientUnits="userSpaceOnUse">
<stop stop-color="#3AD4C1"/>
<stop offset="0.408654" stop-color="#FEDB7A"/>
<stop offset="0.966346" stop-color="#36D4C2"/>
</linearGradient>
<linearGradient id="paint1_linear_1049_91736" x1="157.303" y1="19.3266" x2="109.758" y2="55.9146" gradientUnits="userSpaceOnUse">
<stop offset="0.0240385" stop-color="#FDFF7E"/>
<stop offset="0.481727" stop-color="#D6E49D"/>
<stop offset="1" stop-color="#5B893A"/>
</linearGradient>
<linearGradient id="paint2_linear_1049_91736" x1="23.2768" y1="133.39" x2="-12.3329" y2="147.868" gradientUnits="userSpaceOnUse">
<stop offset="0.481244" stop-color="#EFE398"/>
<stop offset="1" stop-color="#41D5BF"/>
</linearGradient>
<linearGradient id="paint3_linear_1049_91736" x1="130.014" y1="72.5405" x2="84.3158" y2="103.535" gradientUnits="userSpaceOnUse">
<stop offset="0.0240385" stop-color="#FDFF7E"/>
<stop offset="0.481727" stop-color="#D6E49D"/>
<stop offset="1" stop-color="#5B893A"/>
</linearGradient>
<linearGradient id="paint4_linear_1049_91736" x1="42.6471" y1="108.245" x2="7.01822" y2="132.411" gradientUnits="userSpaceOnUse">
<stop offset="0.0240385" stop-color="#FDFF7E"/>
<stop offset="0.481727" stop-color="#D6E49D"/>
<stop offset="1" stop-color="#5B893A"/>
</linearGradient>
<linearGradient id="paint5_linear_1049_91736" x1="56.3424" y1="102.376" x2="20.7135" y2="126.541" gradientUnits="userSpaceOnUse">
<stop offset="0.0240385" stop-color="#FDFF7E"/>
<stop offset="0.481727" stop-color="#D6E49D"/>
<stop offset="1" stop-color="#5B893A"/>
</linearGradient>
<linearGradient id="paint6_linear_1049_91736" x1="14.3301" y1="98.708" x2="145.079" y2="98.708" gradientUnits="userSpaceOnUse">
<stop stop-color="#37D4C2"/>
<stop offset="0.278846" stop-color="#E4EDBD"/>
<stop offset="0.966346" stop-color="#32D3C3"/>
</linearGradient>
<linearGradient id="paint7_linear_1049_91736" x1="27.1462" y1="112.486" x2="137.608" y2="112.486" gradientUnits="userSpaceOnUse">
<stop stop-color="#B5F4D9"/>
<stop offset="1" stop-color="#FECC3F"/>
</linearGradient>
<linearGradient id="paint8_linear_1049_91736" x1="79.831" y1="47.6934" x2="79.7247" y2="75.6571" gradientUnits="userSpaceOnUse">
<stop stop-color="#E1EC94"/>
<stop offset="1" stop-color="#38D4C2"/>
</linearGradient>
<linearGradient id="paint9_linear_1049_91736" x1="106.932" y1="128.561" x2="142.453" y2="168.869" gradientUnits="userSpaceOnUse">
<stop stop-color="#EFE499"/>
<stop offset="1" stop-color="#32D3C3"/>
</linearGradient>
<linearGradient id="paint10_linear_1049_91736" x1="20.9285" y1="151.143" x2="62.408" y2="152.317" gradientUnits="userSpaceOnUse">
<stop stop-color="#E1EC94"/>
<stop offset="1" stop-color="#32D3C3"/>
</linearGradient>
<linearGradient id="paint11_linear_1049_91736" x1="20.9279" y1="182.594" x2="93.1257" y2="184.012" gradientUnits="userSpaceOnUse">
<stop stop-color="#E1EC94"/>
<stop offset="1" stop-color="#32D3C3"/>
</linearGradient>
<linearGradient id="paint12_linear_1049_91736" x1="14.3301" y1="40.7652" x2="145.079" y2="40.7652" gradientUnits="userSpaceOnUse">
<stop stop-color="#3AD4C1"/>
<stop offset="0.408654" stop-color="#FEDB7A"/>
<stop offset="0.966346" stop-color="#36D4C2"/>
</linearGradient>
<linearGradient id="paint13_linear_1049_91736" x1="125.554" y1="44.6699" x2="125.554" y2="146.196" gradientUnits="userSpaceOnUse">
<stop offset="0.149038" stop-color="white"/>
<stop offset="1" stop-color="#E7EEB3" stop-opacity="0"/>
</linearGradient>
</defs>
</svg>
