<svg width="149" height="149" viewBox="0 0 149 149" fill="none" xmlns="http://www.w3.org/2000/svg">
<mask id="mask0_1049_58362" style="mask-type:alpha" maskUnits="userSpaceOnUse" x="0" y="0" width="149" height="149">
<circle cx="74.5" cy="74.5" r="74.5" fill="white"/>
</mask>
<g mask="url(#mask0_1049_58362)">
<rect x="32.2783" y="81.1201" width="39.9862" height="39.9862" rx="17" transform="rotate(-28.8332 32.2783 81.1201)" fill="#FDA8A8"/>
<rect x="65.375" y="99.2627" width="39.9862" height="39.9862" rx="17" transform="rotate(15.0895 65.375 99.2627)" fill="#FDA8A8"/>
<path d="M78.7693 156.998C67.5864 166.114 69.1217 181.276 71.2872 187.717C83.7212 188.019 92.1253 178.742 94.7732 174.066L93.7796 173.911C95.881 172.61 97.3963 168.82 97.8913 167.088L96.5666 166.883C98.403 165.54 99.9055 159.94 100.427 157.307L98.7713 157.05C99.854 155.319 99.5883 149.603 99.3201 146.961C97.5889 145.878 93.1095 148.371 91.0862 149.752L91.2404 148.759C90.2218 148.329 88.0104 150.632 87.032 151.836L86.855 150.791C83.8585 150.869 80.8098 155.505 79.66 157.814L78.7693 156.998Z" fill="#3C9857"/>
<path d="M27.6309 84.0052C27.785 78.213 32.0559 73.3583 37.7812 72.4672L91.4909 64.108C98.8851 62.9572 105.518 68.7808 105.333 76.2617L101.145 245.775C100.981 252.401 95.4772 257.639 88.8518 257.475L35.0767 256.147C28.4424 255.983 23.2009 250.465 23.3774 243.831L27.6309 84.0052Z" fill="#FDA8A8" fill-opacity="0.52"/>
<path d="M58.2289 31.1732C50.1996 39.8287 53.162 51.941 55.6468 56.9152C65.7573 55.7511 71.5165 47.2808 73.1323 43.1912L72.3097 43.1788C73.8651 41.8858 74.6636 38.6432 74.8684 37.1836L73.7716 37.167C75.1076 35.8707 75.6906 31.1621 75.815 28.9699L74.444 28.9492C75.1252 27.4236 74.2621 22.8211 73.7454 20.7106C72.2197 20.0294 68.8722 22.557 67.3891 23.906L67.4015 23.0835C66.5274 22.8509 64.9962 24.9671 64.3398 26.0543L64.078 25.2276C61.6584 25.6299 59.7133 29.7329 59.0432 31.7341L58.2289 31.1732Z" fill="#3C9857"/>
<path d="M56.3213 55.2872L58.4111 50.8288M64.7389 37.3296L66.6546 33.2427L71.0666 23.8305M58.4111 50.8288C59.8432 48.1349 63.0816 44.7238 66.6496 44.4608M58.4111 50.8288L59.5441 47.231M64.7389 37.3296C66.0424 35.2116 70.9359 31.749 73.1241 31.5092M64.7389 37.3296L59.5441 47.231M59.5441 47.231C59.7398 45.0308 61.6466 37.0103 59.5852 35.137M66.6546 33.2427C66.9168 31.8008 66.5485 28.7641 64.7495 27.86" stroke="#338F58" stroke-width="2" stroke-linecap="round"/>
<path d="M34.3653 68.4766C39.4162 76.513 49.4388 76.7329 53.8187 75.8383C55.0185 67.7444 49.6391 61.5094 46.7994 59.4036L46.6186 60.0399C45.9381 58.5629 43.5861 57.2681 42.4952 56.8053L42.2541 57.6536C41.5254 56.3464 37.9901 54.9139 36.3136 54.3611L36.0123 55.4215C34.9692 54.575 31.2155 54.2876 29.4689 54.2497C28.6225 55.2927 29.8888 58.4183 30.6278 59.8507L29.9916 59.67C29.6291 60.3004 30.9539 61.9299 31.6616 62.6658L30.9651 62.6971C30.7741 64.6598 33.5556 67.0241 34.9702 67.9609L34.3653 68.4766Z" fill="#3C9857"/>
<path d="M52.6949 74.9766L49.6674 72.4259M40.5009 64.7029L37.7258 62.3648L31.3345 56.98M49.6674 72.4259C47.8734 70.7532 45.8982 67.5286 46.4365 64.7029M49.6674 72.4259L47.1092 70.7974M40.5009 64.7029C39.1274 63.2499 37.4567 58.7292 37.7258 56.98M40.5009 64.7029L47.1092 70.7974M47.1092 70.7974C45.4413 70.1876 39.6095 67.0379 37.7258 68.2489M37.7258 62.3648C36.6606 61.8611 34.2257 61.5153 33.1493 62.7242" stroke="#338F58" stroke-width="2" stroke-linecap="round"/>
<circle cx="108.511" cy="47.2282" r="29.8692" transform="rotate(-15 108.511 47.2282)" fill="#FDA8A8"/>
<ellipse cx="108.108" cy="47.5853" rx="26.9787" ry="26.7378" transform="rotate(-15 108.108 47.5853)" fill="#FBF9DE"/>
<path d="M109.068 45.5832L106.865 24.2307C107.345 23.3944 109.861 22.282 115.932 23.9248C120.788 25.2391 122.3 27.5552 122.449 28.549L109.068 45.5832Z" fill="#FDA8A8"/>
<path d="M110.004 46.5085L123.825 29.9593C124.766 29.7196 127.344 30.7566 130.448 36.2884C132.931 40.7138 132.331 43.4277 131.72 44.2314L110.004 46.5085Z" fill="#FDA8A8"/>
<path d="M110.399 48.1238L131.813 45.6123C132.661 46.0853 133.82 48.6114 132.27 54.762C131.029 59.6824 128.727 61.2402 127.732 61.404L110.399 48.1238Z" fill="#FDA8A8"/>
<path d="M109.499 48.7407L125.859 62.7843C126.086 63.7284 125.014 66.2927 119.441 69.3212C114.982 71.7441 112.277 71.1073 111.481 70.486L109.499 48.7407Z" fill="#FDA8A8"/>
<path d="M107.696 46.0785L105.801 24.6007C105.166 23.8664 102.457 23.2452 96.75 26.0136C92.1844 28.2283 91.1271 30.7988 91.1692 31.8073L107.696 46.0785Z" fill="#FDA8A8"/>
<path d="M106.907 46.9453L90.2118 33.3016C89.2424 33.2437 86.9059 34.7488 84.9019 40.7668C83.2986 45.5813 84.4 48.1332 85.1512 48.8073L106.907 46.9453Z" fill="#FDA8A8"/>
<path d="M106.824 48.6064L85.3202 50.1812C84.5766 50.8058 83.9152 53.5052 86.5985 59.2527C88.7452 63.8506 91.2997 64.946 92.3086 64.9189L106.824 48.6064Z" fill="#FDA8A8"/>
<path d="M107.825 49.0425L94.4085 65.9212C94.3637 66.8912 95.9003 69.2071 101.945 71.1295C106.781 72.6674 109.317 71.5315 109.981 70.7713L107.825 49.0425Z" fill="#FDA8A8"/>
<path d="M51.1596 25.2193C48.4614 29.2177 44.4114 39.8297 49.7974 50.2906M57.9984 43.7076C56.3899 47.1449 53.8768 56.0213 56.6929 64.0283M61.6432 53.5101C60.0777 56.4106 57.0591 63.2363 57.5084 67.3358" stroke="url(#paint0_linear_1049_58362)" stroke-width="5" stroke-linecap="round"/>
<path d="M60.7843 76.353C56.7938 62.7763 44.8107 34.0482 28.8025 27.7499" stroke="url(#paint1_linear_1049_58362)" stroke-width="5" stroke-linecap="round"/>
<path d="M34.9025 44.6651C39.6644 45.4793 50.0005 48.837 53.2498 55.7548M43.4564 56.5905C47.7455 58.8077 56.6835 64.4165 58.1224 69.1141M41.0923 21.3858C41.4622 26.2067 43.2607 38.0082 47.4959 46.6477" stroke="url(#paint2_linear_1049_58362)" stroke-width="5" stroke-linecap="round"/>
<rect x="24.2539" y="43.5605" width="85.7536" height="216.311" rx="12" transform="rotate(1.41531 24.2539 43.5605)" fill="url(#paint3_linear_1049_58362)" fill-opacity="0.67"/>
<rect x="26.2039" y="45.6093" width="81.7536" height="212.311" rx="10" transform="rotate(1.41531 26.2039 45.6093)" stroke="url(#paint4_linear_1049_58362)" stroke-opacity="0.72" stroke-width="4"/>
<path d="M39.2949 49.1254L28.4373 48.5385L23.9744 218.552L35.6534 219.418L39.2949 49.1254Z" fill="url(#paint5_linear_1049_58362)"/>
<path d="M97.656 256.876L88.1128 256.71L94.4434 88.655L104.764 87.7157L97.656 256.876Z" fill="url(#paint6_linear_1049_58362)"/>
<circle cx="47.2136" cy="99.2549" r="11.5623" transform="rotate(-15 47.2136 99.2549)" fill="white"/>
<mask id="mask1_1049_58362" style="mask-type:alpha" maskUnits="userSpaceOnUse" x="35" y="87" width="24" height="24">
<circle cx="47.2136" cy="99.2549" r="11.5623" transform="rotate(-15 47.2136 99.2549)" fill="white"/>
</mask>
<g mask="url(#mask1_1049_58362)">
<circle cx="44.1843" cy="96.3259" r="7.94907" transform="rotate(-15 44.1843 96.3259)" fill="#FDA8A8"/>
</g>
<circle cx="78.9899" cy="98.7197" r="11.5623" transform="rotate(-15 78.9899 98.7197)" fill="white"/>
<mask id="mask2_1049_58362" style="mask-type:alpha" maskUnits="userSpaceOnUse" x="67" y="87" width="24" height="24">
<circle cx="78.9895" cy="98.7197" r="11.5623" transform="rotate(-15 78.9895 98.7197)" fill="white"/>
</mask>
<g mask="url(#mask2_1049_58362)">
<circle cx="75.9607" cy="95.7908" r="7.94907" transform="rotate(-15 75.9607 95.7908)" fill="#FDA8A8"/>
</g>
<path d="M73.1838 112.705L49.6459 113.276C50.4571 120.026 53.9747 133.526 61.5558 133.526C69.1369 133.526 72.4666 119.645 73.1838 112.705Z" fill="white"/>
<mask id="mask3_1049_58362" style="mask-type:alpha" maskUnits="userSpaceOnUse" x="49" y="112" width="25" height="22">
<path d="M73.0324 112.994L49.4945 113.565C50.3057 120.315 53.8233 133.815 61.4044 133.815C68.9855 133.815 72.3152 119.934 73.0324 112.994Z" fill="white"/>
</mask>
<g mask="url(#mask3_1049_58362)">
<circle cx="61.0429" cy="129.673" r="9.63523" transform="rotate(-15 61.0429 129.673)" fill="#FF8F8F"/>
</g>
<ellipse cx="38.143" cy="110.419" rx="8.19875" ry="5.37623" transform="rotate(21.0458 38.143 110.419)" fill="#FDA8A8"/>
<ellipse cx="86.0989" cy="111.033" rx="8.30771" ry="5.44768" transform="rotate(-14.4024 86.0989 111.033)" fill="#FDA8A8"/>
</g>
<defs>
<linearGradient id="paint0_linear_1049_58362" x1="42.6708" y1="39.2279" x2="65.9814" y2="53.3177" gradientUnits="userSpaceOnUse">
<stop stop-color="#56A098"/>
<stop offset="1" stop-color="#49C6B9"/>
</linearGradient>
<linearGradient id="paint1_linear_1049_58362" x1="22.4019" y1="38.3393" x2="67.3425" y2="65.5029" gradientUnits="userSpaceOnUse">
<stop stop-color="#56A098"/>
<stop offset="1" stop-color="#49C6B9"/>
</linearGradient>
<linearGradient id="paint2_linear_1049_58362" x1="32.8062" y1="35.0948" x2="66.4085" y2="55.4052" gradientUnits="userSpaceOnUse">
<stop stop-color="#56A098"/>
<stop offset="1" stop-color="#49C6B9"/>
</linearGradient>
<linearGradient id="paint3_linear_1049_58362" x1="28.7023" y1="129.432" x2="110.178" y2="127.419" gradientUnits="userSpaceOnUse">
<stop stop-color="#FDF9BF"/>
<stop offset="0.676618" stop-color="#FEE194"/>
<stop offset="1" stop-color="#FDF8BE"/>
</linearGradient>
<linearGradient id="paint4_linear_1049_58362" x1="67.1307" y1="43.5605" x2="67.1307" y2="259.872" gradientUnits="userSpaceOnUse">
<stop stop-color="#FCFFE1"/>
<stop offset="0.313746" stop-color="#FDA8A8"/>
</linearGradient>
<linearGradient id="paint5_linear_1049_58362" x1="10.0954" y1="53.4532" x2="53.2988" y2="214.69" gradientUnits="userSpaceOnUse">
<stop offset="0.240363" stop-color="white"/>
<stop offset="1" stop-color="#EFDAAA" stop-opacity="0.13"/>
</linearGradient>
<linearGradient id="paint6_linear_1049_58362" x1="72.2824" y1="251.981" x2="119.993" y2="92.2651" gradientUnits="userSpaceOnUse">
<stop offset="0.240363" stop-color="white"/>
<stop offset="1" stop-color="#F8D5A5" stop-opacity="0"/>
</linearGradient>
</defs>
</svg>
