<svg width="168" height="104" viewBox="0 0 168 104" fill="none" xmlns="http://www.w3.org/2000/svg">
<mask id="mask0_1613_11977" style="mask-type:alpha" maskUnits="userSpaceOnUse" x="0" y="0" width="168" height="104">
<rect x="0.5" y="0.5" width="167" height="103" rx="23.5" fill="white" stroke="white"/>
</mask>
<g mask="url(#mask0_1613_11977)">
<path d="M120.036 50.5018C112.265 43.045 99.9199 43.2998 92.4631 51.0711L120.605 78.0746C128.062 70.3034 127.807 57.9586 120.036 50.5018Z" fill="#FDCC09"/>
<path d="M118.284 51.8728C111.264 45.1376 100.163 45.317 93.4879 52.2735L118.907 76.6639C125.582 69.7074 125.303 58.608 118.284 51.8728Z" fill="#F8E8B1"/>
<path d="M107.68 63.7091L117.447 53.6588C118.067 53.5484 119.678 54.3424 121.399 58.0699C122.776 61.0518 122.25 62.7794 121.815 63.2704L107.68 63.7091Z" fill="url(#paint0_linear_1613_11977)"/>
<path d="M107.61 64.5658L121.686 64.5504C122.201 64.921 122.762 66.6466 121.293 70.5185C120.118 73.6161 118.508 74.4529 117.85 74.4841L107.61 64.5658Z" fill="url(#paint1_linear_1613_11977)"/>
<path d="M106.858 63.2301L116.818 53.2816C116.919 52.6557 116.095 51.0391 112.317 49.342C109.295 47.9843 107.565 48.5321 107.078 48.9757L106.858 63.2301Z" fill="url(#paint2_linear_1613_11977)"/>
<path d="M106.093 63.1987L105.928 49.1227C105.55 48.6131 103.818 48.074 99.965 49.5925C96.8827 50.8073 96.0667 52.4281 96.0439 53.0867L106.093 63.1987Z" fill="url(#paint3_linear_1613_11977)"/>
<circle cx="61.0142" cy="62.041" r="9.40088" fill="#FFE89B"/>
<circle cx="68.9165" cy="63.9546" r="6.32272" fill="#FFE89B"/>
<circle cx="68.9184" cy="57.6319" r="2.82858" fill="#FFE89B"/>
<circle cx="75.4067" cy="60.9597" r="2.82858" fill="#FFE89B"/>
<circle cx="79.2349" cy="57.2992" r="1.99665" fill="#FFE89B"/>
<circle cx="76.1573" cy="53.5553" r="0.91513" fill="#FFE89B"/>
<path d="M70.631 138.466C65.7259 113.323 80.1453 102.255 87.9682 99.8646H78.2425C62.5121 103.915 61.8215 126.865 63.4424 137.834L70.631 138.466Z" fill="url(#paint4_linear_1613_11977)"/>
<path d="M102.48 109.887C93.8344 119.204 89.1984 108.212 87.9611 101.551L82.2797 103.76C88.2706 127.052 100.238 121.134 105.473 115.264L102.48 109.887Z" fill="url(#paint5_linear_1613_11977)"/>
<path d="M51.1237 60.4608H110.191C113.696 70.4322 111.209 92.3989 90.6417 97.617C88.2594 100.517 83.9994 106.191 80.9724 105.687C78.45 106.191 72.8613 100.428 69.201 96.99C50.447 90.781 47.9174 69.7299 51.1237 60.4608Z" fill="url(#paint6_linear_1613_11977)"/>
<path d="M90.6417 97.617C111.209 92.3989 113.696 70.4322 110.191 60.4608H51.1237C47.9174 69.7299 50.447 90.781 69.201 96.99C72.5783 98.1081 76.4817 98.7449 80.9724 98.7449C84.5674 98.7449 87.7796 98.3431 90.6417 97.617ZM69.201 96.99C72.8613 100.428 78.45 106.191 80.9724 105.687C83.9994 106.191 88.2594 100.517 90.6417 97.617" stroke="url(#paint7_linear_1613_11977)" stroke-width="2" stroke-linecap="round"/>
<path d="M80.6004 97.3963C101.619 97.6017 110.598 83.4252 109.986 66.7832H51.6905C50.6784 82.1925 59.5815 97.1908 80.6004 97.3963Z" fill="url(#paint8_linear_1613_11977)" fill-opacity="0.84"/>
<path d="M44.8757 68.8245C44.4986 75.4168 52.2606 80.361 56.1887 82.0091L59.9598 90.014C42.4246 87.9421 37.5694 74.3966 37.3337 67.8828C36.7052 67.5688 35.5896 65.858 36.1552 61.5259C36.7209 57.1939 39.0621 57.5235 40.1619 58.2298C41.6703 56.3463 43.4635 57.5626 44.2491 58.4259C46.606 56.5424 47.7039 60.5057 47.4682 62.9386C50.1079 65.0104 46.8397 67.7258 44.8757 68.8245Z" fill="url(#paint9_linear_1613_11977)"/>
<path d="M100.771 116.345C102.832 121.647 107.925 124.615 112.144 122.973L104.678 103.774C100.458 105.416 98.7087 111.044 100.771 116.345Z" fill="#FED13C"/>
<circle cx="72.6542" cy="76.4481" r="5.04486" fill="white"/>
<path d="M71.7179 74.3582C72.04 73.4876 73.2714 73.4876 73.5936 74.3582L73.7452 74.7679C73.8464 75.0416 74.0622 75.2574 74.336 75.3587L74.7457 75.5103C75.6163 75.8324 75.6163 77.0638 74.7457 77.386L74.336 77.5376C74.0622 77.6389 73.8464 77.8547 73.7452 78.1284L73.5936 78.5381C73.2714 79.4087 72.04 79.4087 71.7179 78.5381L71.5663 78.1284C71.465 77.8547 71.2492 77.6389 70.9754 77.5376L70.5658 77.386C69.6951 77.0638 69.6951 75.8324 70.5658 75.5103L70.9754 75.3587C71.2492 75.2574 71.465 75.0416 71.5663 74.7679L71.7179 74.3582Z" fill="#FED13C"/>
<circle cx="87.3691" cy="76.4481" r="5.04486" fill="white"/>
<path d="M86.4327 74.3582C86.7549 73.4876 87.9862 73.4876 88.3084 74.3582L88.46 74.7679C88.5613 75.0416 88.7771 75.2574 89.0508 75.3587L89.4605 75.5103C90.3311 75.8324 90.3311 77.0638 89.4605 77.386L89.0508 77.5376C88.7771 77.6389 88.5613 77.8547 88.46 78.1284L88.3084 78.5381C87.9862 79.4087 86.7549 79.4087 86.4327 78.5381L86.2811 78.1284C86.1798 77.8547 85.964 77.6389 85.6903 77.5376L85.2806 77.386C84.41 77.0638 84.41 75.8324 85.2806 75.5103L85.6903 75.3587C85.964 75.2574 86.1798 75.0416 86.2811 74.7679L86.4327 74.3582Z" fill="#FED13C"/>
<path d="M85.1073 82.2363C81.9109 84.2161 77.3427 83.0198 75.4582 82.1742C75.1802 82.6865 75.9869 89.7563 80.425 89.644C83.9755 89.5542 85.0259 84.6681 85.1073 82.2363Z" fill="#161316"/>
<mask id="mask1_1613_11977" style="mask-type:alpha" maskUnits="userSpaceOnUse" x="75" y="82" width="11" height="8">
<path d="M85.1073 82.2359C81.9109 84.2156 77.3427 83.0193 75.4582 82.1737C75.1802 82.6861 75.9869 89.7558 80.425 89.6436C83.9755 89.5538 85.0259 84.6677 85.1073 82.2359Z" fill="#161316"/>
</mask>
<g mask="url(#mask1_1613_11977)">
<ellipse cx="79.8946" cy="88.8435" rx="3.64976" ry="3.12837" transform="rotate(1.91728 79.8946 88.8435)" fill="#D84D2E"/>
</g>
<path d="M112.471 94.3378C115.91 88.7806 106.519 87.563 101.393 87.6489L105.174 80.5569C124.93 82.4462 121.86 93.9236 117.855 99.4261C118.318 100.562 116.737 103.803 114.602 105.438C112.894 106.745 111.062 105.709 110.36 105.027C108.246 105.237 107.512 103.37 107.409 102.41C104.169 101.857 105.837 98.4679 107.075 96.8426C107.062 93.7109 110.667 93.8679 112.471 94.3378Z" fill="url(#paint10_linear_1613_11977)"/>
<path d="M60.0401 60.9596H68.0872L66.8166 66.7831H58.7695L60.0401 60.9596Z" fill="white"/>
<path d="M63.1928 67.1159H58.8851C57.5723 75.2405 59.4321 81.9264 60.5261 84.2538H64.4235C61.7979 76.2984 62.509 69.5138 63.1928 67.1159Z" fill="url(#paint11_linear_1613_11977)"/>
<path d="M63.5625 67.4489C62.9804 69.8997 62.471 76.6917 65.0904 84.254" stroke="url(#paint12_linear_1613_11977)" stroke-linecap="round"/>
<path d="M89.6257 98.3135C81.7339 99.8649 74.3142 98.6507 70.6719 97.9088C73.235 100.337 78.9009 105.531 81.0594 105.531C83.2178 105.531 88.0069 100.724 89.6257 98.3135Z" fill="#FED54C"/>
</g>
<defs>
<linearGradient id="paint0_linear_1613_11977" x1="120.446" y1="55.378" x2="112.313" y2="66.9622" gradientUnits="userSpaceOnUse">
<stop offset="0.480769" stop-color="#FDCC09"/>
<stop offset="1" stop-color="#FD6F0D"/>
</linearGradient>
<linearGradient id="paint1_linear_1613_11977" x1="122.557" y1="67.9319" x2="108.526" y2="70.2108" gradientUnits="userSpaceOnUse">
<stop offset="0.480769" stop-color="#FDCC09"/>
<stop offset="1" stop-color="#FD6F0D"/>
</linearGradient>
<linearGradient id="paint2_linear_1613_11977" x1="115.041" y1="50.2756" x2="103.513" y2="58.592" gradientUnits="userSpaceOnUse">
<stop offset="0.480769" stop-color="#FDCC09"/>
<stop offset="1" stop-color="#FD6F0D"/>
</linearGradient>
<linearGradient id="paint3_linear_1613_11977" x1="102.535" y1="48.2952" x2="100.437" y2="62.3544" gradientUnits="userSpaceOnUse">
<stop offset="0.480769" stop-color="#FDCC09"/>
<stop offset="1" stop-color="#FD6F0D"/>
</linearGradient>
<linearGradient id="paint4_linear_1613_11977" x1="82.4123" y1="86.5471" x2="67.3479" y2="129.84" gradientUnits="userSpaceOnUse">
<stop stop-color="#FD6F0E" stop-opacity="0.45"/>
<stop offset="0.812779" stop-color="#FED13C"/>
</linearGradient>
<linearGradient id="paint5_linear_1613_11977" x1="81.0641" y1="102.625" x2="101.534" y2="117.247" gradientUnits="userSpaceOnUse">
<stop stop-color="#FD6F0E" stop-opacity="0.57"/>
<stop offset="0.519231" stop-color="#FED13C"/>
</linearGradient>
<linearGradient id="paint6_linear_1613_11977" x1="52.5282" y1="70.1111" x2="110.847" y2="70.1111" gradientUnits="userSpaceOnUse">
<stop stop-color="#FED13C"/>
<stop offset="0.186876" stop-color="#FFEDB3" stop-opacity="0.5"/>
<stop offset="1" stop-color="#FED13C"/>
</linearGradient>
<linearGradient id="paint7_linear_1613_11977" x1="49.9492" y1="72.6612" x2="112.8" y2="73.5014" gradientUnits="userSpaceOnUse">
<stop stop-color="#FE8940"/>
<stop offset="0.153416" stop-color="#FFF7EA"/>
<stop offset="0.792456" stop-color="#FFD67C"/>
<stop offset="1" stop-color="#FE8940"/>
</linearGradient>
<linearGradient id="paint8_linear_1613_11977" x1="80.7876" y1="56.6957" x2="81.012" y2="100.889" gradientUnits="userSpaceOnUse">
<stop stop-color="#FD5C02" stop-opacity="0.81"/>
<stop offset="0.576923" stop-color="#FED13C"/>
</linearGradient>
<linearGradient id="paint9_linear_1613_11977" x1="26.9615" y1="47.5227" x2="57.3146" y2="87.9935" gradientUnits="userSpaceOnUse">
<stop stop-color="#FEB532"/>
<stop offset="1" stop-color="#FED54C"/>
</linearGradient>
<linearGradient id="paint10_linear_1613_11977" x1="109.328" y1="79.7596" x2="130.703" y2="106.61" gradientUnits="userSpaceOnUse">
<stop stop-color="#FED240"/>
<stop offset="1" stop-color="#FEA42C"/>
</linearGradient>
<linearGradient id="paint11_linear_1613_11977" x1="61.4286" y1="67.1159" x2="62.3885" y2="85.097" gradientUnits="userSpaceOnUse">
<stop offset="0.296611" stop-color="white"/>
<stop offset="1" stop-color="#F7A931" stop-opacity="0.31"/>
</linearGradient>
<linearGradient id="paint12_linear_1613_11977" x1="64.0921" y1="67.4489" x2="64.0921" y2="84.254" gradientUnits="userSpaceOnUse">
<stop stop-color="white"/>
<stop offset="1" stop-color="#F7AA32" stop-opacity="0.4"/>
</linearGradient>
</defs>
</svg>
