<svg width="168" height="104" viewBox="0 0 168 104" fill="none" xmlns="http://www.w3.org/2000/svg">
<mask id="mask0_1613_12018" style="mask-type:alpha" maskUnits="userSpaceOnUse" x="0" y="0" width="168" height="104">
<rect x="0.5" y="0.5" width="167" height="103" rx="23.5" fill="white" stroke="white"/>
</mask>
<g mask="url(#mask0_1613_12018)">
<circle cx="64.6811" cy="68.6552" r="13.0405" fill="#FDAF7A"/>
<ellipse cx="64.4699" cy="68.7602" rx="11.7785" ry="11.6734" fill="#FBF9DE"/>
<path d="M65.0781 67.9819L66.5996 58.4941C66.9039 58.188 68.121 57.9987 70.5554 59.4123C72.5028 60.5432 72.8883 61.7198 72.8376 62.1668L65.0781 67.9819Z" fill="#FDAF7A"/>
<path d="M65.3274 68.5025L73.2533 62.9251C73.6897 62.9305 74.6886 63.6808 75.3926 66.4436C75.9558 68.6538 75.3796 69.7623 75.021 70.0403L65.3274 68.5025Z" fill="#FDAF7A"/>
<path d="M65.3083 69.2498L74.8981 70.6506C75.2113 70.9546 75.4206 72.1862 74.0319 74.6763C72.9209 76.6683 71.7402 77.0768 71.2888 77.0321L65.3083 69.2498Z" fill="#FDAF7A"/>
<path d="M64.8469 69.4129L70.3163 77.4136C70.3051 77.8499 69.5414 78.8386 66.7693 79.5051C64.5516 80.0383 63.451 79.4471 63.1779 79.0848L64.8469 69.4129Z" fill="#FDAF7A"/>
<path d="M64.3722 68.0473L66.0484 58.5019C65.8579 58.1091 64.7541 57.5243 61.9542 58.0623C59.7143 58.4927 58.9562 59.4858 58.8571 59.9285L64.3722 68.0473Z" fill="#FDAF7A"/>
<path d="M63.93 68.332L58.2685 60.466C57.8544 60.3281 56.6649 60.7098 55.0946 63.0895C53.8384 64.9933 54.0198 66.2294 54.2675 66.6095L63.93 68.332Z" fill="#FDAF7A"/>
<path d="M63.7018 69.0437L54.1823 67.2258C53.7868 67.4105 53.1855 68.5055 53.6819 71.3131C54.079 73.5591 55.0607 74.3319 55.5019 74.4375L63.7018 69.0437Z" fill="#FDAF7A"/>
<path d="M64.0865 69.3491L56.2979 75.1166C56.1656 75.5326 56.5633 76.7168 58.9641 78.2547C60.8847 79.485 62.1183 79.2869 62.495 79.0341L64.0865 69.3491Z" fill="#FDAF7A"/>
<rect x="85.2383" y="102.927" width="14.6575" height="14.6575" rx="7.32876" transform="rotate(30.0208 85.2383 102.927)" fill="#CA2327"/>
<rect x="67.5" y="100.753" width="14.6575" height="14.6575" rx="7.32876" transform="rotate(-17.8415 67.5 100.753)" fill="#CA2327"/>
<rect x="85.793" y="86.0798" width="14.6575" height="14.6575" rx="7.32876" transform="rotate(24.8617 85.793 86.0798)" fill="#CA2327"/>
<path d="M96.5124 62.4966C96.8017 61.3514 98.4287 61.3514 98.7181 62.4966C98.8918 63.1839 99.645 63.5466 100.291 63.2539C101.366 62.7661 102.381 64.0382 101.666 64.9784C101.237 65.5427 101.423 66.3578 102.054 66.6801C103.106 67.217 102.744 68.8032 101.564 68.8305C100.855 68.8469 100.334 69.5005 100.475 70.1951C100.711 71.3524 99.2455 72.0583 98.488 71.1522C98.0333 70.6083 97.1972 70.6083 96.7425 71.1522C95.985 72.0583 94.5191 71.3524 94.7552 70.1951C94.897 69.5005 94.3757 68.8469 93.667 68.8305C92.4862 68.8032 92.1241 67.217 93.1761 66.6801C93.8076 66.3578 93.9936 65.5427 93.5645 64.9784C92.8497 64.0382 93.8641 62.7661 94.9398 63.2539C95.5855 63.5466 96.3387 63.1839 96.5124 62.4966Z" fill="#FEE29E"/>
<g filter="url(#filter0_d_1613_12018)">
<path d="M53.7267 80.8852C62.826 84.5249 68.7117 92.8732 70.5171 96.5923L72.6836 89.6596C71.3837 84.1133 60.8039 77.9605 55.6765 75.5773C55.0699 72.9775 53.6183 74.0607 52.9684 74.9273C51.1268 72.9774 42.3525 76.3355 53.7267 80.8852Z" fill="url(#paint0_linear_1613_12018)"/>
</g>
<path d="M111.365 42L93.1719 73.5142" stroke="url(#paint1_linear_1613_12018)" stroke-width="2" stroke-linecap="round"/>
<path d="M109.514 43.2425L89.2884 45.5028C88.3882 45.6034 88.2393 46.475 89.052 46.8748C91.4036 48.0312 94.9087 49.9844 96.2907 52.2701C96.4558 52.5431 96.7173 52.7509 97.0293 52.8173C103.739 54.2442 107.721 57.6441 110.337 59.6549C110.515 59.792 110.735 59.8616 110.96 59.8624C113.565 59.8716 116.403 60.5722 118.6 61.3061C119.527 61.6161 120.462 60.5579 119.976 59.7091L111.024 44.0717C110.942 43.9286 110.826 43.8079 110.686 43.7205L110.155 43.3884C109.964 43.2689 109.738 43.2175 109.514 43.2425Z" fill="url(#paint2_linear_1613_12018)"/>
<ellipse cx="90.3557" cy="65.9314" rx="4.00804" ry="3.89971" fill="url(#paint3_linear_1613_12018)"/>
<ellipse cx="93.7137" cy="72.3225" rx="4.54966" ry="4.44134" fill="url(#paint4_linear_1613_12018)"/>
<circle cx="83.889" cy="70.472" r="6.73047" transform="rotate(16.5827 83.889 70.472)" fill="url(#paint5_linear_1613_12018)"/>
<path d="M87.2539 52.3469C88.4869 55.2397 89.9352 61.9605 85.8645 65.701" stroke="#CE2327" stroke-width="2" stroke-linecap="round"/>
<path d="M114.839 74.4949C115.445 71.8952 116.897 72.9779 117.547 73.8445C119.389 71.8949 128.162 75.253 116.789 79.8025C108.973 82.9289 103.529 89.5296 101.004 93.6863L104.115 99.7293H104.007L103.569 109.912H103.357L99.1328 118.361H98.6738C95.9564 120.595 89.538 124.815 84.5088 124.644C78.2471 124.432 68.3479 120.164 67.9492 118.361H67.3936L63.3857 109.912H62.8438V99.7293H62.9521L67.0791 91.2801H67.3145L69.126 83.697H69.2324L67.7188 73.948H99.1328L97.6191 83.697H97.5078L98.4658 86.9363C101.149 81.8633 110.213 76.645 114.839 74.4949Z" fill="url(#paint6_linear_1613_12018)" fill-opacity="0.92"/>
<path d="M110.901 59.1884L110.577 44.1785M97.0742 52.0659L109.602 43.6587" stroke="#FFE1CF" stroke-width="0.8" stroke-linecap="round"/>
<ellipse cx="81.0068" cy="65.8091" rx="2.27483" ry="0.649952" transform="rotate(-34.6306 81.0068 65.8091)" fill="#FFE8E8"/>
<ellipse cx="78.7749" cy="68.0283" rx="0.216651" ry="0.541627" transform="rotate(27.8062 78.7749 68.0283)" fill="#FFE8E8"/>
<path d="M101.949 68.7477L102.778 69.3067L103.829 67.7477H101.949V68.7477ZM100.777 92.0016H101.777V91.7113L101.622 91.4661L100.777 92.0016ZM104.383 106.513L105.38 106.594V106.594L104.383 106.513ZM83.4365 124.633L83.4641 123.634L83.4365 123.633L83.4089 123.634L83.4365 124.633ZM62.4893 106.513L61.4926 106.594L61.4926 106.594L62.4893 106.513ZM66.0947 92.0016L65.2502 91.4661L65.0947 91.7113V92.0016H66.0947ZM64.9229 68.7477V67.7477H63.0428L64.0936 69.3067L64.9229 68.7477ZM101.949 68.7477L101.12 68.1888C99.6788 70.327 97.9198 74.0599 97.241 78.4159C96.56 82.7856 96.9584 87.8466 99.9328 92.5372L100.777 92.0016L101.622 91.4661C98.9723 87.2879 98.5897 82.7499 99.2171 78.7239C99.8467 74.6842 101.486 71.2246 102.778 69.3067L101.949 68.7477ZM100.777 92.0016H99.7773C99.7773 92.1578 99.8114 92.2859 99.8283 92.3447C99.8491 92.4171 99.8742 92.4847 99.8963 92.5401C99.9407 92.6509 99.9983 92.7748 100.058 92.8979C100.174 93.1383 100.35 93.4823 100.534 93.8518C100.914 94.6179 101.408 95.6553 101.881 96.9073C102.831 99.4175 103.685 102.755 103.386 106.432L104.383 106.513L105.38 106.594C105.711 102.52 104.763 98.8723 103.752 96.1997C103.245 94.8603 102.719 93.757 102.325 92.9626C102.121 92.5518 101.971 92.2607 101.858 92.0271C101.803 91.9133 101.771 91.8406 101.753 91.7971C101.744 91.7753 101.746 91.7763 101.751 91.793C101.752 91.7961 101.777 91.8793 101.777 92.0016H100.777ZM104.383 106.513L103.386 106.432C102.79 113.761 96.1427 123.984 83.4641 123.634L83.4365 124.633L83.4089 125.633C97.4016 126.02 104.719 114.713 105.38 106.594L104.383 106.513ZM83.4365 124.633L83.4089 123.634C70.73 123.984 64.0825 113.761 63.486 106.432L62.4893 106.513L61.4926 106.594C62.1533 114.713 69.4711 126.02 83.4642 125.633L83.4365 124.633ZM62.4893 106.513L63.486 106.432C63.1867 102.755 64.0412 99.4175 64.9907 96.9073C65.4643 95.6553 65.9581 94.6179 66.3384 93.8518C66.5218 93.4823 66.6979 93.1383 66.8142 92.8979C66.8737 92.7748 66.9314 92.6509 66.9757 92.5401C66.9979 92.4847 67.023 92.4171 67.0438 92.3447C67.0607 92.2859 67.0947 92.1578 67.0947 92.0016H66.0947H65.0947C65.0947 91.8793 65.1205 91.7961 65.1214 91.793C65.1262 91.7763 65.1276 91.7753 65.1189 91.7971C65.1015 91.8406 65.0687 91.9133 65.0137 92.0271C64.9007 92.2607 64.7508 92.5518 64.5469 92.9626C64.1526 93.757 63.6267 94.8603 63.1201 96.1997C62.1091 98.8723 61.1609 102.52 61.4926 106.594L62.4893 106.513ZM66.0947 92.0016L66.9392 92.5372C69.9138 87.8465 70.3122 82.7855 69.6312 78.4158C68.9523 74.0598 67.1933 70.327 65.7521 68.1888L64.9229 68.7477L64.0936 69.3067C65.3864 71.2246 67.0255 74.6841 67.6551 78.7238C68.2825 82.7498 67.8999 87.2878 65.2502 91.4661L66.0947 92.0016ZM64.9229 68.7477V69.7477H101.949V68.7477V67.7477H64.9229V68.7477Z" fill="#FFF7E3" fill-opacity="0.86"/>
<path d="M72.0476 69.831H67.2812C73.1308 78.1721 70.7477 89.5462 67.6062 92.5793H72.6975C78.4388 85.4299 74.9001 74.8862 72.0476 69.831Z" fill="url(#paint7_linear_1613_12018)"/>
<path d="M74.6506 79.5801C74.0316 79.642 72.645 79.9887 72.0508 80.88" stroke="#FE853C" stroke-width="1.5" stroke-linecap="round"/>
<path d="M87.2127 79.3638C87.8317 79.4257 89.2183 79.7723 89.8125 80.6637" stroke="#FF8237" stroke-width="1.5" stroke-linecap="round"/>
<circle cx="87.2554" cy="86.8146" r="4.20068" fill="white"/>
<path d="M86.607 85.0111C86.8521 84.2566 87.9196 84.2566 88.1647 85.0111C88.2744 85.3486 88.5888 85.577 88.9436 85.577C89.737 85.577 90.0668 86.5922 89.425 87.0586C89.138 87.2671 89.0179 87.6368 89.1275 87.9742C89.3727 88.7287 88.5091 89.3562 87.8672 88.8898C87.5802 88.6813 87.1915 88.6813 86.9045 88.8898C86.2626 89.3562 85.399 88.7287 85.6442 87.9742C85.7538 87.6368 85.6337 87.2671 85.3467 87.0586C84.7049 86.5922 85.0347 85.577 85.8281 85.577C86.1829 85.577 86.4973 85.3486 86.607 85.0111Z" fill="#FE843A"/>
<path d="M82.1109 91.2797H80.5469C79.4423 91.2797 78.6137 92.1782 78.8967 93.2459C79.2875 94.7199 80.0686 96.4793 81.5394 96.4793C82.8731 96.4793 83.5839 94.8928 83.9223 93.3297C84.1617 92.2242 83.242 91.2797 82.1109 91.2797Z" fill="white"/>
<mask id="mask1_1613_12018" style="mask-type:alpha" maskUnits="userSpaceOnUse" x="78" y="91" width="6" height="6">
<path d="M82.1109 91.2798H80.5469C79.4423 91.2798 78.6137 92.1784 78.8967 93.2461C79.2875 94.7201 80.0686 96.4795 81.5394 96.4795C82.8731 96.4795 83.5839 94.8929 83.9223 93.3299C84.1617 92.2244 83.242 91.2798 82.1109 91.2798Z" fill="white"/>
</mask>
<g mask="url(#mask1_1613_12018)">
<circle cx="81.3646" cy="96.9127" r="3.89971" fill="#EB5656"/>
</g>
<path d="M72.4806 92.5795H67.8226C65.1506 96.6597 61.5397 107.03 68.4726 115.869H72.6533C67.3505 107.831 69.8898 97.6553 72.4806 92.5795Z" fill="url(#paint8_linear_1613_12018)"/>
<path d="M72.043 86.6827C72.831 86.6541 74.8113 86.686 76.3326 86.9216C77.1182 87.0433 77.0889 87.8071 76.3431 88.0824C74.7333 88.6765 72.8244 89.4449 72.043 89.9966" stroke="#FF8339" stroke-width="1.5" stroke-linecap="round"/>
</g>
<defs>
<filter id="filter0_d_1613_12018" x="44.0039" y="68.9474" width="32.6797" height="30.6449" filterUnits="userSpaceOnUse" color-interpolation-filters="sRGB">
<feFlood flood-opacity="0" result="BackgroundImageFix"/>
<feColorMatrix in="SourceAlpha" type="matrix" values="0 0 0 0 0 0 0 0 0 0 0 0 0 0 0 0 0 0 127 0" result="hardAlpha"/>
<feOffset dy="-1"/>
<feGaussianBlur stdDeviation="2"/>
<feComposite in2="hardAlpha" operator="out"/>
<feColorMatrix type="matrix" values="0 0 0 0 0 0 0 0 0 0 0 0 0 0 0 0 0 0 0.25 0"/>
<feBlend mode="normal" in2="BackgroundImageFix" result="effect1_dropShadow_1613_12018"/>
<feBlend mode="normal" in="SourceGraphic" in2="effect1_dropShadow_1613_12018" result="shape"/>
</filter>
<linearGradient id="paint0_linear_1613_12018" x1="57.535" y1="79.2554" x2="70.859" y2="90.6295" gradientUnits="userSpaceOnUse">
<stop stop-color="#FEDA81"/>
<stop offset="1" stop-color="#FA8843"/>
</linearGradient>
<linearGradient id="paint1_linear_1613_12018" x1="113.104" y1="38.85" x2="93.1719" y2="73.3561" gradientUnits="userSpaceOnUse">
<stop offset="0.0144231" stop-color="#C78B51"/>
<stop offset="0.1678" stop-color="#332A21"/>
<stop offset="0.479801" stop-color="#342A21"/>
<stop offset="1" stop-color="#E49546"/>
</linearGradient>
<linearGradient id="paint2_linear_1613_12018" x1="101.947" y1="44.4831" x2="119.929" y2="63.765" gradientUnits="userSpaceOnUse">
<stop offset="0.0416667" stop-color="#FDAF7A"/>
<stop offset="1" stop-color="#FF7524"/>
</linearGradient>
<linearGradient id="paint3_linear_1613_12018" x1="91.5473" y1="62.8983" x2="88.8391" y2="68.8562" gradientUnits="userSpaceOnUse">
<stop offset="0.0914383" stop-color="#CE42BD"/>
<stop offset="0.363356" stop-color="#8F3384"/>
<stop offset="1" stop-color="#290F26"/>
</linearGradient>
<linearGradient id="paint4_linear_1613_12018" x1="95.5553" y1="68.0978" x2="89.1641" y2="77.6305" gradientUnits="userSpaceOnUse">
<stop offset="0.284989" stop-color="#48D9D0"/>
<stop offset="0.942073" stop-color="#26736E"/>
</linearGradient>
<linearGradient id="paint5_linear_1613_12018" x1="80.11" y1="69.8865" x2="84.9622" y2="78.6218" gradientUnits="userSpaceOnUse">
<stop offset="0.31437" stop-color="#CE2327"/>
<stop offset="1" stop-color="#681214"/>
</linearGradient>
<linearGradient id="paint6_linear_1613_12018" x1="89.3909" y1="72.8648" x2="89.3909" y2="124.649" gradientUnits="userSpaceOnUse">
<stop stop-color="#FDEDC2"/>
<stop offset="0.168269" stop-color="#FEDA81"/>
<stop offset="0.365385" stop-color="#FEB889"/>
<stop offset="0.576923" stop-color="#FE8E42"/>
<stop offset="0.778846" stop-color="#FEB889"/>
<stop offset="1" stop-color="#FEDA81"/>
</linearGradient>
<linearGradient id="paint7_linear_1613_12018" x1="71.5264" y1="69.831" x2="71.5264" y2="92.5793" gradientUnits="userSpaceOnUse">
<stop offset="0.457143" stop-color="white"/>
<stop offset="1" stop-color="#FEB585" stop-opacity="0"/>
</linearGradient>
<linearGradient id="paint8_linear_1613_12018" x1="68.5591" y1="92.5795" x2="68.5591" y2="115.869" gradientUnits="userSpaceOnUse">
<stop stop-color="#FEB585" stop-opacity="0.43"/>
<stop offset="0.562791" stop-color="white"/>
</linearGradient>
</defs>
</svg>
