<svg width="159" height="98" viewBox="0 0 159 98" fill="none" xmlns="http://www.w3.org/2000/svg">
<mask id="mask0_1613_11915" style="mask-type:alpha" maskUnits="userSpaceOnUse" x="0" y="0" width="159" height="98">
<rect x="0.5" y="0.5" width="157.308" height="97" rx="23.5" fill="white" stroke="white"/>
</mask>
<g mask="url(#mask0_1613_11915)">
<rect x="65.4688" y="64.6443" width="18.0004" height="18.0004" rx="9.0002" transform="rotate(-13.8332 65.4688 64.6443)" fill="#FDA8A8"/>
<rect x="77.7461" y="76.3889" width="18.0004" height="18.0004" rx="9.0002" transform="rotate(30.0895 77.7461 76.3889)" fill="#FDA8A8"/>
<path d="M76.8443 103.054C70.9194 105.716 69.8206 112.487 70.0118 115.54C75.3832 117.12 80.1184 114.065 81.8146 112.341L81.4005 112.158C82.4659 111.837 83.5663 110.365 83.9833 109.67L83.4313 109.426C84.3862 109.056 85.6921 106.796 86.2256 105.712L85.5355 105.408C86.208 104.781 86.7585 102.264 86.9497 101.084C86.3231 100.412 84.0849 100.974 83.0441 101.339L83.2269 100.925C82.8341 100.62 81.6042 101.363 81.0385 101.773L81.0833 101.298C79.7712 100.982 77.9054 102.643 77.1365 103.513L76.8443 103.054Z" fill="#3C9857"/>
<path d="M61.5477 70.6303C63.1957 65.0754 68.5775 61.4914 74.3384 62.1125L85.344 63.2991C92.7841 64.1013 97.6833 71.443 95.5685 78.6212L78.0942 137.935C76.2213 144.293 69.5495 147.928 63.1922 146.055L52.6344 142.945C46.2686 141.069 42.6337 134.383 44.5212 128.021L61.5477 70.6303Z" fill="#FDA8A8" fill-opacity="0.52"/>
<path d="M82.5741 45.949C78.0743 48.7771 77.9512 54.389 78.4521 56.8415C82.984 57.5133 86.4752 54.5012 87.6543 52.9112L87.298 52.8099C88.125 52.4289 88.85 51.112 89.1091 50.5012L88.6341 50.3662C89.3661 49.9582 90.1682 47.9787 90.4777 47.0399L89.884 46.8712C90.3579 46.2872 90.5189 44.1854 90.5401 43.2074C89.9561 42.7335 88.206 43.4425 87.4039 43.8563L87.5051 43.5001C87.1521 43.2971 86.2398 44.0389 85.8277 44.4352L85.8102 44.0452C84.7112 43.9382 83.3874 45.4957 82.8628 46.2878L82.5741 45.949Z" fill="#3C9857"/>
<path d="M78.9336 56.2128L80.3618 54.5176M84.686 49.3851L85.9952 47.8312L89.0103 44.2526M80.3618 54.5176C81.2983 53.5131 83.1039 52.4072 84.686 52.7085M80.3618 54.5176L81.2736 53.0852M84.686 49.3851C85.4996 48.616 88.0309 47.6805 89.0103 47.8312M84.686 49.3851L81.2736 53.0852M81.2736 53.0852C81.615 52.1513 83.3786 48.886 82.7006 47.8312M85.9952 47.8312C86.2773 47.2348 86.4709 45.8714 85.794 45.2687" stroke="#338F58" stroke-width="2" stroke-linecap="round"/>
<path d="M67.8473 59.3901C69.1073 63.473 73.4397 64.7364 75.4485 64.8577C76.9132 61.4781 75.3005 58.1402 74.3111 56.8936L74.1584 57.1492C74.0346 56.4277 73.1627 55.5907 72.7423 55.2623L72.5386 55.6031C72.3741 54.9498 71.0037 53.915 70.3391 53.4793L70.0846 53.9053C69.7297 53.4157 68.1309 52.8534 67.3759 52.6334C66.8863 52.9883 67.0728 54.4949 67.2272 55.2039L66.9716 55.0512C66.7406 55.2831 67.1268 56.1459 67.3487 56.5484L67.0422 56.4808C66.7305 57.312 67.6645 58.6642 68.1705 59.2363L67.8473 59.3901Z" fill="#3C9857"/>
<path d="M75.0615 64.3513L74.0423 62.8895M70.9563 58.4634L70.022 57.1233L67.8702 54.0372M74.0423 62.8895C73.457 61.9532 72.9739 60.3209 73.5372 59.1549M74.0423 62.8895L73.1196 61.8833M70.9563 58.4634C70.5283 57.6715 70.3285 55.5111 70.6493 54.7819M70.9563 58.4634L73.1196 61.8833M73.1196 61.8833C72.4654 61.4239 70.2966 59.3748 69.3364 59.6819M70.022 57.1233C69.6175 56.7802 68.599 56.3462 67.9901 56.7464" stroke="#338F58" stroke-width="2" stroke-linecap="round"/>
<circle cx="102.563" cy="58.789" r="13.4461" fill="#FDA8A8"/>
<ellipse cx="102.348" cy="58.8972" rx="12.1448" ry="12.0364" fill="#FBF9DE"/>
<path d="M102.996 58.1383L104.526 48.5971C104.832 48.2893 106.056 48.0989 108.504 49.5205C110.463 50.6577 110.85 51.841 110.799 52.2905L102.996 58.1383Z" fill="#FDA8A8"/>
<path d="M103.297 58.6499L111.235 53.0642C111.672 53.0695 112.673 53.8209 113.378 56.5879C113.942 58.8015 113.365 59.9116 113.006 60.19L103.297 58.6499Z" fill="#FDA8A8"/>
<path d="M103.278 59.3989L112.882 60.8018C113.196 61.1063 113.405 62.3398 112.015 64.8335C110.902 66.8286 109.72 67.2377 109.267 67.1929L103.278 59.3989Z" fill="#FDA8A8"/>
<path d="M102.817 59.5624L108.295 67.5752C108.284 68.0121 107.519 69.0023 104.742 69.6698C102.521 70.2038 101.419 69.6117 101.146 69.2489L102.817 59.5624Z" fill="#FDA8A8"/>
<path d="M102.344 58.1938L104.023 48.634C103.832 48.2407 102.726 47.6549 99.9223 48.1938C97.679 48.6249 96.9198 49.6194 96.8206 50.0628L102.344 58.1938Z" fill="#FDA8A8"/>
<path d="M101.898 58.4788L96.2275 50.601C95.8128 50.4629 94.6215 50.8451 93.0489 53.2284C91.7908 55.135 91.9724 56.373 92.2205 56.7536L101.898 58.4788Z" fill="#FDA8A8"/>
<path d="M101.669 59.1914L92.1349 57.3708C91.7388 57.5557 91.1367 58.6524 91.6338 61.4642C92.0315 63.7136 93.0146 64.4875 93.4565 64.5933L101.669 59.1914Z" fill="#FDA8A8"/>
<path d="M102.053 59.4982L94.2524 65.2744C94.1199 65.691 94.5182 66.877 96.9226 68.4172C98.8461 69.6493 100.082 69.4509 100.459 69.1977L102.053 59.4982Z" fill="#FDA8A8"/>
<path d="M80.1917 42.5369C78.5526 43.9611 75.5551 48.1036 76.6783 53.2798M81.0113 51.3728C79.9113 52.6801 77.7844 56.247 78.076 60.0567M81.454 56.0599C80.4354 57.1387 78.3275 59.755 78.0452 61.5899" stroke="url(#paint0_linear_1613_11915)" stroke-linecap="round"/>
<path d="M78.4194 65.8919C78.2661 59.5234 76.4027 45.6356 70.1757 41.0318" stroke="url(#paint1_linear_1613_11915)" stroke-linecap="round"/>
<path d="M70.8601 49.0982C72.8358 50.007 76.939 52.6714 77.5459 56.058M73.1901 55.2803C74.7968 56.7441 78.0297 60.2244 78.1081 62.4346M76.2638 39.697C75.863 41.8363 75.27 47.1774 76.105 51.4276" stroke="url(#paint2_linear_1613_11915)" stroke-linecap="round"/>
<rect x="66.3555" y="47.3763" width="38.6033" height="97.3756" rx="3" transform="rotate(16.4153 66.3555 47.3763)" fill="url(#paint3_linear_1613_11915)" fill-opacity="0.67"/>
<rect x="67.0321" y="48.6181" width="36.6033" height="95.3756" rx="2" transform="rotate(16.4153 67.0321 48.6181)" stroke="url(#paint4_linear_1613_11915)" stroke-opacity="0.72" stroke-width="2"/>
<path d="M72.2456 51.5499L67.5928 50.0296L45.8438 123.436L50.8211 125.173L72.2456 51.5499Z" fill="url(#paint5_linear_1613_11915)"/>
<path d="M73.4178 148.684L69.2876 147.5L91.6205 75.163L96.2177 75.9571L73.4178 148.684Z" fill="url(#paint6_linear_1613_11915)"/>
<circle cx="69.8495" cy="74.2687" r="5.20493" fill="white"/>
<mask id="mask1_1613_11915" style="mask-type:alpha" maskUnits="userSpaceOnUse" x="64" y="69" width="12" height="11">
<circle cx="69.8495" cy="74.268" r="5.20493" fill="white"/>
</mask>
<g mask="url(#mask1_1613_11915)">
<circle cx="68.8753" cy="72.6413" r="3.57839" fill="#FDA8A8"/>
</g>
<circle cx="83.7284" cy="77.7401" r="5.20493" fill="white"/>
<mask id="mask2_1613_11915" style="mask-type:alpha" maskUnits="userSpaceOnUse" x="78" y="72" width="11" height="11">
<circle cx="83.7284" cy="77.7403" r="5.20493" fill="white"/>
</mask>
<g mask="url(#mask2_1613_11915)">
<circle cx="82.7503" cy="76.1138" r="3.57839" fill="#FDA8A8"/>
</g>
<path d="M79.5719 83.1425L69.2704 80.6485C68.8367 83.6781 68.7933 89.9582 72.0898 90.8415C75.3862 91.7248 78.4514 86.0769 79.5719 83.1425Z" fill="white"/>
<mask id="mask3_1613_11915" style="mask-type:alpha" maskUnits="userSpaceOnUse" x="68" y="80" width="12" height="12">
<path d="M79.4742 83.2499L69.1728 80.7559C68.739 83.7855 68.6957 90.0656 71.9921 90.9489C75.2886 91.8322 78.3537 86.1843 79.4742 83.2499Z" fill="white"/>
</mask>
<g mask="url(#mask3_1613_11915)">
<circle cx="72.3179" cy="89.1064" r="4.33745" fill="#FF8F8F"/>
</g>
<ellipse cx="64.603" cy="78.0668" rx="3.69079" ry="2.42019" transform="rotate(36.0458 64.603 78.0668)" fill="#FDA8A8"/>
<ellipse cx="85.3859" cy="83.9206" rx="3.73984" ry="2.45236" transform="rotate(0.597619 85.3859 83.9206)" fill="#FDA8A8"/>
<path d="M104.645 88.1549C99.2828 91.6845 92.4353 92.599 89.5075 92.5216L87.6328 98.5362C92.2556 101.88 101.717 96.9014 105.801 93.9601C107.465 95.8178 111.271 95.0438 112.966 94.4245C113.891 94.9903 115.925 96.0146 116.665 95.5856C117.404 95.1566 116.973 94.0136 116.665 93.4957C117.311 93.5731 118.679 93.4493 118.976 92.3347C119.273 91.2201 117.867 90.1674 117.127 89.7804C117.435 89.8578 118.144 89.6411 118.514 88.1549C118.884 86.6688 113.429 86.4521 110.655 86.5295C111.425 85.678 112.597 83.743 111.117 82.8141C109.638 81.8853 106.186 85.9876 104.645 88.1549Z" fill="url(#paint7_linear_1613_11915)"/>
<path d="M48.3318 70.3051C51.5962 75.8156 57.7331 79.6361 60.3935 80.8575L58.8911 87.0588C53.2793 88.0026 47.1267 79.3939 44.752 74.9716C42.4452 75.8944 39.3699 73.5267 38.1205 72.2275C37.0433 72.3244 34.7699 72.3412 34.2943 71.6326C33.8187 70.9241 34.7064 70.0952 35.2098 69.7693C34.5958 69.5533 33.4233 68.8402 33.6448 67.7154C33.8664 66.5905 35.589 66.2718 36.4226 66.253C36.1122 66.1862 35.5713 65.6805 35.8905 64.1925C36.2098 62.7044 41.1983 64.9155 43.6526 66.207C43.3344 65.1083 43.1315 62.8668 44.8654 62.6907C46.5994 62.5146 47.8988 67.6936 48.3318 70.3051Z" fill="url(#paint8_linear_1613_11915)"/>
</g>
<defs>
<linearGradient id="paint0_linear_1613_11915" x1="74.8684" y1="47.6391" x2="83.3628" y2="56.4817" gradientUnits="userSpaceOnUse">
<stop stop-color="#56A098"/>
<stop offset="1" stop-color="#49C6B9"/>
</linearGradient>
<linearGradient id="paint1_linear_1613_11915" x1="66.1588" y1="44.8906" x2="82.5353" y2="61.9381" gradientUnits="userSpaceOnUse">
<stop stop-color="#56A098"/>
<stop offset="1" stop-color="#49C6B9"/>
</linearGradient>
<linearGradient id="paint2_linear_1613_11915" x1="71.0636" y1="44.6925" x2="83.3083" y2="57.4391" gradientUnits="userSpaceOnUse">
<stop stop-color="#56A098"/>
<stop offset="1" stop-color="#49C6B9"/>
</linearGradient>
<linearGradient id="paint3_linear_1613_11915" x1="68.358" y1="86.0324" x2="105.035" y2="85.1263" gradientUnits="userSpaceOnUse">
<stop stop-color="#FDF9BF"/>
<stop offset="0.676618" stop-color="#FEE194"/>
<stop offset="1" stop-color="#FDF8BE"/>
</linearGradient>
<linearGradient id="paint4_linear_1613_11915" x1="85.6571" y1="47.3763" x2="85.6571" y2="144.752" gradientUnits="userSpaceOnUse">
<stop stop-color="#FCFFE1"/>
<stop offset="0.313746" stop-color="#FDA8A8"/>
</linearGradient>
<linearGradient id="paint5_linear_1613_11915" x1="59.0447" y1="50.0296" x2="59.0447" y2="125.173" gradientUnits="userSpaceOnUse">
<stop offset="0.240363" stop-color="white"/>
<stop offset="1" stop-color="#EFDAAA" stop-opacity="0.13"/>
</linearGradient>
<linearGradient id="paint6_linear_1613_11915" x1="62.9551" y1="143.599" x2="102.31" y2="79.7096" gradientUnits="userSpaceOnUse">
<stop offset="0.240363" stop-color="white"/>
<stop offset="1" stop-color="#F8D5A5" stop-opacity="0"/>
</linearGradient>
<linearGradient id="paint7_linear_1613_11915" x1="90.8096" y1="95.8874" x2="119.031" y2="89.9539" gradientUnits="userSpaceOnUse">
<stop stop-color="#FDE5BF"/>
<stop offset="1" stop-color="#FDA8A8"/>
</linearGradient>
<linearGradient id="paint8_linear_1613_11915" x1="57.3562" y1="83.2975" x2="34.682" y2="65.5122" gradientUnits="userSpaceOnUse">
<stop stop-color="#FBEFDA"/>
<stop offset="1" stop-color="#FDA8A8"/>
</linearGradient>
</defs>
</svg>
