<svg width="168" height="104" viewBox="0 0 168 104" fill="none" xmlns="http://www.w3.org/2000/svg">
<mask id="mask0_1613_16453" style="mask-type:alpha" maskUnits="userSpaceOnUse" x="0" y="0" width="168" height="104">
<rect x="0.5" y="0.5" width="167" height="103" rx="23.5" fill="white" stroke="white"/>
</mask>
<g mask="url(#mask0_1613_16453)">
<path d="M126.626 53.987C126.626 51.6409 108.347 49.739 85.7975 49.739C63.2484 49.739 44.9688 51.6409 44.9688 53.987" stroke="url(#paint0_linear_1613_16453)" stroke-width="2"/>
<circle cx="126.56" cy="53.8412" r="14.4191" fill="#3C9857"/>
<circle cx="126.683" cy="53.9637" r="13.8081" fill="url(#paint1_linear_1613_16453)"/>
<path d="M128.722 52.3994C128.463 52.6332 128.226 52.8219 128.065 52.9024C127.619 53.1254 127.047 52.9257 126.964 52.434C126.806 51.4924 127.239 49.8135 127.347 49.5973C127.491 49.3099 127.778 49.0225 128.928 49.5973C130.035 50.1509 129.642 51.5711 128.722 52.3994Z" fill="#B6D756"/>
<path d="M128.816 54.2209C128.602 54.1841 128.419 54.1413 128.318 54.0936C128.037 53.9617 127.915 53.6055 128.123 53.376C128.522 52.9366 129.508 52.5026 129.655 52.4722C129.85 52.4319 130.101 52.4617 130.262 53.2438C130.418 53.997 129.574 54.3514 128.816 54.2209Z" fill="#B6D756"/>
<path d="M127.507 55.7817C127.372 55.5159 127.269 55.2793 127.238 55.1287C127.152 54.7116 127.444 54.2836 127.867 54.324C128.679 54.4014 129.968 55.1296 130.122 55.2665C130.328 55.4486 130.501 55.7491 129.773 56.5702C129.072 57.3611 127.987 56.7235 127.507 55.7817Z" fill="#B6D756"/>
<path d="M124.887 55.3939C125.077 55.1009 125.257 54.8575 125.391 54.738C125.764 54.4072 126.369 54.452 126.576 54.9055C126.973 55.774 126.989 57.5078 126.941 57.7445C126.876 58.0593 126.673 58.4113 125.414 58.1537C124.201 57.9055 124.213 56.4321 124.887 55.3939Z" fill="#B6D756"/>
<path d="M124.324 53.6601C124.54 53.6403 124.728 53.6343 124.838 53.6541C125.143 53.709 125.354 54.0213 125.212 54.2968C124.941 54.8244 124.101 55.4989 123.967 55.5663C123.788 55.6558 123.538 55.692 123.18 54.9783C122.835 54.291 123.558 53.7302 124.324 53.6601Z" fill="#B6D756"/>
<path d="M125.184 51.8113C125.383 52.033 125.544 52.2347 125.613 52.3722C125.804 52.7531 125.633 53.2418 125.213 53.3125C124.409 53.4478 122.976 53.078 122.791 52.9857C122.546 52.863 122.3 52.6176 122.791 51.636C123.264 50.6907 124.476 51.0258 125.184 51.8113Z" fill="#B6D756"/>
<path d="M125.307 51.4489C125.422 51.6421 125.531 51.8032 125.614 51.8835C125.845 52.1058 126.235 52.0929 126.38 51.807C126.657 51.2594 126.713 50.146 126.688 49.9926C126.655 49.7887 126.534 49.5573 125.718 49.6898C124.932 49.8174 124.901 50.7642 125.307 51.4489Z" fill="#B6D756"/>
<rect x="61.7148" y="76.567" width="22.987" height="22.987" rx="11.4935" transform="rotate(37.8197 61.7148 76.567)" fill="#338F58"/>
<rect x="68.3945" y="104.032" width="22.987" height="22.987" rx="11.4935" transform="rotate(-18.2024 68.3945 104.032)" fill="#338F58"/>
<rect x="87.2148" y="73.4892" width="22.987" height="22.987" rx="11.4935" transform="rotate(-5.73968 87.2148 73.4892)" fill="#338F58"/>
<path d="M37.3606 128.255C45.9143 127.155 47.7465 123.612 47.7465 123.612L47.4409 90.7117L38.3627 118.388C35.2435 117.69 28.6087 117.231 27.0225 120.971C25.4401 124.702 32.0883 124.921 36.8365 125.077L36.8712 125.078C34.1819 127.662 36.2675 128.074 37.3606 128.255Z" fill="url(#paint2_linear_1613_16453)"/>
<ellipse cx="110.431" cy="87.0751" rx="12.7083" ry="14.4191" fill="#3C9857"/>
<ellipse cx="110.541" cy="87.1975" rx="12.1698" ry="13.8081" fill="url(#paint3_linear_1613_16453)"/>
<path d="M112.329 85.6439C112.105 85.8718 111.902 86.0551 111.763 86.1342C111.376 86.3538 110.877 86.1573 110.801 85.7188C110.638 84.7887 111.032 83.0494 111.129 82.8291C111.256 82.5417 111.509 82.2543 112.523 82.8291C113.554 83.4143 113.16 84.798 112.329 85.6439Z" fill="#B6D756"/>
<path d="M112.426 87.4501C112.236 87.4131 112.074 87.3701 111.984 87.3223C111.736 87.1899 111.628 86.8327 111.818 86.5986C112.172 86.1613 113.034 85.7311 113.163 85.7009C113.335 85.6605 113.556 85.6903 113.698 86.4724C113.834 87.2161 113.09 87.5795 112.426 87.4501Z" fill="#B6D756"/>
<path d="M111.273 89.0272C111.151 88.7559 111.057 88.5137 111.03 88.3605C110.954 87.9386 111.211 87.5043 111.622 87.5604C112.339 87.6583 113.438 88.3638 113.572 88.4983C113.753 88.6804 113.906 88.9809 113.264 89.802C112.675 90.5564 111.689 89.9485 111.273 89.0272Z" fill="#B6D756"/>
<path d="M108.974 88.6109C109.139 88.3241 109.294 88.0865 109.411 87.9689C109.735 87.6423 110.262 87.6862 110.437 88.0938C110.804 88.9469 110.82 90.7347 110.776 90.9754C110.719 91.2902 110.54 91.6422 109.43 91.3845C108.309 91.1242 108.366 89.669 108.974 88.6109Z" fill="#B6D756"/>
<path d="M108.465 86.8911C108.657 86.8712 108.823 86.865 108.921 86.8849C109.19 86.94 109.376 87.2531 109.247 87.534C109.005 88.0607 108.27 88.73 108.152 88.7971C107.995 88.8867 107.775 88.9228 107.459 88.2091C107.158 87.5294 107.794 86.9612 108.465 86.8911Z" fill="#B6D756"/>
<path d="M109.222 85.0333C109.401 85.2589 109.547 85.4646 109.608 85.6041C109.778 85.9888 109.628 86.483 109.223 86.5501C108.509 86.6687 107.281 86.3085 107.121 86.2176C106.905 86.0949 106.688 85.8495 107.121 84.868C107.521 83.9605 108.609 84.2631 109.222 85.0333Z" fill="#B6D756"/>
<path d="M109.335 84.6838C109.435 84.8752 109.531 85.0346 109.604 85.1143C109.806 85.3355 110.148 85.3226 110.273 85.0497C110.522 84.5065 110.572 83.378 110.55 83.2235C110.521 83.0196 110.414 82.7881 109.695 82.9207C108.989 83.0509 108.974 83.9934 109.335 84.6838Z" fill="#B6D756"/>
<ellipse cx="57.5293" cy="107.117" rx="9.90818" ry="11.242" transform="rotate(180 57.5293 107.117)" fill="#3C9857"/>
<ellipse cx="57.4453" cy="107.022" rx="9.48834" ry="10.7656" transform="rotate(180 57.4453 107.022)" fill="url(#paint4_linear_1613_16453)"/>
<path d="M58.6707 105.919C58.5423 106.142 58.4214 106.327 58.3303 106.419C58.0773 106.674 57.6666 106.639 57.5299 106.322C57.2438 105.657 57.2318 104.263 57.2656 104.075C57.3099 103.83 57.4495 103.555 58.3148 103.756C59.189 103.959 59.1445 105.094 58.6707 105.919Z" fill="#B6D756"/>
<ellipse cx="66.084" cy="103.452" rx="9.90818" ry="11.242" transform="rotate(180 66.084 103.452)" fill="#3C9857"/>
<ellipse cx="65.9999" cy="103.355" rx="9.48834" ry="10.7656" transform="rotate(180 65.9999 103.355)" fill="url(#paint5_linear_1613_16453)"/>
<path d="M64.5365 103.157C64.6844 103.186 64.8109 103.219 64.8807 103.256C65.074 103.36 65.1587 103.638 65.0107 103.821C64.7343 104.162 64.0626 104.497 63.962 104.521C63.8277 104.552 63.6554 104.529 63.5444 103.919C63.439 103.339 64.0185 103.056 64.5365 103.157Z" fill="#B6D756"/>
<path d="M65.4303 101.928C65.5257 102.14 65.5989 102.329 65.6204 102.448C65.6797 102.777 65.4787 103.116 65.1583 103.072C64.5994 102.995 63.7424 102.445 63.6382 102.341C63.4971 102.199 63.3779 101.964 63.8782 101.324C64.3378 100.736 65.1063 101.21 65.4303 101.928Z" fill="#B6D756"/>
<path d="M67.2254 102.254C67.097 102.477 66.9761 102.663 66.885 102.754C66.632 103.009 66.2213 102.975 66.0846 102.657C65.7985 101.992 65.7865 100.598 65.8203 100.41C65.8646 100.165 66.0042 99.8903 66.8695 100.091C67.7437 100.294 67.6992 101.429 67.2254 102.254Z" fill="#B6D756"/>
<path d="M67.6224 103.594C67.4731 103.61 67.3434 103.615 67.2674 103.599C67.0573 103.556 66.9121 103.312 67.0128 103.093C67.2016 102.682 67.7746 102.161 67.8664 102.108C67.989 102.038 68.1608 102.01 68.407 102.567C68.6416 103.097 68.1461 103.54 67.6224 103.594Z" fill="#B6D756"/>
<path d="M67.0345 105.041C66.8945 104.865 66.7812 104.705 66.7333 104.596C66.6011 104.296 66.7181 103.911 67.0332 103.858C67.5899 103.766 68.5476 104.047 68.6725 104.118C68.8411 104.213 69.0097 104.405 68.6725 105.17C68.3607 105.877 67.5125 105.641 67.0345 105.041Z" fill="#B6D756"/>
<path d="M44.9688 53.8292L46.0224 125.008L65.9158 127.887C79.1093 129.797 92.5091 129.797 105.703 127.887L125.596 125.008L126.626 54.0735" stroke="url(#paint6_linear_1613_16453)" stroke-width="2"/>
<path d="M46.8516 64.8418L85.871 64.842L124.89 64.8421L123.545 123.258L104.524 126.371C91.9618 127.723 79.1695 127.715 66.6059 126.371L47.7078 123.258L46.8516 64.8418Z" fill="url(#paint7_linear_1613_16453)" fill-opacity="0.7"/>
<ellipse cx="85.871" cy="65.473" rx="39.0194" ry="5.03476" fill="url(#paint8_linear_1613_16453)"/>
<path d="M53.3322 115.729C59.1652 100.277 72.3508 118.086 78.2145 128.922C83.3505 126.837 91.1996 124.312 81.5084 130.891C71.8173 137.47 66.3928 135.154 64.892 133.173L64.798 140.195C54.5912 144.542 47.6714 142.792 45.4873 141.374C44.3212 133.571 49.8279 132.168 52.727 132.441C50.6326 126.068 52.2578 118.644 53.3322 115.729Z" fill="url(#paint9_linear_1613_16453)"/>
<path d="M66.0976 115.89C71.9306 100.438 85.0173 117.755 90.881 128.591C102.001 128.468 104.689 126.269 94.2738 131.052C83.6294 135.94 79.1582 135.314 77.6574 133.334L77.5634 140.355C67.3566 144.702 60.4368 142.953 58.2528 141.535C57.0866 133.732 62.5933 132.329 65.4924 132.602C63.398 126.229 65.0232 118.805 66.0976 115.89Z" fill="url(#paint10_linear_1613_16453)"/>
<path d="M107.897 48.2294C107.701 52.6539 103.686 55.0541 101.703 55.7012C99.35 52.6946 100.094 48.9251 100.761 47.4161L100.981 47.6325C100.916 46.8765 101.572 45.8089 101.908 45.3696L102.201 45.6582C102.195 44.9598 103.299 43.5636 103.852 42.9528L104.218 43.3134C104.446 42.7296 105.903 41.7474 106.602 41.3293C107.186 41.5572 107.393 43.1171 107.424 43.8686L107.64 43.6486C107.933 43.8207 107.771 44.7871 107.653 45.2488L107.943 45.1009C108.473 45.853 107.89 47.4535 107.532 48.1597L107.897 48.2294Z" fill="#3C9857"/>
<path d="M101.956 55.091L102.596 53.3582M104.534 48.1119L105.12 46.5235L106.471 42.8655M102.596 53.3582C102.938 52.2661 102.996 50.5026 102.126 49.4805M102.596 53.3582L103.259 52.1078M104.534 48.1119C104.756 47.2058 104.391 44.9867 103.879 44.3392M104.534 48.1119L103.259 52.1078M103.259 52.1078C103.795 51.4759 105.434 48.8535 106.477 48.9104M105.12 46.5235C105.436 46.0736 106.344 45.3719 107.06 45.614" stroke="#338F58" stroke-width="2" stroke-linecap="round"/>
<path d="M109.2 52.1817C101.295 54.7599 98.9724 63.2282 98.7988 67.1401C105.42 69.8846 111.863 66.6433 114.258 64.6795L113.756 64.3903C115.156 64.127 116.757 62.4048 117.383 61.5766L116.713 61.1909C117.979 60.8505 119.95 58.1523 120.777 56.8457L119.94 56.3637C120.882 55.658 121.926 52.53 122.331 51.0543C121.625 50.1128 118.699 50.5224 117.325 50.8449L117.614 50.343C117.156 49.9006 115.489 50.6788 114.713 51.1232L114.835 50.5248C113.208 49.9442 110.606 51.8034 109.509 52.8056L109.2 52.1817Z" fill="#3C9857"/>
<path d="M99.7712 66.37L102.584 64.3416M111.099 58.2L113.677 56.3406L119.614 52.0583M102.584 64.3416C104.387 63.1739 107.548 62.1832 109.834 63.2427M102.584 64.3416L104.512 62.5153M111.099 58.2C112.626 57.3427 116.823 56.8869 118.252 57.4883M111.099 58.2L104.512 62.5153M104.512 62.5153C105.386 61.2282 109.305 56.9449 108.678 55.0864M113.677 56.3406C114.332 55.5429 115.145 53.548 114.347 52.3758" stroke="#338F58" stroke-width="2" stroke-linecap="round"/>
<path d="M126.626 53.9879C126.626 56.3341 108.347 58.236 85.7975 58.236C63.2484 58.236 44.9688 56.3341 44.9688 53.9879" stroke="url(#paint11_linear_1613_16453)" stroke-width="2"/>
<path d="M50.793 58.2359L57.4011 59.2144V91.7485L50.793 90.7701V58.2359Z" fill="white"/>
<path d="M50.793 92.3772L57.4011 93.3942V99.3L50.793 98.2831V92.3772Z" fill="white"/>
<path d="M66.1124 84.1265C66.0113 85.743 63.363 86.893 60.1974 86.695C57.0317 86.497 54.5473 85.026 54.6484 83.4095" stroke="#3C9857" stroke-width="2" stroke-linecap="round"/>
<path d="M85.1397 85.3195C85.0386 86.936 82.3904 88.0859 79.2247 87.8879C76.059 87.69 73.5747 86.219 73.6758 84.6025" stroke="#3C9857" stroke-width="2" stroke-linecap="round"/>
<path d="M73.7957 94.4043C73.6946 96.0208 71.92 97.2254 69.832 97.0948C67.744 96.9642 66.1333 95.5479 66.2344 93.9314" stroke="#3C9857" stroke-width="2" stroke-linecap="round"/>
<path d="M107.746 59.7696L121.12 58.5502V120.737L107.746 121.957V59.7696Z" fill="url(#paint12_linear_1613_16453)"/>
</g>
<defs>
<linearGradient id="paint0_linear_1613_16453" x1="44.9688" y1="51.863" x2="126.626" y2="51.863" gradientUnits="userSpaceOnUse">
<stop stop-color="#3AD4C1"/>
<stop offset="0.408654" stop-color="#FEDB7A"/>
<stop offset="0.966346" stop-color="#36D4C2"/>
</linearGradient>
<linearGradient id="paint1_linear_1613_16453" x1="134.259" y1="42.7217" x2="104.566" y2="65.5722" gradientUnits="userSpaceOnUse">
<stop offset="0.0240385" stop-color="#FDFF7E"/>
<stop offset="0.481727" stop-color="#D6E49D"/>
<stop offset="1" stop-color="#5B893A"/>
</linearGradient>
<linearGradient id="paint2_linear_1613_16453" x1="50.5577" y1="113.958" x2="28.3181" y2="123.001" gradientUnits="userSpaceOnUse">
<stop stop-color="#ACEFCB"/>
<stop offset="1" stop-color="#E1EC94"/>
</linearGradient>
<linearGradient id="paint3_linear_1613_16453" x1="117.218" y1="75.9556" x2="88.6782" y2="95.3127" gradientUnits="userSpaceOnUse">
<stop offset="0.0240385" stop-color="#FDFF7E"/>
<stop offset="0.481727" stop-color="#D6E49D"/>
<stop offset="1" stop-color="#5B893A"/>
</linearGradient>
<linearGradient id="paint4_linear_1613_16453" x1="62.6512" y1="98.257" x2="40.3998" y2="113.349" gradientUnits="userSpaceOnUse">
<stop offset="0.0240385" stop-color="#FDFF7E"/>
<stop offset="0.481727" stop-color="#D6E49D"/>
<stop offset="1" stop-color="#5B893A"/>
</linearGradient>
<linearGradient id="paint5_linear_1613_16453" x1="71.2059" y1="94.59" x2="48.9545" y2="109.682" gradientUnits="userSpaceOnUse">
<stop offset="0.0240385" stop-color="#FDFF7E"/>
<stop offset="0.481727" stop-color="#D6E49D"/>
<stop offset="1" stop-color="#5B893A"/>
</linearGradient>
<linearGradient id="paint6_linear_1613_16453" x1="44.9688" y1="92.298" x2="126.626" y2="92.298" gradientUnits="userSpaceOnUse">
<stop stop-color="#37D4C2"/>
<stop offset="0.278846" stop-color="#E4EDBD"/>
<stop offset="0.966346" stop-color="#32D3C3"/>
</linearGradient>
<linearGradient id="paint7_linear_1613_16453" x1="52.9675" y1="100.902" x2="121.955" y2="100.902" gradientUnits="userSpaceOnUse">
<stop stop-color="#B5F4D9"/>
<stop offset="1" stop-color="#FECC3F"/>
</linearGradient>
<linearGradient id="paint8_linear_1613_16453" x1="85.871" y1="60.4382" x2="85.8046" y2="77.9026" gradientUnits="userSpaceOnUse">
<stop stop-color="#E1EC94"/>
<stop offset="1" stop-color="#38D4C2"/>
</linearGradient>
<linearGradient id="paint9_linear_1613_16453" x1="49.0918" y1="125.047" x2="74.9972" y2="125.78" gradientUnits="userSpaceOnUse">
<stop stop-color="#E1EC94"/>
<stop offset="1" stop-color="#32D3C3"/>
</linearGradient>
<linearGradient id="paint10_linear_1613_16453" x1="49.0902" y1="144.69" x2="94.1803" y2="145.576" gradientUnits="userSpaceOnUse">
<stop stop-color="#E1EC94"/>
<stop offset="1" stop-color="#32D3C3"/>
</linearGradient>
<linearGradient id="paint11_linear_1613_16453" x1="44.9688" y1="56.112" x2="126.626" y2="56.112" gradientUnits="userSpaceOnUse">
<stop stop-color="#3AD4C1"/>
<stop offset="0.408654" stop-color="#FEDB7A"/>
<stop offset="0.966346" stop-color="#36D4C2"/>
</linearGradient>
<linearGradient id="paint12_linear_1613_16453" x1="114.433" y1="58.5502" x2="114.433" y2="121.957" gradientUnits="userSpaceOnUse">
<stop offset="0.149038" stop-color="white"/>
<stop offset="1" stop-color="#E7EEB3" stop-opacity="0"/>
</linearGradient>
</defs>
</svg>
