<svg width="168" height="104" viewBox="0 0 168 104" fill="none" xmlns="http://www.w3.org/2000/svg">
<mask id="mask0_1613_16536" style="mask-type:alpha" maskUnits="userSpaceOnUse" x="0" y="0" width="168" height="104">
<rect x="0.5" y="0.5" width="167" height="103" rx="23.5" fill="white" stroke="white"/>
</mask>
<g mask="url(#mask0_1613_16536)">
<circle cx="66.3242" cy="78.8546" r="12.289" fill="#7CAA89"/>
<ellipse cx="102.105" cy="106.191" rx="12.289" ry="12.3726" fill="#7CAA89"/>
<path d="M113.893 61.5248C110.395 63.2926 100.182 65.0605 83.7456 65.0605C67.3089 65.0605 55.8783 64.1086 54.3711 61.5248C54.3711 57.8447 67.6956 54.8614 84.1323 54.8614C100.569 54.8614 113.893 57.8447 113.893 61.5248Z" fill="url(#paint0_linear_1613_16536)"/>
<path d="M123.062 90.1085C127.713 101.153 130.708 126.917 104.657 133.997C101.23 134.829 92.3181 136.583 84.0918 136.946V136.948C75.8653 136.585 66.9531 134.83 63.5254 133.998C37.4752 126.918 40.4702 100.613 45.1221 89.5685L54.458 61.6798C58.5711 64.9475 76.5818 64.9346 84.0908 64.7833V64.7823C91.599 64.9336 109.475 64.4191 113.589 61.1515L123.062 90.1085Z" fill="url(#paint1_linear_1613_16536)" fill-opacity="0.8"/>
<path d="M83.7344 49C91.8423 49 99.1587 49.5573 104.427 50.4502C107.069 50.898 109.148 51.4231 110.544 51.9824C111.247 52.264 111.718 52.5318 111.997 52.7627C112.138 52.8794 112.197 52.959 112.222 53C112.197 53.041 112.138 53.1206 111.997 53.2373C111.718 53.4682 111.247 53.736 110.544 54.0176C109.148 54.5769 107.069 55.102 104.427 55.5498C99.1587 56.4427 91.8423 57 83.7344 57C75.6265 57 68.3101 56.4427 63.042 55.5498C60.3999 55.102 58.3206 54.5769 56.9248 54.0176C56.2221 53.736 55.7504 53.4682 55.4717 53.2373C55.3303 53.1202 55.2703 53.0409 55.2461 53C55.2703 52.9591 55.3303 52.8798 55.4717 52.7627C55.7504 52.5318 56.2221 52.264 56.9248 51.9824C58.3206 51.4231 60.3999 50.898 63.042 50.4502C68.3101 49.5573 75.6265 49 83.7344 49Z" stroke="#6CCC9F" stroke-width="2"/>
<path d="M124.597 88.4341L123.652 88.7607L123.658 88.7794L123.665 88.7978L124.597 88.4341ZM105.256 135.513L105.509 136.481L105.523 136.477L105.537 136.473L105.256 135.513ZM83.8809 138.82V139.82H83.9047L83.9284 139.819L83.8809 138.82ZM83.8799 138.82L83.8323 139.819L83.8561 139.82H83.8799V138.82ZM62.5039 135.513L62.2225 136.473L62.2365 136.477L62.2505 136.481L62.5039 135.513ZM43.1641 88.4341L44.0956 88.7978L44.1028 88.7794L44.1092 88.7607L43.1641 88.4341ZM55.124 53.8247L55.7748 53.0654L54.6589 52.109L54.1789 53.4981L55.124 53.8247ZM83.8799 57.896V56.896H83.869L83.8582 56.8962L83.8799 57.896ZM83.8809 57.896L83.9026 56.8962L83.8917 56.896H83.8809V57.896ZM112.637 53.8247L113.582 53.4981L113.102 52.109L111.986 53.0654L112.637 53.8247ZM124.597 88.4341L123.665 88.7978C126.034 94.8661 127.917 104.443 125.917 113.423C123.936 122.322 118.14 130.693 104.974 134.554L105.256 135.513L105.537 136.473C119.449 132.394 125.741 123.418 127.869 113.858C129.98 104.38 127.994 94.3869 125.528 88.0704L124.597 88.4341ZM105.256 135.513L105.003 134.546C101.481 135.468 92.291 137.418 83.8333 137.821L83.8809 138.82L83.9284 139.819C92.5705 139.407 101.905 137.424 105.509 136.481L105.256 135.513ZM83.8809 138.82V137.82H83.8799V138.82V139.82H83.8809V138.82ZM83.8799 138.82L83.9275 137.821C75.4693 137.418 66.2788 135.468 62.7573 134.546L62.5039 135.513L62.2505 136.481C65.8543 137.424 75.1898 139.407 83.8323 139.819L83.8799 138.82ZM62.5039 135.513L62.7853 134.554C49.6201 130.693 43.8244 122.322 41.8432 113.423C39.8439 104.443 41.7265 94.8661 44.0956 88.7978L43.1641 88.4341L42.2325 88.0704C39.7666 94.3869 37.7808 104.38 39.891 113.858C42.0195 123.418 48.3112 132.393 62.2225 136.473L62.5039 135.513ZM43.1641 88.4341L44.1092 88.7607L56.0692 54.1513L55.124 53.8247L54.1789 53.4981L42.2189 88.1075L43.1641 88.4341ZM55.124 53.8247L54.4733 54.584C55.7307 55.6617 57.772 56.4285 60.0827 57.0012C62.4325 57.5836 65.213 57.9999 68.0768 58.2929C73.8068 58.8791 79.9697 58.9812 83.9016 58.8958L83.8799 57.896L83.8582 56.8962C79.9857 56.9804 73.9083 56.879 68.2803 56.3033C65.4651 56.0153 62.7871 55.611 60.5638 55.06C58.3014 54.4992 56.655 53.8198 55.7748 53.0654L55.124 53.8247ZM83.8799 57.896V58.896H83.8809V57.896V56.896H83.8799V57.896ZM83.8809 57.896L83.8591 58.8958C87.7911 58.9812 93.954 58.8791 99.6841 58.2929C102.548 57.9999 105.328 57.5836 107.678 57.0012C109.989 56.4286 112.03 55.6618 113.288 54.584L112.637 53.8247L111.986 53.0654C111.106 53.8199 109.459 54.4993 107.197 55.06C104.974 55.611 102.296 56.0153 99.4805 56.3033C93.8525 56.879 87.7751 56.9804 83.9026 56.8962L83.8809 57.896ZM112.637 53.8247L111.692 54.1513L123.652 88.7607L124.597 88.4341L125.542 88.1075L113.582 53.4981L112.637 53.8247Z" fill="url(#paint2_linear_1613_16536)"/>
<path d="M98.2319 105.746C114.899 101.33 117.96 86.034 117.408 78.9378L123.09 92.3417C113.857 118.624 87.5787 119.675 86.6317 118.098C85.8741 116.837 86.3161 115.82 86.6317 115.47C86.0793 115.295 84.9745 114.629 84.9745 113.367C84.9745 112.106 86.0793 111.09 86.6317 110.739C86.1582 110.914 85.1639 110.739 84.9745 108.637C84.8022 106.724 88.5345 105.971 90.933 105.785C90.2698 105.621 89.5706 104.792 89.7093 102.329C89.8987 98.9648 95.47 103.205 98.2319 105.746Z" fill="url(#paint3_linear_1613_16536)"/>
<path d="M70.5337 105.746C53.8671 101.33 50.8053 86.034 51.3577 78.9378L45.6758 92.3417C54.9087 118.624 81.1869 119.675 82.1339 118.098C82.8915 116.837 82.4496 115.82 82.1339 115.47C82.6863 115.295 83.7911 114.629 83.7911 113.367C83.7911 112.106 82.6863 111.09 82.1339 110.739C82.6074 110.914 83.6017 110.739 83.7911 108.637C83.9634 106.724 80.2311 105.971 77.8327 105.785C78.4959 105.621 79.195 104.792 79.0564 102.329C78.867 98.9648 73.2957 103.205 70.5337 105.746Z" fill="url(#paint4_linear_1613_16536)"/>
<path d="M72.7617 76.9319C72.9065 77.4691 73.3204 78.3138 74.0746 78.9383M79.784 76.9319C79.5942 77.871 78.6453 79.7493 76.3678 79.7493C75.9699 79.7493 75.6087 79.692 75.2821 79.5924M74.0746 78.9383L72.9933 80.0083M74.0746 78.9383C74.4084 79.2147 74.8088 79.448 75.2821 79.5924M75.2821 79.5924L74.4933 80.9446" stroke="#21A26A" stroke-width="2" stroke-linecap="round"/>
<path d="M94.6641 76.9319C94.5193 77.4691 94.1054 78.3138 93.3512 78.9383M93.3512 78.9383C93.0174 79.2147 92.6169 79.448 92.1436 79.5924C91.8171 79.692 91.4559 79.7493 91.058 79.7493C88.7805 79.7493 87.8316 77.871 87.6418 76.9319M93.3512 78.9383L94.4325 80.0083M92.1436 79.5924L92.9325 80.9446" stroke="#21A26A" stroke-width="2" stroke-linecap="round"/>
<path d="M80.4531 82.9506C80.7062 83.898 81.7817 85.793 84.0592 85.793C86.3367 85.793 87.2856 83.898 87.4754 82.9506" stroke="#21A26A" stroke-width="2" stroke-linecap="round"/>
<ellipse cx="67.1628" cy="82.9506" rx="4.09634" ry="4.01274" fill="#21A26A"/>
<ellipse cx="100.432" cy="82.9506" rx="4.09634" ry="4.01274" fill="#21A26A"/>
<path d="M91.8701 51.01C91.6197 49.7645 90.5138 47.7924 89.9922 46.962C98.756 44.4709 104.703 50.6986 106.581 54.1239C106.998 54.0201 106.518 54.2485 101.26 55.9922C94.6871 58.172 92.1831 52.567 91.8701 51.01Z" fill="#84AB43"/>
<path d="M105.142 53.5759C101.84 51.3745 94.5752 47.1272 91.9336 47.7487" stroke="#627A3C" stroke-linecap="round"/>
<g filter="url(#filter0_d_1613_16536)">
<path d="M95.3274 59.8122C94.7676 59.1882 93.478 58.438 92.9031 58.1409C97.0493 53.7873 102.517 55.3337 104.733 56.6511C104.935 56.4522 104.739 56.7429 102.334 59.4966C99.3292 62.9387 96.0272 60.5923 95.3274 59.8122Z" fill="#84AB43"/>
<path d="M103.731 56.8217C101.117 56.6773 95.5637 56.6982 94.2706 57.937" stroke="#627A3C" stroke-linecap="round"/>
</g>
<path d="M109.147 46.4112C104.783 46.159 102.836 50.0894 102.408 52.0861C98.2362 53.0318 100.803 65.6431 110.43 65.0126C110.818 64.9872 111.445 64.8273 111.799 64.7782C118.23 65.2927 119.003 58.9953 118.515 56.5001C120.377 52.4679 116.497 48.7263 113.64 47.0418C112.613 45.5285 110.217 45.9909 109.147 46.4112Z" fill="#D7543F"/>
<path d="M114.923 60.2835C116.807 59.0295 117.937 57.7509 118.515 56.5001C120.377 52.4679 116.497 48.7263 113.64 47.0418C112.613 45.5285 110.217 45.9909 109.147 46.4112C104.783 46.159 102.836 50.0894 102.408 52.0861M102.408 52.0861C98.2362 53.0318 100.803 65.6431 110.43 65.0126C110.818 64.9872 111.445 64.8273 111.799 64.7782M102.408 52.0861C102.222 54.3137 102.707 58.315 106.14 56.5001M118.515 56.5001C119.003 58.9953 118.23 65.2927 111.799 64.7782M111.799 64.7782C112.313 64.4802 113.085 63.8522 113.085 63.2348" stroke="#F49A77" stroke-linecap="round"/>
<path d="M113.88 58.7753C115.46 57.3051 113.807 55.4881 113.261 54.6717C115.274 52.3712 110.069 49.4083 106.997 53.046C104.539 55.9562 106.712 57.4318 107.798 58.1224C108.558 60.1264 110.566 60.6226 112.126 60.1653C113.002 60.3029 113.66 59.296 113.88 58.7753Z" fill="#FAB856"/>
<path d="M110.386 55.5343C108.085 54.6716 107.562 57.5008 107.798 58.1224M107.798 58.1224C108.558 60.1264 110.566 60.6226 112.126 60.1653C113.002 60.3029 113.66 59.296 113.88 58.7753C115.46 57.3051 113.807 55.4881 113.261 54.6717C115.274 52.3712 110.069 49.4083 106.997 53.046C104.539 55.9562 106.712 57.4318 107.798 58.1224Z" stroke="#D7543F" stroke-linecap="round"/>
<path d="M108.005 60.9517C106.916 57.8717 103.645 57.6675 102.146 57.9504C100.287 55.3497 92.3405 60.7673 95.5603 67.218C95.6899 67.4775 95.9816 67.8635 96.1177 68.093C97.6238 72.6727 102.187 71.3835 103.764 70.3251C107.081 70.4413 108.537 66.6858 108.871 64.2296C109.616 63.0842 108.604 61.5671 108.005 60.9517Z" fill="#D7543F"/>
<path d="M100.119 68.9451C101.528 69.8805 102.736 70.289 103.764 70.3251C107.081 70.4413 108.537 66.6858 108.871 64.2296C109.616 63.0842 108.604 61.5671 108.005 60.9517C106.916 57.8717 103.645 57.6675 102.146 57.9504M102.146 57.9504C100.287 55.3497 92.3405 60.7673 95.5603 67.218C95.6899 67.4775 95.9816 67.8635 96.1177 68.093M102.146 57.9504C100.557 58.4665 97.9403 59.9587 100.184 61.7987M103.764 70.3251C102.187 71.3835 97.6238 72.6727 96.1177 68.093M96.1177 68.093C96.4718 68.3612 97.1279 68.7112 97.5532 68.5326" stroke="#F49A77" stroke-linecap="round"/>
<path d="M100.856 67.7912C102.326 68.4539 103.1 66.7896 103.505 66.1775C105.672 66.8987 106.208 62.4552 102.812 61.3909C100.096 60.5395 99.7079 62.4632 99.5463 63.4113C98.3855 64.5151 98.6245 66.042 99.3911 66.9848C99.5495 67.6277 100.434 67.7903 100.856 67.7912Z" fill="#FAB856"/>
<path d="M102.078 64.4457C102.007 62.611 99.9063 63.0689 99.5463 63.4113M99.5463 63.4113C98.3855 64.5151 98.6245 66.042 99.3911 66.9848C99.5495 67.6277 100.434 67.7903 100.856 67.7912C102.326 68.4539 103.1 66.7896 103.505 66.1775C105.672 66.8987 106.208 62.4552 102.812 61.3909C100.096 60.5395 99.7079 62.4632 99.5463 63.4113Z" stroke="#D7543F" stroke-linecap="round"/>
<path d="M64.4025 58.1172L59.512 57.0352L49.1875 85.166L56.9308 87.4652L64.4025 58.1172Z" fill="url(#paint5_linear_1613_16536)"/>
<path d="M56.5459 88.5971L48.9403 86.2944C46.5499 92.2543 46.6315 93.6088 47.8537 94.8278L54.9161 96.9951C54.1556 95.0446 55.6857 90.5837 56.5459 88.5971Z" fill="white"/>
</g>
<defs>
<filter id="filter0_d_1613_16536" x="88.9023" y="50.2693" width="19.8906" height="14.05" filterUnits="userSpaceOnUse" color-interpolation-filters="sRGB">
<feFlood flood-opacity="0" result="BackgroundImageFix"/>
<feColorMatrix in="SourceAlpha" type="matrix" values="0 0 0 0 0 0 0 0 0 0 0 0 0 0 0 0 0 0 127 0" result="hardAlpha"/>
<feOffset dy="-1"/>
<feGaussianBlur stdDeviation="2"/>
<feComposite in2="hardAlpha" operator="out"/>
<feColorMatrix type="matrix" values="0 0 0 0 0 0 0 0 0 0 0 0 0 0 0 0 0 0 0.25 0"/>
<feBlend mode="normal" in2="BackgroundImageFix" result="effect1_dropShadow_1613_16536"/>
<feBlend mode="normal" in="SourceGraphic" in2="effect1_dropShadow_1613_16536" result="shape"/>
</filter>
<linearGradient id="paint0_linear_1613_16536" x1="85.3689" y1="53.0936" x2="85.3689" y2="74.0356" gradientUnits="userSpaceOnUse">
<stop stop-color="#2DA56E"/>
<stop offset="0.644231" stop-color="#FDDB99" stop-opacity="0.55"/>
</linearGradient>
<linearGradient id="paint1_linear_1613_16536" x1="84.0916" y1="61.1515" x2="84.0916" y2="136.948" gradientUnits="userSpaceOnUse">
<stop offset="0.142806" stop-color="#FDDC99"/>
<stop offset="0.787379" stop-color="#67CB9D"/>
<stop offset="1" stop-color="#C2E7C4"/>
</linearGradient>
<linearGradient id="paint2_linear_1613_16536" x1="83.8802" y1="53.8247" x2="83.8802" y2="138.82" gradientUnits="userSpaceOnUse">
<stop stop-color="#67CB9F"/>
<stop offset="1" stop-color="#FBE1AB"/>
</linearGradient>
<linearGradient id="paint3_linear_1613_16536" x1="94.189" y1="114.63" x2="125.061" y2="94.6247" gradientUnits="userSpaceOnUse">
<stop stop-color="#21A26A"/>
<stop offset="1" stop-color="#E3E1AB"/>
</linearGradient>
<linearGradient id="paint4_linear_1613_16536" x1="74.5766" y1="114.63" x2="43.7051" y2="94.6247" gradientUnits="userSpaceOnUse">
<stop stop-color="#21A26A"/>
<stop offset="1" stop-color="#E3E1AB"/>
</linearGradient>
<linearGradient id="paint5_linear_1613_16536" x1="56.795" y1="57.0352" x2="56.795" y2="87.4652" gradientUnits="userSpaceOnUse">
<stop offset="0.632376" stop-color="white"/>
<stop offset="1" stop-color="#FDDFAD" stop-opacity="0.36"/>
</linearGradient>
</defs>
</svg>
