<svg width="168" height="104" viewBox="0 0 168 104" fill="none" xmlns="http://www.w3.org/2000/svg">
<mask id="mask0_1613_15477" style="mask-type:alpha" maskUnits="userSpaceOnUse" x="0" y="0" width="168" height="104">
<rect x="0.5" y="0.5" width="167" height="103" rx="23.5" fill="white" stroke="white"/>
</mask>
<g mask="url(#mask0_1613_15477)">
<path d="M110.471 59.2113C107.381 60.5783 98.3587 61.9454 83.8391 61.9454C69.3195 61.9454 59.222 61.2093 57.8906 59.2113C57.8906 56.3654 69.6611 54.0584 84.1807 54.0584C98.7003 54.0584 110.471 56.3654 110.471 59.2113Z" fill="url(#paint0_linear_1613_15477)"/>
<path d="M84.1924 50.0588C91.1595 50.0588 97.4567 50.466 102.003 51.1213C104.28 51.4495 106.097 51.8367 107.333 52.258C107.954 52.4698 108.4 52.6808 108.68 52.8782C108.977 53.0877 108.981 53.2033 108.981 53.2043C108.981 53.2093 108.972 53.3247 108.68 53.5305C108.4 53.7278 107.954 53.9379 107.333 54.1497C106.097 54.571 104.28 54.9591 102.003 55.2873C97.4567 55.9426 91.1594 56.3498 84.1924 56.3498C77.2251 56.3498 70.9272 55.9427 66.3809 55.2873C64.1039 54.9591 62.2873 54.571 61.0508 54.1497C60.4296 53.9379 59.9842 53.7278 59.7041 53.5305C59.4118 53.3246 59.4026 53.2093 59.4023 53.2043C59.4023 53.2033 59.4066 53.0877 59.7041 52.8782C59.9843 52.6808 60.4294 52.4698 61.0508 52.258C62.2873 51.8367 64.1039 51.4495 66.3809 51.1213C70.9272 50.466 77.2251 50.0588 84.1924 50.0588Z" stroke="url(#paint1_linear_1613_15477)"/>
<path d="M97.794 48.4952C97.164 48.7976 96.9736 50.4759 96.957 51.2772C96.6401 55.8496 98.357 56.0978 101.987 56.2385C104.89 56.3511 107.013 53.9821 107.712 52.7836L105.164 51.7315C106.171 51.0806 106.714 48.145 106.86 46.7586C106.543 46.4921 104.417 47.6171 103.394 48.213L103.194 47.5243C102.689 47.4321 101.358 48.7544 100.756 49.4271C100.973 48.5277 100.313 47.2159 99.9562 46.6725C99.1839 46.8968 98.4301 48.1113 98.1498 48.6906L97.794 48.4952Z" fill="#657B5A"/>
<path d="M98.0625 54.5788L99.2033 53.5964M99.9293 52.9713L102.107 51.0958L102.73 50.5599L105.53 48.1486M99.2033 53.5964C100.759 53.2325 104.078 52.6912 104.908 53.438M99.2033 53.5964L99.9293 52.9713M99.6182 48.1486C99.337 48.7578 99.3735 49.8478 99.5145 50.8898C99.6231 51.6928 99.7939 52.4672 99.9293 52.9713M99.5145 50.8898C99.0996 50.8749 98.2284 50.5548 98.0625 49.3932M102.107 51.0958C102.972 50.632 104.804 49.7458 105.219 49.9117M102.73 50.5599C102.626 50.2229 102.315 48.8746 102.73 48.356" stroke="#44573B" stroke-linecap="round"/>
<rect x="66.2344" y="60.5936" width="25.0984" height="25.0984" rx="12.5492" transform="rotate(32.8029 66.2344 60.5936)" fill="#304E69"/>
<rect x="81.2617" y="86.1192" width="25.0984" height="25.0984" rx="12.5492" transform="rotate(-11.9528 81.2617 86.1192)" fill="#304E69"/>
<path d="M94.8697 45.7691C95.3997 45.9248 95.7698 46.361 95.8681 46.8683C96.1094 46.8058 96.3705 46.8041 96.6271 46.8795C97.3833 47.1017 97.8159 47.895 97.5939 48.6513C97.5471 48.8106 97.4729 48.9539 97.3811 49.0814C97.5288 49.3885 97.5689 49.7488 97.4653 50.1015C97.4537 50.141 97.4399 50.1794 97.4253 50.217C97.6167 50.1917 97.8163 50.2046 98.0135 50.2625C98.7698 50.4845 99.2033 51.2773 98.9815 52.0336C98.8108 52.615 98.3023 53.0035 97.7328 53.0523C97.7311 53.1792 97.7147 53.3081 97.6772 53.4359C97.5201 53.9711 97.0766 54.343 96.563 54.437C96.6217 54.7241 96.614 55.0291 96.5258 55.3299C96.3224 56.0226 95.7499 56.5045 95.0858 56.6292C95.2597 57.0179 95.3028 57.4672 95.1735 57.9078C94.8848 58.8911 93.8538 59.4542 92.8705 59.1655C92.7274 59.1234 92.5942 59.064 92.4703 58.993C92.1483 59.923 91.1507 60.4457 90.1963 60.1655C89.4303 59.9404 88.9218 59.2647 88.8701 58.5121C88.433 58.7929 87.882 58.8917 87.3445 58.7339C86.3611 58.4452 85.7984 57.4133 86.0871 56.4299C86.2311 55.9398 86.5591 55.5533 86.9742 55.3255C86.7325 54.9821 86.643 54.5366 86.7704 54.1024C86.8221 53.9264 86.9056 53.7685 87.0114 53.6317C86.5542 53.1673 86.3553 52.476 86.5519 51.8063C86.7864 51.008 87.51 50.4856 88.3003 50.4723C87.8085 50.0084 87.5871 49.2927 87.7906 48.5996C88.0793 47.6165 89.1105 47.0535 90.0936 47.3419C90.2932 47.4005 90.4751 47.4909 90.6364 47.6041C90.5907 47.3825 90.5977 47.1467 90.6659 46.9145C90.888 46.1583 91.6805 45.7256 92.4368 45.9474C92.7563 46.0413 93.0176 46.2373 93.1968 46.4891C93.5024 45.8894 94.2002 45.5726 94.8697 45.7691Z" fill="#382742"/>
<g filter="url(#filter0_d_1613_15477)">
<path d="M103.541 51.8886C103.97 52.2358 104.144 52.7808 104.04 53.2869C104.287 53.3218 104.529 53.4205 104.737 53.5887C105.35 54.0843 105.445 54.9829 104.949 55.5959C104.845 55.7252 104.722 55.8302 104.588 55.9127C104.606 56.2526 104.504 56.6 104.274 56.8856C104.248 56.9176 104.22 56.9477 104.192 56.9769C104.379 57.027 104.558 57.1155 104.718 57.2447C105.331 57.7401 105.427 58.6387 104.931 59.2518C104.551 59.723 103.932 59.8865 103.387 59.7128C103.337 59.8295 103.272 59.9427 103.188 60.0464C102.837 60.4798 102.285 60.6524 101.775 60.5421C101.719 60.8296 101.595 61.1084 101.398 61.3522C100.945 61.9133 100.232 62.1381 99.571 61.9987C99.5823 62.4245 99.4482 62.8559 99.1595 63.2131C98.5154 64.0102 97.3472 64.1341 96.5502 63.4899C96.4342 63.3962 96.334 63.2902 96.2468 63.177C95.5926 63.9122 94.4708 64.0127 93.6971 63.3877C93.0759 62.8856 92.8659 62.0653 93.1074 61.3504C92.596 61.4419 92.0494 61.3214 91.6136 60.9692C90.8165 60.3251 90.6932 59.1562 91.3374 58.3591C91.6587 57.9618 92.1098 57.7309 92.5806 57.68C92.4894 57.2701 92.5777 56.8245 92.8622 56.4725C92.9776 56.3298 93.1152 56.2161 93.2655 56.1304C93.0217 55.526 93.1036 54.8113 93.5423 54.2685C94.0653 53.6214 94.9341 53.4171 95.6689 53.7082C95.3928 53.0911 95.4629 52.346 95.9168 51.7841C96.561 50.987 97.7298 50.8624 98.5268 51.5066C98.689 51.6377 98.8219 51.7915 98.9275 51.9585C98.9703 51.7361 99.0665 51.5209 99.2188 51.3325C99.7142 50.7194 100.613 50.6236 101.226 51.1189C101.485 51.3283 101.65 51.6103 101.719 51.9117C102.231 51.4748 102.998 51.45 103.541 51.8886Z" fill="#382742"/>
</g>
<g filter="url(#filter1_d_1613_15477)">
<path d="M114.063 88.1519C113.796 88.6347 113.289 88.9005 112.773 88.8858C112.781 89.1348 112.724 89.3893 112.594 89.623C112.212 90.3122 111.344 90.5609 110.654 90.1787C110.509 90.0981 110.384 89.9949 110.28 89.8772C109.948 89.9539 109.588 89.9146 109.267 89.7364C109.231 89.7165 109.197 89.6938 109.164 89.6713C109.146 89.8636 109.09 90.0555 108.99 90.2352C108.608 90.9244 107.74 91.1738 107.05 90.7917C106.521 90.498 106.253 89.9172 106.329 89.3512C106.206 89.3217 106.084 89.2762 105.967 89.2115C105.479 88.941 105.214 88.4273 105.235 87.9055C104.942 87.9 104.646 87.8257 104.372 87.6737C103.741 87.3235 103.396 86.6601 103.419 85.9849C103.002 86.0695 102.553 86.0127 102.152 85.79C101.256 85.2929 100.932 84.1635 101.429 83.2674C101.501 83.1368 101.589 83.0198 101.686 82.9143C100.849 82.3966 100.556 81.3091 101.039 80.4391C101.426 79.7404 102.198 79.3911 102.944 79.506C102.766 79.0181 102.79 78.4596 103.062 77.9697C103.559 77.0735 104.688 76.7501 105.584 77.247C106.031 77.4949 106.337 77.8998 106.468 78.3549C106.856 78.1945 107.311 78.2046 107.706 78.4241C107.867 78.5131 108.003 78.629 108.113 78.7623C108.666 78.4181 109.384 78.3754 109.995 78.7138C110.722 79.1176 111.072 79.9382 110.912 80.7123C111.472 80.3336 112.219 80.2748 112.851 80.6252C113.747 81.1222 114.071 82.252 113.574 83.1482C113.474 83.33 113.345 83.4865 113.199 83.6191C113.425 83.623 113.654 83.6815 113.866 83.7988C114.555 84.1812 114.804 85.0505 114.422 85.7399C114.26 86.0309 114.011 86.2419 113.726 86.3615C114.245 86.7909 114.402 87.5416 114.063 88.1519Z" fill="#382742"/>
</g>
<g filter="url(#filter2_d_1613_15477)">
<path d="M74.8636 60.9436C74.8375 61.4954 74.501 61.9579 74.0312 62.1733C74.1488 62.3929 74.2111 62.6455 74.1986 62.9125C74.1614 63.6998 73.4934 64.3083 72.706 64.2712C72.5403 64.2634 72.3833 64.225 72.2378 64.166C71.9743 64.3821 71.6337 64.506 71.2664 64.4887C71.2253 64.4867 71.1848 64.4824 71.1448 64.477C71.2146 64.6571 71.2491 64.854 71.2394 65.0593C71.2022 65.8468 70.5333 66.4553 69.7459 66.418C69.1408 66.3892 68.644 65.9869 68.4623 65.4452C68.3385 65.4735 68.2093 65.488 68.0763 65.4817C67.5192 65.4554 67.0531 65.1121 66.8405 64.6353C66.5754 64.7601 66.2771 64.8247 65.9641 64.8099C65.2429 64.7757 64.6394 64.3333 64.3615 63.7174C64.0249 63.9782 63.5984 64.1261 63.1398 64.1045C62.1161 64.0561 61.3246 63.1871 61.373 62.1634C61.38 62.0144 61.4073 61.8711 61.4471 61.7338C60.4675 61.6406 59.7241 60.7953 59.7708 59.8019C59.8085 59.0042 60.3452 58.3498 61.0645 58.1219C60.6884 57.7635 60.4623 57.2514 60.4888 56.6918C60.5372 55.6681 61.4071 54.8776 62.4308 54.926C62.9411 54.9503 63.394 55.1777 63.7134 55.5273C63.9901 55.2114 64.4018 55.0193 64.8538 55.0406C65.037 55.0492 65.2102 55.0931 65.3681 55.1636C65.7114 54.6096 66.3363 54.2533 67.0335 54.2862C67.8647 54.3255 68.543 54.9054 68.7425 55.6702C69.0772 55.0827 69.7204 54.6987 70.442 54.7328C71.4654 54.7813 72.256 55.6503 72.2078 56.6738C72.1979 56.8821 72.1523 57.0803 72.0801 57.2641C72.2847 57.1672 72.5153 57.1176 72.7572 57.129C73.5445 57.1662 74.153 57.8343 74.116 58.6215C74.1003 58.9541 73.9713 59.2545 73.769 59.488C74.424 59.6434 74.8965 60.2467 74.8636 60.9436Z" fill="#382742"/>
</g>
<path d="M58.0148 59.1984C61.6468 61.7275 77.55 61.7178 84.1798 61.6007V117.454C76.9162 117.173 69.0472 115.815 66.0207 115.171C43.0188 109.691 45.6632 89.3311 49.7707 80.7833L58.0148 59.1984ZM118.59 81.2023C122.697 89.75 125.342 109.691 102.34 115.171C99.3135 115.815 91.4445 117.173 84.1808 117.454V61.6007C90.8107 61.7178 106.595 61.3193 110.227 58.7901L118.59 81.2023Z" fill="url(#paint3_linear_1613_15477)" fill-opacity="0.84"/>
<path d="M67.8927 88.0383C78.5639 88.5737 78.7971 107.62 77.5798 117.076L76.4533 117.316L73.6967 96.7401L76.3463 119.449C69.2417 122.457 60.1436 121.071 56.4826 120.002C55.5218 117.829 57.9415 114.615 59.2715 113.28C57.6989 104.643 57.2216 87.503 67.8927 88.0383Z" fill="url(#paint4_linear_1613_15477)"/>
<path d="M83.4513 89.0109C94.1225 89.5462 94.3557 108.592 93.1384 118.049L91.6571 118.297L91.9049 120.421C84.8003 123.429 75.7022 122.043 72.0412 120.974C71.0804 118.801 73.5001 115.588 74.8301 114.253C73.2575 105.616 72.7801 88.4756 83.4513 89.0109Z" fill="url(#paint5_linear_1613_15477)"/>
<path d="M66.9781 95.1615C57.3501 95.9257 52.5577 88.3476 51.3651 84.4631L48.4374 90.0034C52.731 100.09 63.3457 102.867 68.1163 102.994C69.2873 104.676 72.3991 103.567 73.8086 102.803C75.7602 102.803 77.8745 101.084 76.8987 96.1167C76.118 92.143 72.8871 93.0601 71.3693 94.0153C71.8572 93.1874 72.5077 91.4553 71.2066 91.1496C69.9055 90.8439 67.8455 93.6969 66.9781 95.1615Z" fill="url(#paint6_linear_1613_15477)"/>
<path d="M71.1454 56.8866L64.3572 56.0302L52.5655 84.8344L62.1118 85.6944L71.1454 56.8866Z" fill="url(#paint7_linear_1613_15477)"/>
<path d="M66.517 73.9072C72.8119 75.1649 75.2503 73.4276 75.6827 72.4017C76.5795 75.0561 77.0897 80.4509 71.9564 80.7955C66.8232 81.1401 66.1913 76.3468 66.517 73.9072Z" fill="white"/>
<mask id="mask1_1613_15477" style="mask-type:alpha" maskUnits="userSpaceOnUse" x="66" y="71" width="11" height="11">
<path d="M66.9059 74.4148C72.7328 75.5791 74.9899 73.9709 75.3901 73.0213C76.2202 75.4783 76.7032 80.7909 71.9409 80.7909C68.25 80.791 66.5011 77.499 66.9059 74.4148Z" fill="white" stroke="black"/>
</mask>
<g mask="url(#mask1_1613_15477)">
<path d="M65.0884 76.0959C65.199 78.2669 67.331 80.1104 69.502 79.9998C71.6729 79.8892 73.0609 77.8664 72.9503 75.6954C72.8397 73.5244 70.9901 71.8541 68.8191 71.9647C66.6481 72.0753 64.9778 73.9249 65.0884 76.0959Z" fill="#346A99"/>
</g>
<path d="M80.8711 73.0398C86.5253 76.0792 89.3644 75.1287 90.0773 74.2736C90.1607 77.0741 89.075 82.3831 84.0645 81.2153C79.054 80.0474 79.8478 75.2783 80.8711 73.0398Z" fill="white"/>
<mask id="mask2_1613_15477" style="mask-type:alpha" maskUnits="userSpaceOnUse" x="79" y="72" width="12" height="10">
<path d="M81.0942 73.6383C86.3279 76.4517 88.956 75.5719 89.6158 74.7804C89.693 77.3726 88.6052 82.595 84.0501 81.2059C80.5197 80.1292 79.8072 76.4702 81.0942 73.6383Z" fill="white" stroke="black"/>
</mask>
<g mask="url(#mask2_1613_15477)">
<path d="M78.8651 74.7159C78.3376 76.8248 79.839 79.21 81.9479 79.7376C84.0567 80.2651 85.9743 78.7351 86.5019 76.6263C87.0294 74.5175 85.7475 72.3803 83.6387 71.8527C81.5298 71.3252 79.3926 72.6071 78.8651 74.7159Z" fill="#346A99"/>
</g>
<path d="M75.4216 83.7204C76.1891 83.6004 77.9505 83.493 78.8557 84.0241" stroke="#346A99" stroke-linecap="round"/>
<circle cx="63.1104" cy="80.8175" r="3.62994" fill="#346A99"/>
<circle cx="94.4307" cy="81.025" r="3.62994" fill="#346A99"/>
<g filter="url(#filter3_d_1613_15477)">
<path d="M84.0603 95.1615C95.7668 95.9257 101.594 88.3476 103.044 84.4631L106.603 90.0034C101.383 100.09 88.4769 102.867 82.6764 102.994C81.2526 104.676 77.4691 103.567 75.7553 102.803C73.3823 102.803 70.8117 101.084 71.9981 96.1167C72.9473 92.143 76.8757 93.0601 78.7212 94.0153C78.128 93.1874 77.337 91.4553 78.919 91.1496C80.5009 90.8439 83.0057 93.6969 84.0603 95.1615Z" fill="url(#paint8_linear_1613_15477)"/>
</g>
</g>
<defs>
<filter id="filter0_d_1613_15477" x="78.9258" y="50.802" width="26.3398" height="21.1004" filterUnits="userSpaceOnUse" color-interpolation-filters="sRGB">
<feFlood flood-opacity="0" result="BackgroundImageFix"/>
<feColorMatrix in="SourceAlpha" type="matrix" values="0 0 0 0 0 0 0 0 0 0 0 0 0 0 0 0 0 0 127 0" result="hardAlpha"/>
<feOffset dx="-8" dy="4"/>
<feGaussianBlur stdDeviation="2"/>
<feComposite in2="hardAlpha" operator="out"/>
<feColorMatrix type="matrix" values="0 0 0 0 0 0 0 0 0 0 0 0 0 0 0 0 0 0 0.25 0"/>
<feBlend mode="normal" in2="BackgroundImageFix" result="effect1_dropShadow_1613_15477"/>
<feBlend mode="normal" in="SourceGraphic" in2="effect1_dropShadow_1613_15477" result="shape"/>
</filter>
<filter id="filter1_d_1613_15477" x="88.8047" y="77.0139" width="25.7969" height="21.9569" filterUnits="userSpaceOnUse" color-interpolation-filters="sRGB">
<feFlood flood-opacity="0" result="BackgroundImageFix"/>
<feColorMatrix in="SourceAlpha" type="matrix" values="0 0 0 0 0 0 0 0 0 0 0 0 0 0 0 0 0 0 127 0" result="hardAlpha"/>
<feOffset dx="-8" dy="4"/>
<feGaussianBlur stdDeviation="2"/>
<feComposite in2="hardAlpha" operator="out"/>
<feColorMatrix type="matrix" values="0 0 0 0 0 0 0 0 0 0 0 0 0 0 0 0 0 0 0.25 0"/>
<feBlend mode="normal" in2="BackgroundImageFix" result="effect1_dropShadow_1613_15477"/>
<feBlend mode="normal" in="SourceGraphic" in2="effect1_dropShadow_1613_15477" result="shape"/>
</filter>
<filter id="filter2_d_1613_15477" x="47.7695" y="54.2841" width="27.0938" height="20.1356" filterUnits="userSpaceOnUse" color-interpolation-filters="sRGB">
<feFlood flood-opacity="0" result="BackgroundImageFix"/>
<feColorMatrix in="SourceAlpha" type="matrix" values="0 0 0 0 0 0 0 0 0 0 0 0 0 0 0 0 0 0 127 0" result="hardAlpha"/>
<feOffset dx="-8" dy="4"/>
<feGaussianBlur stdDeviation="2"/>
<feComposite in2="hardAlpha" operator="out"/>
<feColorMatrix type="matrix" values="0 0 0 0 0 0 0 0 0 0 0 0 0 0 0 0 0 0 0.25 0"/>
<feBlend mode="normal" in2="BackgroundImageFix" result="effect1_dropShadow_1613_15477"/>
<feBlend mode="normal" in="SourceGraphic" in2="effect1_dropShadow_1613_15477" result="shape"/>
</filter>
<filter id="filter3_d_1613_15477" x="66.6992" y="84.4631" width="42.9023" height="29.4115" filterUnits="userSpaceOnUse" color-interpolation-filters="sRGB">
<feFlood flood-opacity="0" result="BackgroundImageFix"/>
<feColorMatrix in="SourceAlpha" type="matrix" values="0 0 0 0 0 0 0 0 0 0 0 0 0 0 0 0 0 0 127 0" result="hardAlpha"/>
<feOffset dx="-1" dy="6"/>
<feGaussianBlur stdDeviation="2"/>
<feComposite in2="hardAlpha" operator="out"/>
<feColorMatrix type="matrix" values="0 0 0 0 0 0 0 0 0 0 0 0 0 0 0 0 0 0 0.25 0"/>
<feBlend mode="normal" in2="BackgroundImageFix" result="effect1_dropShadow_1613_15477"/>
<feBlend mode="normal" in="SourceGraphic" in2="effect1_dropShadow_1613_15477" result="shape"/>
</filter>
<linearGradient id="paint0_linear_1613_15477" x1="84.2486" y1="54.0584" x2="84.2486" y2="61.9454" gradientUnits="userSpaceOnUse">
<stop stop-color="#7090AA"/>
<stop offset="1" stop-color="#B9D2E0"/>
</linearGradient>
<linearGradient id="paint1_linear_1613_15477" x1="84.192" y1="49.5588" x2="84.192" y2="56.8495" gradientUnits="userSpaceOnUse">
<stop stop-color="#A6CFE6"/>
<stop offset="0.423077" stop-color="#215F94"/>
</linearGradient>
<linearGradient id="paint3_linear_1613_15477" x1="48.7056" y1="81.6318" x2="122.371" y2="81.6318" gradientUnits="userSpaceOnUse">
<stop stop-color="#68859F"/>
<stop offset="0.322048" stop-color="#C2DFED"/>
<stop offset="0.821852" stop-color="#7192AC"/>
</linearGradient>
<linearGradient id="paint4_linear_1613_15477" x1="62.1782" y1="104.102" x2="77.6306" y2="103.946" gradientUnits="userSpaceOnUse">
<stop stop-color="#BAD3E1"/>
<stop offset="1" stop-color="#789AB5"/>
</linearGradient>
<linearGradient id="paint5_linear_1613_15477" x1="94.7429" y1="115.329" x2="68.3999" y2="115.018" gradientUnits="userSpaceOnUse">
<stop stop-color="#88B2CD"/>
<stop offset="0.591346" stop-color="#BBD4E2"/>
</linearGradient>
<linearGradient id="paint6_linear_1613_15477" x1="50.9192" y1="87.6983" x2="74.7562" y2="93.8719" gradientUnits="userSpaceOnUse">
<stop stop-color="#6785A2"/>
<stop offset="1" stop-color="#C7E1F4"/>
</linearGradient>
<linearGradient id="paint7_linear_1613_15477" x1="61.2753" y1="56.6646" x2="62.4608" y2="85.6799" gradientUnits="userSpaceOnUse">
<stop offset="0.383513" stop-color="white"/>
<stop offset="1" stop-color="#7EA4BF" stop-opacity="0"/>
</linearGradient>
<linearGradient id="paint8_linear_1613_15477" x1="104.757" y1="87.3763" x2="81.5579" y2="101.577" gradientUnits="userSpaceOnUse">
<stop stop-color="#6E89A4"/>
<stop offset="0.447328" stop-color="#7C9FB9"/>
<stop offset="1" stop-color="#BAD3E1"/>
</linearGradient>
</defs>
</svg>
